%TF.GenerationSoftware,KiCad,Pcbnew,7.0.11+dfsg-1build4*%
%TF.CreationDate,2025-02-07T16:56:40+01:00*%
%TF.ProjectId,Schematic,53636865-6d61-4746-9963-2e6b69636164,rev?*%
%TF.SameCoordinates,Original*%
%TF.FileFunction,Drillmap*%
%TF.FilePolarity,Positive*%
%FSLAX45Y45*%
G04 Gerber Fmt 4.5, Leading zero omitted, Abs format (unit mm)*
G04 Created by KiCad (PCBNEW 7.0.11+dfsg-1build4) date 2025-02-07 16:56:40*
%MOMM*%
%LPD*%
G01*
G04 APERTURE LIST*
%ADD10C,0.050000*%
%ADD11C,0.200000*%
G04 APERTURE END LIST*
D10*
X10578000Y-3810000D02*
X17026000Y-3810000D01*
X17026000Y-3810000D02*
X17026000Y-10160000D01*
X17026000Y-10160000D02*
X20828000Y-10160000D01*
X6858000Y-10160000D02*
X10578000Y-10160000D01*
X10578000Y-10160000D02*
X10578000Y-3810000D01*
X6858000Y-15240000D02*
X20828000Y-15240000D01*
X6858000Y-15240000D02*
X6858000Y-10160000D01*
X20828000Y-10160000D02*
X20828000Y-15240000D01*
D11*
X7116277Y-15553984D02*
X7116277Y-15353984D01*
X7116277Y-15353984D02*
X7163896Y-15353984D01*
X7163896Y-15353984D02*
X7192467Y-15363508D01*
X7192467Y-15363508D02*
X7211515Y-15382555D01*
X7211515Y-15382555D02*
X7221039Y-15401603D01*
X7221039Y-15401603D02*
X7230562Y-15439698D01*
X7230562Y-15439698D02*
X7230562Y-15468269D01*
X7230562Y-15468269D02*
X7221039Y-15506365D01*
X7221039Y-15506365D02*
X7211515Y-15525412D01*
X7211515Y-15525412D02*
X7192467Y-15544460D01*
X7192467Y-15544460D02*
X7163896Y-15553984D01*
X7163896Y-15553984D02*
X7116277Y-15553984D01*
X7316277Y-15553984D02*
X7316277Y-15420650D01*
X7316277Y-15458746D02*
X7325801Y-15439698D01*
X7325801Y-15439698D02*
X7335324Y-15430174D01*
X7335324Y-15430174D02*
X7354372Y-15420650D01*
X7354372Y-15420650D02*
X7373420Y-15420650D01*
X7440086Y-15553984D02*
X7440086Y-15420650D01*
X7440086Y-15353984D02*
X7430562Y-15363508D01*
X7430562Y-15363508D02*
X7440086Y-15373031D01*
X7440086Y-15373031D02*
X7449610Y-15363508D01*
X7449610Y-15363508D02*
X7440086Y-15353984D01*
X7440086Y-15353984D02*
X7440086Y-15373031D01*
X7563896Y-15553984D02*
X7544848Y-15544460D01*
X7544848Y-15544460D02*
X7535324Y-15525412D01*
X7535324Y-15525412D02*
X7535324Y-15353984D01*
X7668658Y-15553984D02*
X7649610Y-15544460D01*
X7649610Y-15544460D02*
X7640086Y-15525412D01*
X7640086Y-15525412D02*
X7640086Y-15353984D01*
X7897229Y-15553984D02*
X7897229Y-15353984D01*
X7897229Y-15353984D02*
X7963896Y-15496841D01*
X7963896Y-15496841D02*
X8030562Y-15353984D01*
X8030562Y-15353984D02*
X8030562Y-15553984D01*
X8211515Y-15553984D02*
X8211515Y-15449222D01*
X8211515Y-15449222D02*
X8201991Y-15430174D01*
X8201991Y-15430174D02*
X8182943Y-15420650D01*
X8182943Y-15420650D02*
X8144848Y-15420650D01*
X8144848Y-15420650D02*
X8125801Y-15430174D01*
X8211515Y-15544460D02*
X8192467Y-15553984D01*
X8192467Y-15553984D02*
X8144848Y-15553984D01*
X8144848Y-15553984D02*
X8125801Y-15544460D01*
X8125801Y-15544460D02*
X8116277Y-15525412D01*
X8116277Y-15525412D02*
X8116277Y-15506365D01*
X8116277Y-15506365D02*
X8125801Y-15487317D01*
X8125801Y-15487317D02*
X8144848Y-15477793D01*
X8144848Y-15477793D02*
X8192467Y-15477793D01*
X8192467Y-15477793D02*
X8211515Y-15468269D01*
X8306753Y-15420650D02*
X8306753Y-15620650D01*
X8306753Y-15430174D02*
X8325801Y-15420650D01*
X8325801Y-15420650D02*
X8363896Y-15420650D01*
X8363896Y-15420650D02*
X8382943Y-15430174D01*
X8382943Y-15430174D02*
X8392467Y-15439698D01*
X8392467Y-15439698D02*
X8401991Y-15458746D01*
X8401991Y-15458746D02*
X8401991Y-15515888D01*
X8401991Y-15515888D02*
X8392467Y-15534936D01*
X8392467Y-15534936D02*
X8382943Y-15544460D01*
X8382943Y-15544460D02*
X8363896Y-15553984D01*
X8363896Y-15553984D02*
X8325801Y-15553984D01*
X8325801Y-15553984D02*
X8306753Y-15544460D01*
X8487705Y-15534936D02*
X8497229Y-15544460D01*
X8497229Y-15544460D02*
X8487705Y-15553984D01*
X8487705Y-15553984D02*
X8478182Y-15544460D01*
X8478182Y-15544460D02*
X8487705Y-15534936D01*
X8487705Y-15534936D02*
X8487705Y-15553984D01*
X8487705Y-15430174D02*
X8497229Y-15439698D01*
X8497229Y-15439698D02*
X8487705Y-15449222D01*
X8487705Y-15449222D02*
X8478182Y-15439698D01*
X8478182Y-15439698D02*
X8487705Y-15430174D01*
X8487705Y-15430174D02*
X8487705Y-15449222D01*
M02*
