G04 #@! TF.GenerationSoftware,KiCad,Pcbnew,7.0.11+dfsg-1build4*
G04 #@! TF.CreationDate,2025-02-07T16:51:29+01:00*
G04 #@! TF.ProjectId,Schematic,53636865-6d61-4746-9963-2e6b69636164,rev?*
G04 #@! TF.SameCoordinates,Original*
G04 #@! TF.FileFunction,Legend,Bot*
G04 #@! TF.FilePolarity,Positive*
%FSLAX46Y46*%
G04 Gerber Fmt 4.6, Leading zero omitted, Abs format (unit mm)*
G04 Created by KiCad (PCBNEW 7.0.11+dfsg-1build4) date 2025-02-07 16:51:29*
%MOMM*%
%LPD*%
G01*
G04 APERTURE LIST*
G04 Aperture macros list*
%AMRoundRect*
0 Rectangle with rounded corners*
0 $1 Rounding radius*
0 $2 $3 $4 $5 $6 $7 $8 $9 X,Y pos of 4 corners*
0 Add a 4 corners polygon primitive as box body*
4,1,4,$2,$3,$4,$5,$6,$7,$8,$9,$2,$3,0*
0 Add four circle primitives for the rounded corners*
1,1,$1+$1,$2,$3*
1,1,$1+$1,$4,$5*
1,1,$1+$1,$6,$7*
1,1,$1+$1,$8,$9*
0 Add four rect primitives between the rounded corners*
20,1,$1+$1,$2,$3,$4,$5,0*
20,1,$1+$1,$4,$5,$6,$7,0*
20,1,$1+$1,$6,$7,$8,$9,0*
20,1,$1+$1,$8,$9,$2,$3,0*%
G04 Aperture macros list end*
%ADD10C,0.120000*%
%ADD11C,0.127000*%
%ADD12C,0.200000*%
%ADD13C,1.600000*%
%ADD14O,1.600000X1.600000*%
%ADD15R,2.540000X2.540000*%
%ADD16C,2.540000*%
%ADD17C,1.712000*%
%ADD18O,3.204000X1.704000*%
%ADD19RoundRect,0.102000X0.780000X-0.780000X0.780000X0.780000X-0.780000X0.780000X-0.780000X-0.780000X0*%
%ADD20C,1.764000*%
%ADD21RoundRect,0.102000X0.825000X-0.825000X0.825000X0.825000X-0.825000X0.825000X-0.825000X-0.825000X0*%
%ADD22C,1.854000*%
%ADD23RoundRect,0.102000X-0.825000X0.825000X-0.825000X-0.825000X0.825000X-0.825000X0.825000X0.825000X0*%
%ADD24RoundRect,0.102000X1.225000X-1.225000X1.225000X1.225000X-1.225000X1.225000X-1.225000X-1.225000X0*%
%ADD25C,2.654000*%
%ADD26RoundRect,0.102000X-0.654000X0.654000X-0.654000X-0.654000X0.654000X-0.654000X0.654000X0.654000X0*%
%ADD27C,1.512000*%
G04 APERTURE END LIST*
D10*
X134336017Y-143844000D02*
X134678874Y-143844000D01*
X134678874Y-143844000D02*
X134747445Y-143821143D01*
X134747445Y-143821143D02*
X134793160Y-143775429D01*
X134793160Y-143775429D02*
X134816017Y-143706857D01*
X134816017Y-143706857D02*
X134816017Y-143661143D01*
X134816017Y-144324000D02*
X134816017Y-144049714D01*
X134816017Y-144186857D02*
X134336017Y-144186857D01*
X134336017Y-144186857D02*
X134404588Y-144141143D01*
X134404588Y-144141143D02*
X134450302Y-144095428D01*
X134450302Y-144095428D02*
X134473160Y-144049714D01*
D11*
X143490000Y-142830000D02*
X135890000Y-142830000D01*
X135890000Y-142830000D02*
X135890000Y-148730000D01*
X143490000Y-148730000D02*
X143490000Y-142830000D01*
X135890000Y-148730000D02*
X143490000Y-148730000D01*
D12*
X135440000Y-144780000D02*
G75*
G03*
X135240000Y-144780000I-100000J0D01*
G01*
X135240000Y-144780000D02*
G75*
G03*
X135440000Y-144780000I100000J0D01*
G01*
%LPC*%
D13*
X142240000Y-76200000D03*
D14*
X147320000Y-76200000D03*
D13*
X142240000Y-83820000D03*
D14*
X147320000Y-83820000D03*
D15*
X157480000Y-123190000D03*
D16*
X157480000Y-105410000D03*
X116840000Y-105410000D03*
X116840000Y-123190000D03*
D13*
X137160000Y-40640000D03*
D14*
X132080000Y-40640000D03*
D13*
X158380000Y-76200000D03*
D14*
X153300000Y-76200000D03*
D17*
X158350000Y-55880000D03*
X143110000Y-60960000D03*
X143110000Y-63500000D03*
X143110000Y-43180000D03*
X143110000Y-45720000D03*
X143110000Y-48260000D03*
X143110000Y-50800000D03*
X143110000Y-53340000D03*
X143110000Y-55880000D03*
X158350000Y-53340000D03*
X158350000Y-50800000D03*
X143110000Y-58420000D03*
X158350000Y-63500000D03*
X158350000Y-60960000D03*
X158350000Y-58420000D03*
X143110000Y-66040000D03*
X158350000Y-66040000D03*
X158350000Y-48260000D03*
X158350000Y-45720000D03*
X156290000Y-38100000D03*
X145170000Y-38100000D03*
X158350000Y-43180000D03*
D18*
X120581600Y-44427400D03*
X120581600Y-57127400D03*
X120581600Y-41887400D03*
X120581600Y-54587400D03*
X120581600Y-52047400D03*
X120581600Y-59667400D03*
X120581600Y-46967400D03*
X120581600Y-49507400D03*
D13*
X129540000Y-132080000D03*
X134540000Y-132080000D03*
D19*
X107950000Y-82550000D03*
D20*
X110490000Y-82550000D03*
X113030000Y-82550000D03*
X115570000Y-82550000D03*
X118110000Y-82550000D03*
X120650000Y-82550000D03*
X123190000Y-82550000D03*
D19*
X125730000Y-82550000D03*
X125730000Y-69850000D03*
D20*
X123190000Y-69850000D03*
X120650000Y-69850000D03*
X118110000Y-69850000D03*
X115570000Y-69850000D03*
X113030000Y-69850000D03*
X110490000Y-69850000D03*
X107950000Y-69850000D03*
D21*
X124540000Y-147320000D03*
D22*
X124540000Y-142240000D03*
D13*
X137160000Y-45720000D03*
D14*
X132080000Y-45720000D03*
D13*
X152400000Y-83820000D03*
X157400000Y-83820000D03*
D23*
X155020000Y-142240000D03*
D22*
X155020000Y-147320000D03*
D24*
X142620000Y-132080000D03*
D25*
X147320000Y-132080000D03*
X152020000Y-132080000D03*
D26*
X137240000Y-144780000D03*
D27*
X137240000Y-146780000D03*
%LPD*%
M02*
