%TF.GenerationSoftware,KiCad,Pcbnew,7.0.11+dfsg-1build4*%
%TF.CreationDate,2025-02-07T16:56:40+01:00*%
%TF.ProjectId,Schematic,53636865-6d61-4746-9963-2e6b69636164,rev?*%
%TF.SameCoordinates,Original*%
%TF.FileFunction,Drillmap*%
%TF.FilePolarity,Positive*%
%FSLAX45Y45*%
G04 Gerber Fmt 4.5, Leading zero omitted, Abs format (unit mm)*
G04 Created by KiCad (PCBNEW 7.0.11+dfsg-1build4) date 2025-02-07 16:56:40*
%MOMM*%
%LPD*%
G01*
G04 APERTURE LIST*
%ADD10C,0.050000*%
%ADD11C,0.200000*%
%ADD12C,0.100000*%
%ADD13C,0.104000*%
%ADD14C,0.110000*%
%ADD15C,0.185000*%
%ADD16C,0.390000*%
G04 APERTURE END LIST*
D10*
X10578000Y-3810000D02*
X17026000Y-3810000D01*
X17026000Y-3810000D02*
X17026000Y-10160000D01*
X17026000Y-10160000D02*
X20828000Y-10160000D01*
X6858000Y-10160000D02*
X10578000Y-10160000D01*
X10578000Y-10160000D02*
X10578000Y-3810000D01*
X6858000Y-15240000D02*
X20828000Y-15240000D01*
X6858000Y-15240000D02*
X6858000Y-10160000D01*
X20828000Y-10160000D02*
X20828000Y-15240000D01*
D11*
D12*
X10907000Y-9891000D02*
X10937000Y-9921000D01*
X10937000Y-9891000D02*
X10907000Y-9921000D01*
X11161000Y-8113000D02*
X11191000Y-8143000D01*
X11191000Y-8113000D02*
X11161000Y-8143000D01*
X11161000Y-10399000D02*
X11191000Y-10429000D01*
X11191000Y-10399000D02*
X11161000Y-10429000D01*
X12431000Y-6021000D02*
X12461000Y-6051000D01*
X12461000Y-6021000D02*
X12431000Y-6051000D01*
X12431000Y-7605000D02*
X12461000Y-7635000D01*
X12461000Y-7605000D02*
X12431000Y-7635000D01*
X12431000Y-9891000D02*
X12461000Y-9921000D01*
X12461000Y-9891000D02*
X12431000Y-9921000D01*
X12685000Y-5827000D02*
X12715000Y-5857000D01*
X12715000Y-5827000D02*
X12685000Y-5857000D01*
X12939000Y-5573000D02*
X12969000Y-5603000D01*
X12969000Y-5573000D02*
X12939000Y-5603000D01*
X12939000Y-6843000D02*
X12969000Y-6873000D01*
X12969000Y-6843000D02*
X12939000Y-6873000D01*
X13193000Y-8113000D02*
X13223000Y-8143000D01*
X13223000Y-8113000D02*
X13193000Y-8143000D01*
X13701000Y-6081000D02*
X13731000Y-6111000D01*
X13731000Y-6081000D02*
X13701000Y-6111000D01*
X13701000Y-13701000D02*
X13731000Y-13731000D01*
X13731000Y-13701000D02*
X13701000Y-13731000D01*
X13955000Y-6081000D02*
X13985000Y-6111000D01*
X13985000Y-6081000D02*
X13955000Y-6111000D01*
X14463000Y-6843000D02*
X14493000Y-6873000D01*
X14493000Y-6843000D02*
X14463000Y-6873000D01*
X14463000Y-9637000D02*
X14493000Y-9667000D01*
X14493000Y-9637000D02*
X14463000Y-9667000D01*
X14463000Y-10399000D02*
X14493000Y-10429000D01*
X14493000Y-10399000D02*
X14463000Y-10429000D01*
X14717000Y-5827000D02*
X14747000Y-5857000D01*
X14747000Y-5827000D02*
X14717000Y-5857000D01*
X14911000Y-5573000D02*
X14941000Y-5603000D01*
X14941000Y-5573000D02*
X14911000Y-5603000D01*
X14911000Y-7097000D02*
X14941000Y-7127000D01*
X14941000Y-7097000D02*
X14911000Y-7127000D01*
X14971000Y-8621000D02*
X15001000Y-8651000D01*
X15001000Y-8621000D02*
X14971000Y-8651000D01*
X15733000Y-10205000D02*
X15763000Y-10235000D01*
X15763000Y-10205000D02*
X15733000Y-10235000D01*
X12994000Y-13208000D02*
G75*
G03*
X12914000Y-13208000I-40000J0D01*
G01*
X12914000Y-13208000D02*
G75*
G03*
X12994000Y-13208000I40000J0D01*
G01*
X13248000Y-4064000D02*
G75*
G03*
X13168000Y-4064000I-40000J0D01*
G01*
X13168000Y-4064000D02*
G75*
G03*
X13248000Y-4064000I40000J0D01*
G01*
X13248000Y-4572000D02*
G75*
G03*
X13168000Y-4572000I-40000J0D01*
G01*
X13168000Y-4572000D02*
G75*
G03*
X13248000Y-4572000I40000J0D01*
G01*
X13494000Y-13208000D02*
G75*
G03*
X13414000Y-13208000I-40000J0D01*
G01*
X13414000Y-13208000D02*
G75*
G03*
X13494000Y-13208000I40000J0D01*
G01*
X13756000Y-4064000D02*
G75*
G03*
X13676000Y-4064000I-40000J0D01*
G01*
X13676000Y-4064000D02*
G75*
G03*
X13756000Y-4064000I40000J0D01*
G01*
X13756000Y-4572000D02*
G75*
G03*
X13676000Y-4572000I-40000J0D01*
G01*
X13676000Y-4572000D02*
G75*
G03*
X13756000Y-4572000I40000J0D01*
G01*
X13764000Y-14478000D02*
G75*
G03*
X13684000Y-14478000I-40000J0D01*
G01*
X13684000Y-14478000D02*
G75*
G03*
X13764000Y-14478000I40000J0D01*
G01*
X13764000Y-14678000D02*
G75*
G03*
X13684000Y-14678000I-40000J0D01*
G01*
X13684000Y-14678000D02*
G75*
G03*
X13764000Y-14678000I40000J0D01*
G01*
X14264000Y-7620000D02*
G75*
G03*
X14184000Y-7620000I-40000J0D01*
G01*
X14184000Y-7620000D02*
G75*
G03*
X14264000Y-7620000I40000J0D01*
G01*
X14264000Y-8382000D02*
G75*
G03*
X14184000Y-8382000I-40000J0D01*
G01*
X14184000Y-8382000D02*
G75*
G03*
X14264000Y-8382000I40000J0D01*
G01*
X14772000Y-7620000D02*
G75*
G03*
X14692000Y-7620000I-40000J0D01*
G01*
X14692000Y-7620000D02*
G75*
G03*
X14772000Y-7620000I40000J0D01*
G01*
X14772000Y-8382000D02*
G75*
G03*
X14692000Y-8382000I-40000J0D01*
G01*
X14692000Y-8382000D02*
G75*
G03*
X14772000Y-8382000I40000J0D01*
G01*
X15280000Y-8382000D02*
G75*
G03*
X15200000Y-8382000I-40000J0D01*
G01*
X15200000Y-8382000D02*
G75*
G03*
X15280000Y-8382000I40000J0D01*
G01*
X15370000Y-7620000D02*
G75*
G03*
X15290000Y-7620000I-40000J0D01*
G01*
X15290000Y-7620000D02*
G75*
G03*
X15370000Y-7620000I40000J0D01*
G01*
X15780000Y-8382000D02*
G75*
G03*
X15700000Y-8382000I-40000J0D01*
G01*
X15700000Y-8382000D02*
G75*
G03*
X15780000Y-8382000I40000J0D01*
G01*
X15878000Y-7620000D02*
G75*
G03*
X15798000Y-7620000I-40000J0D01*
G01*
X15798000Y-7620000D02*
G75*
G03*
X15878000Y-7620000I40000J0D01*
G01*
X11684000Y-10491000D02*
X11684000Y-10591000D01*
X11634000Y-10541000D02*
X11734000Y-10541000D01*
X11684000Y-12269000D02*
X11684000Y-12369000D01*
X11634000Y-12319000D02*
X11734000Y-12319000D01*
X12058160Y-4138740D02*
X12058160Y-4238740D01*
X12008160Y-4188740D02*
X12108160Y-4188740D01*
X12058160Y-4392740D02*
X12058160Y-4492740D01*
X12008160Y-4442740D02*
X12108160Y-4442740D01*
X12058160Y-4646740D02*
X12058160Y-4746740D01*
X12008160Y-4696740D02*
X12108160Y-4696740D01*
X12058160Y-4900740D02*
X12058160Y-5000740D01*
X12008160Y-4950740D02*
X12108160Y-4950740D01*
X12058160Y-5154740D02*
X12058160Y-5254740D01*
X12008160Y-5204740D02*
X12108160Y-5204740D01*
X12058160Y-5408740D02*
X12058160Y-5508740D01*
X12008160Y-5458740D02*
X12108160Y-5458740D01*
X12058160Y-5662740D02*
X12058160Y-5762740D01*
X12008160Y-5712740D02*
X12108160Y-5712740D01*
X12058160Y-5916740D02*
X12058160Y-6016740D01*
X12008160Y-5966740D02*
X12108160Y-5966740D01*
X14311000Y-4268000D02*
X14311000Y-4368000D01*
X14261000Y-4318000D02*
X14361000Y-4318000D01*
X14311000Y-4522000D02*
X14311000Y-4622000D01*
X14261000Y-4572000D02*
X14361000Y-4572000D01*
X14311000Y-4776000D02*
X14311000Y-4876000D01*
X14261000Y-4826000D02*
X14361000Y-4826000D01*
X14311000Y-5030000D02*
X14311000Y-5130000D01*
X14261000Y-5080000D02*
X14361000Y-5080000D01*
X14311000Y-5284000D02*
X14311000Y-5384000D01*
X14261000Y-5334000D02*
X14361000Y-5334000D01*
X14311000Y-5538000D02*
X14311000Y-5638000D01*
X14261000Y-5588000D02*
X14361000Y-5588000D01*
X14311000Y-5792000D02*
X14311000Y-5892000D01*
X14261000Y-5842000D02*
X14361000Y-5842000D01*
X14311000Y-6046000D02*
X14311000Y-6146000D01*
X14261000Y-6096000D02*
X14361000Y-6096000D01*
X14311000Y-6300000D02*
X14311000Y-6400000D01*
X14261000Y-6350000D02*
X14361000Y-6350000D01*
X14311000Y-6554000D02*
X14311000Y-6654000D01*
X14261000Y-6604000D02*
X14361000Y-6604000D01*
X14517000Y-3760000D02*
X14517000Y-3860000D01*
X14467000Y-3810000D02*
X14567000Y-3810000D01*
X15629000Y-3760000D02*
X15629000Y-3860000D01*
X15579000Y-3810000D02*
X15679000Y-3810000D01*
X15748000Y-10491000D02*
X15748000Y-10591000D01*
X15698000Y-10541000D02*
X15798000Y-10541000D01*
X15748000Y-12269000D02*
X15748000Y-12369000D01*
X15698000Y-12319000D02*
X15798000Y-12319000D01*
X15835000Y-4268000D02*
X15835000Y-4368000D01*
X15785000Y-4318000D02*
X15885000Y-4318000D01*
X15835000Y-4522000D02*
X15835000Y-4622000D01*
X15785000Y-4572000D02*
X15885000Y-4572000D01*
X15835000Y-4776000D02*
X15835000Y-4876000D01*
X15785000Y-4826000D02*
X15885000Y-4826000D01*
X15835000Y-5030000D02*
X15835000Y-5130000D01*
X15785000Y-5080000D02*
X15885000Y-5080000D01*
X15835000Y-5284000D02*
X15835000Y-5384000D01*
X15785000Y-5334000D02*
X15885000Y-5334000D01*
X15835000Y-5538000D02*
X15835000Y-5638000D01*
X15785000Y-5588000D02*
X15885000Y-5588000D01*
X15835000Y-5792000D02*
X15835000Y-5892000D01*
X15785000Y-5842000D02*
X15885000Y-5842000D01*
X15835000Y-6046000D02*
X15835000Y-6146000D01*
X15785000Y-6096000D02*
X15885000Y-6096000D01*
X15835000Y-6300000D02*
X15835000Y-6400000D01*
X15785000Y-6350000D02*
X15885000Y-6350000D01*
X15835000Y-6554000D02*
X15835000Y-6654000D01*
X15785000Y-6604000D02*
X15885000Y-6604000D01*
D13*
X10831770Y-7021770D02*
X10831770Y-6948230D01*
X10758230Y-6948230D01*
X10758230Y-7021770D01*
X10831770Y-7021770D01*
X10831770Y-8291770D02*
X10831770Y-8218230D01*
X10758230Y-8218230D01*
X10758230Y-8291770D01*
X10831770Y-8291770D01*
X11085770Y-7021770D02*
X11085770Y-6948230D01*
X11012230Y-6948230D01*
X11012230Y-7021770D01*
X11085770Y-7021770D01*
X11085770Y-8291770D02*
X11085770Y-8218230D01*
X11012230Y-8218230D01*
X11012230Y-8291770D01*
X11085770Y-8291770D01*
X11339770Y-7021770D02*
X11339770Y-6948230D01*
X11266230Y-6948230D01*
X11266230Y-7021770D01*
X11339770Y-7021770D01*
X11339770Y-8291770D02*
X11339770Y-8218230D01*
X11266230Y-8218230D01*
X11266230Y-8291770D01*
X11339770Y-8291770D01*
X11593770Y-7021770D02*
X11593770Y-6948230D01*
X11520230Y-6948230D01*
X11520230Y-7021770D01*
X11593770Y-7021770D01*
X11593770Y-8291770D02*
X11593770Y-8218230D01*
X11520230Y-8218230D01*
X11520230Y-8291770D01*
X11593770Y-8291770D01*
X11847770Y-7021770D02*
X11847770Y-6948230D01*
X11774230Y-6948230D01*
X11774230Y-7021770D01*
X11847770Y-7021770D01*
X11847770Y-8291770D02*
X11847770Y-8218230D01*
X11774230Y-8218230D01*
X11774230Y-8291770D01*
X11847770Y-8291770D01*
X12101770Y-7021770D02*
X12101770Y-6948230D01*
X12028230Y-6948230D01*
X12028230Y-7021770D01*
X12101770Y-7021770D01*
X12101770Y-8291770D02*
X12101770Y-8218230D01*
X12028230Y-8218230D01*
X12028230Y-8291770D01*
X12101770Y-8291770D01*
X12355770Y-7021770D02*
X12355770Y-6948230D01*
X12282230Y-6948230D01*
X12282230Y-7021770D01*
X12355770Y-7021770D01*
X12355770Y-8291770D02*
X12355770Y-8218230D01*
X12282230Y-8218230D01*
X12282230Y-8291770D01*
X12355770Y-8291770D01*
X12609770Y-7021770D02*
X12609770Y-6948230D01*
X12536230Y-6948230D01*
X12536230Y-7021770D01*
X12609770Y-7021770D01*
X12609770Y-8291770D02*
X12609770Y-8218230D01*
X12536230Y-8218230D01*
X12536230Y-8291770D01*
X12609770Y-8291770D01*
D14*
X12454000Y-14279000D02*
X12509000Y-14224000D01*
X12454000Y-14169000D01*
X12399000Y-14224000D01*
X12454000Y-14279000D01*
X12454000Y-14787000D02*
X12509000Y-14732000D01*
X12454000Y-14677000D01*
X12399000Y-14732000D01*
X12454000Y-14787000D01*
X15502000Y-14279000D02*
X15557000Y-14224000D01*
X15502000Y-14169000D01*
X15447000Y-14224000D01*
X15502000Y-14279000D01*
X15502000Y-14787000D02*
X15557000Y-14732000D01*
X15502000Y-14677000D01*
X15447000Y-14732000D01*
X15502000Y-14787000D01*
D15*
X14169500Y-13115500D02*
X14354500Y-13300500D01*
X14354500Y-13115500D02*
X14169500Y-13300500D01*
X14354500Y-13208000D02*
G75*
G03*
X14169500Y-13208000I-92500J0D01*
G01*
X14169500Y-13208000D02*
G75*
G03*
X14354500Y-13208000I92500J0D01*
G01*
X14639500Y-13115500D02*
X14824500Y-13300500D01*
X14824500Y-13115500D02*
X14639500Y-13300500D01*
X14824500Y-13208000D02*
G75*
G03*
X14639500Y-13208000I-92500J0D01*
G01*
X14639500Y-13208000D02*
G75*
G03*
X14824500Y-13208000I92500J0D01*
G01*
X15109500Y-13115500D02*
X15294500Y-13300500D01*
X15294500Y-13115500D02*
X15109500Y-13300500D01*
X15294500Y-13208000D02*
G75*
G03*
X15109500Y-13208000I-92500J0D01*
G01*
X15109500Y-13208000D02*
G75*
G03*
X15294500Y-13208000I92500J0D01*
G01*
D16*
X6909524Y-12501804D02*
X7299524Y-12891804D01*
X7299524Y-12501804D02*
X6909524Y-12891804D01*
X7104524Y-12501804D02*
X7104524Y-12891804D01*
X6909524Y-12696804D02*
X7299524Y-12696804D01*
X6917000Y-11235000D02*
X7307000Y-11625000D01*
X7307000Y-11235000D02*
X6917000Y-11625000D01*
X7112000Y-11235000D02*
X7112000Y-11625000D01*
X6917000Y-11430000D02*
X7307000Y-11430000D01*
X6917000Y-14029000D02*
X7307000Y-14419000D01*
X7307000Y-14029000D02*
X6917000Y-14419000D01*
X7112000Y-14029000D02*
X7112000Y-14419000D01*
X6917000Y-14224000D02*
X7307000Y-14224000D01*
X7679000Y-10219000D02*
X8069000Y-10609000D01*
X8069000Y-10219000D02*
X7679000Y-10609000D01*
X7874000Y-10219000D02*
X7874000Y-10609000D01*
X7679000Y-10414000D02*
X8069000Y-10414000D01*
X7679000Y-14791000D02*
X8069000Y-15181000D01*
X8069000Y-14791000D02*
X7679000Y-15181000D01*
X7874000Y-14791000D02*
X7874000Y-15181000D01*
X7679000Y-14986000D02*
X8069000Y-14986000D01*
X9457000Y-10219000D02*
X9847000Y-10609000D01*
X9847000Y-10219000D02*
X9457000Y-10609000D01*
X9652000Y-10219000D02*
X9652000Y-10609000D01*
X9457000Y-10414000D02*
X9847000Y-10414000D01*
X9457000Y-14791000D02*
X9847000Y-15181000D01*
X9847000Y-14791000D02*
X9457000Y-15181000D01*
X9652000Y-14791000D02*
X9652000Y-15181000D01*
X9457000Y-14986000D02*
X9847000Y-14986000D01*
X10219000Y-11235000D02*
X10609000Y-11625000D01*
X10609000Y-11235000D02*
X10219000Y-11625000D01*
X10414000Y-11235000D02*
X10414000Y-11625000D01*
X10219000Y-11430000D02*
X10609000Y-11430000D01*
X10219000Y-12505000D02*
X10609000Y-12895000D01*
X10609000Y-12505000D02*
X10219000Y-12895000D01*
X10414000Y-12505000D02*
X10414000Y-12895000D01*
X10219000Y-12700000D02*
X10609000Y-12700000D01*
X10219000Y-14029000D02*
X10609000Y-14419000D01*
X10609000Y-14029000D02*
X10219000Y-14419000D01*
X10414000Y-14029000D02*
X10414000Y-14419000D01*
X10219000Y-14224000D02*
X10609000Y-14224000D01*
X16823000Y-11235000D02*
X17213000Y-11625000D01*
X17213000Y-11235000D02*
X16823000Y-11625000D01*
X17018000Y-11235000D02*
X17018000Y-11625000D01*
X16823000Y-11430000D02*
X17213000Y-11430000D01*
X16823000Y-12505000D02*
X17213000Y-12895000D01*
X17213000Y-12505000D02*
X16823000Y-12895000D01*
X17018000Y-12505000D02*
X17018000Y-12895000D01*
X16823000Y-12700000D02*
X17213000Y-12700000D01*
X16823000Y-14029000D02*
X17213000Y-14419000D01*
X17213000Y-14029000D02*
X16823000Y-14419000D01*
X17018000Y-14029000D02*
X17018000Y-14419000D01*
X16823000Y-14224000D02*
X17213000Y-14224000D01*
X17839000Y-10219000D02*
X18229000Y-10609000D01*
X18229000Y-10219000D02*
X17839000Y-10609000D01*
X18034000Y-10219000D02*
X18034000Y-10609000D01*
X17839000Y-10414000D02*
X18229000Y-10414000D01*
X17839000Y-14791000D02*
X18229000Y-15181000D01*
X18229000Y-14791000D02*
X17839000Y-15181000D01*
X18034000Y-14791000D02*
X18034000Y-15181000D01*
X17839000Y-14986000D02*
X18229000Y-14986000D01*
X19617000Y-10219000D02*
X20007000Y-10609000D01*
X20007000Y-10219000D02*
X19617000Y-10609000D01*
X19812000Y-10219000D02*
X19812000Y-10609000D01*
X19617000Y-10414000D02*
X20007000Y-10414000D01*
X19617000Y-14791000D02*
X20007000Y-15181000D01*
X20007000Y-14791000D02*
X19617000Y-15181000D01*
X19812000Y-14791000D02*
X19812000Y-15181000D01*
X19617000Y-14986000D02*
X20007000Y-14986000D01*
X20379000Y-11235000D02*
X20769000Y-11625000D01*
X20769000Y-11235000D02*
X20379000Y-11625000D01*
X20574000Y-11235000D02*
X20574000Y-11625000D01*
X20379000Y-11430000D02*
X20769000Y-11430000D01*
X20379000Y-12505000D02*
X20769000Y-12895000D01*
X20769000Y-12505000D02*
X20379000Y-12895000D01*
X20574000Y-12505000D02*
X20574000Y-12895000D01*
X20379000Y-12700000D02*
X20769000Y-12700000D01*
X20379000Y-14029000D02*
X20769000Y-14419000D01*
X20769000Y-14029000D02*
X20379000Y-14419000D01*
X20574000Y-14029000D02*
X20574000Y-14419000D01*
X20379000Y-14224000D02*
X20769000Y-14224000D01*
D11*
X7116277Y-15553984D02*
X7116277Y-15353984D01*
X7116277Y-15353984D02*
X7163896Y-15353984D01*
X7163896Y-15353984D02*
X7192467Y-15363508D01*
X7192467Y-15363508D02*
X7211515Y-15382555D01*
X7211515Y-15382555D02*
X7221039Y-15401603D01*
X7221039Y-15401603D02*
X7230562Y-15439698D01*
X7230562Y-15439698D02*
X7230562Y-15468269D01*
X7230562Y-15468269D02*
X7221039Y-15506365D01*
X7221039Y-15506365D02*
X7211515Y-15525412D01*
X7211515Y-15525412D02*
X7192467Y-15544460D01*
X7192467Y-15544460D02*
X7163896Y-15553984D01*
X7163896Y-15553984D02*
X7116277Y-15553984D01*
X7316277Y-15553984D02*
X7316277Y-15420650D01*
X7316277Y-15458746D02*
X7325801Y-15439698D01*
X7325801Y-15439698D02*
X7335324Y-15430174D01*
X7335324Y-15430174D02*
X7354372Y-15420650D01*
X7354372Y-15420650D02*
X7373420Y-15420650D01*
X7440086Y-15553984D02*
X7440086Y-15420650D01*
X7440086Y-15353984D02*
X7430562Y-15363508D01*
X7430562Y-15363508D02*
X7440086Y-15373031D01*
X7440086Y-15373031D02*
X7449610Y-15363508D01*
X7449610Y-15363508D02*
X7440086Y-15353984D01*
X7440086Y-15353984D02*
X7440086Y-15373031D01*
X7563896Y-15553984D02*
X7544848Y-15544460D01*
X7544848Y-15544460D02*
X7535324Y-15525412D01*
X7535324Y-15525412D02*
X7535324Y-15353984D01*
X7668658Y-15553984D02*
X7649610Y-15544460D01*
X7649610Y-15544460D02*
X7640086Y-15525412D01*
X7640086Y-15525412D02*
X7640086Y-15353984D01*
X7897229Y-15553984D02*
X7897229Y-15353984D01*
X7897229Y-15353984D02*
X7963896Y-15496841D01*
X7963896Y-15496841D02*
X8030562Y-15353984D01*
X8030562Y-15353984D02*
X8030562Y-15553984D01*
X8211515Y-15553984D02*
X8211515Y-15449222D01*
X8211515Y-15449222D02*
X8201991Y-15430174D01*
X8201991Y-15430174D02*
X8182943Y-15420650D01*
X8182943Y-15420650D02*
X8144848Y-15420650D01*
X8144848Y-15420650D02*
X8125801Y-15430174D01*
X8211515Y-15544460D02*
X8192467Y-15553984D01*
X8192467Y-15553984D02*
X8144848Y-15553984D01*
X8144848Y-15553984D02*
X8125801Y-15544460D01*
X8125801Y-15544460D02*
X8116277Y-15525412D01*
X8116277Y-15525412D02*
X8116277Y-15506365D01*
X8116277Y-15506365D02*
X8125801Y-15487317D01*
X8125801Y-15487317D02*
X8144848Y-15477793D01*
X8144848Y-15477793D02*
X8192467Y-15477793D01*
X8192467Y-15477793D02*
X8211515Y-15468269D01*
X8306753Y-15420650D02*
X8306753Y-15620650D01*
X8306753Y-15430174D02*
X8325801Y-15420650D01*
X8325801Y-15420650D02*
X8363896Y-15420650D01*
X8363896Y-15420650D02*
X8382943Y-15430174D01*
X8382943Y-15430174D02*
X8392467Y-15439698D01*
X8392467Y-15439698D02*
X8401991Y-15458746D01*
X8401991Y-15458746D02*
X8401991Y-15515888D01*
X8401991Y-15515888D02*
X8392467Y-15534936D01*
X8392467Y-15534936D02*
X8382943Y-15544460D01*
X8382943Y-15544460D02*
X8363896Y-15553984D01*
X8363896Y-15553984D02*
X8325801Y-15553984D01*
X8325801Y-15553984D02*
X8306753Y-15544460D01*
X8487705Y-15534936D02*
X8497229Y-15544460D01*
X8497229Y-15544460D02*
X8487705Y-15553984D01*
X8487705Y-15553984D02*
X8478182Y-15544460D01*
X8478182Y-15544460D02*
X8487705Y-15534936D01*
X8487705Y-15534936D02*
X8487705Y-15553984D01*
X8487705Y-15430174D02*
X8497229Y-15439698D01*
X8497229Y-15439698D02*
X8487705Y-15449222D01*
X8487705Y-15449222D02*
X8478182Y-15439698D01*
X8478182Y-15439698D02*
X8487705Y-15430174D01*
X8487705Y-15430174D02*
X8487705Y-15449222D01*
D12*
X6825500Y-15867500D02*
X6855500Y-15897500D01*
X6855500Y-15867500D02*
X6825500Y-15897500D01*
D11*
X7154372Y-15773984D02*
X7173420Y-15773984D01*
X7173420Y-15773984D02*
X7192467Y-15783508D01*
X7192467Y-15783508D02*
X7201991Y-15793031D01*
X7201991Y-15793031D02*
X7211515Y-15812079D01*
X7211515Y-15812079D02*
X7221039Y-15850174D01*
X7221039Y-15850174D02*
X7221039Y-15897793D01*
X7221039Y-15897793D02*
X7211515Y-15935888D01*
X7211515Y-15935888D02*
X7201991Y-15954936D01*
X7201991Y-15954936D02*
X7192467Y-15964460D01*
X7192467Y-15964460D02*
X7173420Y-15973984D01*
X7173420Y-15973984D02*
X7154372Y-15973984D01*
X7154372Y-15973984D02*
X7135324Y-15964460D01*
X7135324Y-15964460D02*
X7125801Y-15954936D01*
X7125801Y-15954936D02*
X7116277Y-15935888D01*
X7116277Y-15935888D02*
X7106753Y-15897793D01*
X7106753Y-15897793D02*
X7106753Y-15850174D01*
X7106753Y-15850174D02*
X7116277Y-15812079D01*
X7116277Y-15812079D02*
X7125801Y-15793031D01*
X7125801Y-15793031D02*
X7135324Y-15783508D01*
X7135324Y-15783508D02*
X7154372Y-15773984D01*
X7306753Y-15954936D02*
X7316277Y-15964460D01*
X7316277Y-15964460D02*
X7306753Y-15973984D01*
X7306753Y-15973984D02*
X7297229Y-15964460D01*
X7297229Y-15964460D02*
X7306753Y-15954936D01*
X7306753Y-15954936D02*
X7306753Y-15973984D01*
X7382943Y-15773984D02*
X7506753Y-15773984D01*
X7506753Y-15773984D02*
X7440086Y-15850174D01*
X7440086Y-15850174D02*
X7468658Y-15850174D01*
X7468658Y-15850174D02*
X7487705Y-15859698D01*
X7487705Y-15859698D02*
X7497229Y-15869222D01*
X7497229Y-15869222D02*
X7506753Y-15888269D01*
X7506753Y-15888269D02*
X7506753Y-15935888D01*
X7506753Y-15935888D02*
X7497229Y-15954936D01*
X7497229Y-15954936D02*
X7487705Y-15964460D01*
X7487705Y-15964460D02*
X7468658Y-15973984D01*
X7468658Y-15973984D02*
X7411515Y-15973984D01*
X7411515Y-15973984D02*
X7392467Y-15964460D01*
X7392467Y-15964460D02*
X7382943Y-15954936D01*
X7630562Y-15773984D02*
X7649610Y-15773984D01*
X7649610Y-15773984D02*
X7668658Y-15783508D01*
X7668658Y-15783508D02*
X7678182Y-15793031D01*
X7678182Y-15793031D02*
X7687705Y-15812079D01*
X7687705Y-15812079D02*
X7697229Y-15850174D01*
X7697229Y-15850174D02*
X7697229Y-15897793D01*
X7697229Y-15897793D02*
X7687705Y-15935888D01*
X7687705Y-15935888D02*
X7678182Y-15954936D01*
X7678182Y-15954936D02*
X7668658Y-15964460D01*
X7668658Y-15964460D02*
X7649610Y-15973984D01*
X7649610Y-15973984D02*
X7630562Y-15973984D01*
X7630562Y-15973984D02*
X7611515Y-15964460D01*
X7611515Y-15964460D02*
X7601991Y-15954936D01*
X7601991Y-15954936D02*
X7592467Y-15935888D01*
X7592467Y-15935888D02*
X7582943Y-15897793D01*
X7582943Y-15897793D02*
X7582943Y-15850174D01*
X7582943Y-15850174D02*
X7592467Y-15812079D01*
X7592467Y-15812079D02*
X7601991Y-15793031D01*
X7601991Y-15793031D02*
X7611515Y-15783508D01*
X7611515Y-15783508D02*
X7630562Y-15773984D01*
X7821039Y-15773984D02*
X7840086Y-15773984D01*
X7840086Y-15773984D02*
X7859134Y-15783508D01*
X7859134Y-15783508D02*
X7868658Y-15793031D01*
X7868658Y-15793031D02*
X7878182Y-15812079D01*
X7878182Y-15812079D02*
X7887705Y-15850174D01*
X7887705Y-15850174D02*
X7887705Y-15897793D01*
X7887705Y-15897793D02*
X7878182Y-15935888D01*
X7878182Y-15935888D02*
X7868658Y-15954936D01*
X7868658Y-15954936D02*
X7859134Y-15964460D01*
X7859134Y-15964460D02*
X7840086Y-15973984D01*
X7840086Y-15973984D02*
X7821039Y-15973984D01*
X7821039Y-15973984D02*
X7801991Y-15964460D01*
X7801991Y-15964460D02*
X7792467Y-15954936D01*
X7792467Y-15954936D02*
X7782943Y-15935888D01*
X7782943Y-15935888D02*
X7773420Y-15897793D01*
X7773420Y-15897793D02*
X7773420Y-15850174D01*
X7773420Y-15850174D02*
X7782943Y-15812079D01*
X7782943Y-15812079D02*
X7792467Y-15793031D01*
X7792467Y-15793031D02*
X7801991Y-15783508D01*
X7801991Y-15783508D02*
X7821039Y-15773984D01*
X7973420Y-15973984D02*
X7973420Y-15840650D01*
X7973420Y-15859698D02*
X7982943Y-15850174D01*
X7982943Y-15850174D02*
X8001991Y-15840650D01*
X8001991Y-15840650D02*
X8030563Y-15840650D01*
X8030563Y-15840650D02*
X8049610Y-15850174D01*
X8049610Y-15850174D02*
X8059134Y-15869222D01*
X8059134Y-15869222D02*
X8059134Y-15973984D01*
X8059134Y-15869222D02*
X8068658Y-15850174D01*
X8068658Y-15850174D02*
X8087705Y-15840650D01*
X8087705Y-15840650D02*
X8116277Y-15840650D01*
X8116277Y-15840650D02*
X8135324Y-15850174D01*
X8135324Y-15850174D02*
X8144848Y-15869222D01*
X8144848Y-15869222D02*
X8144848Y-15973984D01*
X8240086Y-15973984D02*
X8240086Y-15840650D01*
X8240086Y-15859698D02*
X8249610Y-15850174D01*
X8249610Y-15850174D02*
X8268658Y-15840650D01*
X8268658Y-15840650D02*
X8297229Y-15840650D01*
X8297229Y-15840650D02*
X8316277Y-15850174D01*
X8316277Y-15850174D02*
X8325801Y-15869222D01*
X8325801Y-15869222D02*
X8325801Y-15973984D01*
X8325801Y-15869222D02*
X8335324Y-15850174D01*
X8335324Y-15850174D02*
X8354372Y-15840650D01*
X8354372Y-15840650D02*
X8382943Y-15840650D01*
X8382943Y-15840650D02*
X8401991Y-15850174D01*
X8401991Y-15850174D02*
X8411515Y-15869222D01*
X8411515Y-15869222D02*
X8411515Y-15973984D01*
X8801991Y-15764460D02*
X8630563Y-16021603D01*
X9059134Y-15773984D02*
X9078182Y-15773984D01*
X9078182Y-15773984D02*
X9097229Y-15783508D01*
X9097229Y-15783508D02*
X9106753Y-15793031D01*
X9106753Y-15793031D02*
X9116277Y-15812079D01*
X9116277Y-15812079D02*
X9125801Y-15850174D01*
X9125801Y-15850174D02*
X9125801Y-15897793D01*
X9125801Y-15897793D02*
X9116277Y-15935888D01*
X9116277Y-15935888D02*
X9106753Y-15954936D01*
X9106753Y-15954936D02*
X9097229Y-15964460D01*
X9097229Y-15964460D02*
X9078182Y-15973984D01*
X9078182Y-15973984D02*
X9059134Y-15973984D01*
X9059134Y-15973984D02*
X9040087Y-15964460D01*
X9040087Y-15964460D02*
X9030563Y-15954936D01*
X9030563Y-15954936D02*
X9021039Y-15935888D01*
X9021039Y-15935888D02*
X9011515Y-15897793D01*
X9011515Y-15897793D02*
X9011515Y-15850174D01*
X9011515Y-15850174D02*
X9021039Y-15812079D01*
X9021039Y-15812079D02*
X9030563Y-15793031D01*
X9030563Y-15793031D02*
X9040087Y-15783508D01*
X9040087Y-15783508D02*
X9059134Y-15773984D01*
X9211515Y-15954936D02*
X9221039Y-15964460D01*
X9221039Y-15964460D02*
X9211515Y-15973984D01*
X9211515Y-15973984D02*
X9201991Y-15964460D01*
X9201991Y-15964460D02*
X9211515Y-15954936D01*
X9211515Y-15954936D02*
X9211515Y-15973984D01*
X9344848Y-15773984D02*
X9363896Y-15773984D01*
X9363896Y-15773984D02*
X9382944Y-15783508D01*
X9382944Y-15783508D02*
X9392468Y-15793031D01*
X9392468Y-15793031D02*
X9401991Y-15812079D01*
X9401991Y-15812079D02*
X9411515Y-15850174D01*
X9411515Y-15850174D02*
X9411515Y-15897793D01*
X9411515Y-15897793D02*
X9401991Y-15935888D01*
X9401991Y-15935888D02*
X9392468Y-15954936D01*
X9392468Y-15954936D02*
X9382944Y-15964460D01*
X9382944Y-15964460D02*
X9363896Y-15973984D01*
X9363896Y-15973984D02*
X9344848Y-15973984D01*
X9344848Y-15973984D02*
X9325801Y-15964460D01*
X9325801Y-15964460D02*
X9316277Y-15954936D01*
X9316277Y-15954936D02*
X9306753Y-15935888D01*
X9306753Y-15935888D02*
X9297229Y-15897793D01*
X9297229Y-15897793D02*
X9297229Y-15850174D01*
X9297229Y-15850174D02*
X9306753Y-15812079D01*
X9306753Y-15812079D02*
X9316277Y-15793031D01*
X9316277Y-15793031D02*
X9325801Y-15783508D01*
X9325801Y-15783508D02*
X9344848Y-15773984D01*
X9601991Y-15973984D02*
X9487706Y-15973984D01*
X9544848Y-15973984D02*
X9544848Y-15773984D01*
X9544848Y-15773984D02*
X9525801Y-15802555D01*
X9525801Y-15802555D02*
X9506753Y-15821603D01*
X9506753Y-15821603D02*
X9487706Y-15831127D01*
X9792468Y-15973984D02*
X9678182Y-15973984D01*
X9735325Y-15973984D02*
X9735325Y-15773984D01*
X9735325Y-15773984D02*
X9716277Y-15802555D01*
X9716277Y-15802555D02*
X9697229Y-15821603D01*
X9697229Y-15821603D02*
X9678182Y-15831127D01*
X9906753Y-15859698D02*
X9887706Y-15850174D01*
X9887706Y-15850174D02*
X9878182Y-15840650D01*
X9878182Y-15840650D02*
X9868658Y-15821603D01*
X9868658Y-15821603D02*
X9868658Y-15812079D01*
X9868658Y-15812079D02*
X9878182Y-15793031D01*
X9878182Y-15793031D02*
X9887706Y-15783508D01*
X9887706Y-15783508D02*
X9906753Y-15773984D01*
X9906753Y-15773984D02*
X9944849Y-15773984D01*
X9944849Y-15773984D02*
X9963896Y-15783508D01*
X9963896Y-15783508D02*
X9973420Y-15793031D01*
X9973420Y-15793031D02*
X9982944Y-15812079D01*
X9982944Y-15812079D02*
X9982944Y-15821603D01*
X9982944Y-15821603D02*
X9973420Y-15840650D01*
X9973420Y-15840650D02*
X9963896Y-15850174D01*
X9963896Y-15850174D02*
X9944849Y-15859698D01*
X9944849Y-15859698D02*
X9906753Y-15859698D01*
X9906753Y-15859698D02*
X9887706Y-15869222D01*
X9887706Y-15869222D02*
X9878182Y-15878746D01*
X9878182Y-15878746D02*
X9868658Y-15897793D01*
X9868658Y-15897793D02*
X9868658Y-15935888D01*
X9868658Y-15935888D02*
X9878182Y-15954936D01*
X9878182Y-15954936D02*
X9887706Y-15964460D01*
X9887706Y-15964460D02*
X9906753Y-15973984D01*
X9906753Y-15973984D02*
X9944849Y-15973984D01*
X9944849Y-15973984D02*
X9963896Y-15964460D01*
X9963896Y-15964460D02*
X9973420Y-15954936D01*
X9973420Y-15954936D02*
X9982944Y-15935888D01*
X9982944Y-15935888D02*
X9982944Y-15897793D01*
X9982944Y-15897793D02*
X9973420Y-15878746D01*
X9973420Y-15878746D02*
X9963896Y-15869222D01*
X9963896Y-15869222D02*
X9944849Y-15859698D01*
X10059134Y-15773984D02*
X10059134Y-15812079D01*
X10135325Y-15773984D02*
X10135325Y-15812079D01*
X10430563Y-16050174D02*
X10421039Y-16040650D01*
X10421039Y-16040650D02*
X10401991Y-16012079D01*
X10401991Y-16012079D02*
X10392468Y-15993031D01*
X10392468Y-15993031D02*
X10382944Y-15964460D01*
X10382944Y-15964460D02*
X10373420Y-15916841D01*
X10373420Y-15916841D02*
X10373420Y-15878746D01*
X10373420Y-15878746D02*
X10382944Y-15831127D01*
X10382944Y-15831127D02*
X10392468Y-15802555D01*
X10392468Y-15802555D02*
X10401991Y-15783508D01*
X10401991Y-15783508D02*
X10421039Y-15754936D01*
X10421039Y-15754936D02*
X10430563Y-15745412D01*
X10497230Y-15793031D02*
X10506753Y-15783508D01*
X10506753Y-15783508D02*
X10525801Y-15773984D01*
X10525801Y-15773984D02*
X10573420Y-15773984D01*
X10573420Y-15773984D02*
X10592468Y-15783508D01*
X10592468Y-15783508D02*
X10601991Y-15793031D01*
X10601991Y-15793031D02*
X10611515Y-15812079D01*
X10611515Y-15812079D02*
X10611515Y-15831127D01*
X10611515Y-15831127D02*
X10601991Y-15859698D01*
X10601991Y-15859698D02*
X10487706Y-15973984D01*
X10487706Y-15973984D02*
X10611515Y-15973984D01*
X10801991Y-15973984D02*
X10687706Y-15973984D01*
X10744849Y-15973984D02*
X10744849Y-15773984D01*
X10744849Y-15773984D02*
X10725801Y-15802555D01*
X10725801Y-15802555D02*
X10706753Y-15821603D01*
X10706753Y-15821603D02*
X10687706Y-15831127D01*
X11040087Y-15973984D02*
X11040087Y-15773984D01*
X11125801Y-15973984D02*
X11125801Y-15869222D01*
X11125801Y-15869222D02*
X11116277Y-15850174D01*
X11116277Y-15850174D02*
X11097230Y-15840650D01*
X11097230Y-15840650D02*
X11068658Y-15840650D01*
X11068658Y-15840650D02*
X11049611Y-15850174D01*
X11049611Y-15850174D02*
X11040087Y-15859698D01*
X11249610Y-15973984D02*
X11230563Y-15964460D01*
X11230563Y-15964460D02*
X11221039Y-15954936D01*
X11221039Y-15954936D02*
X11211515Y-15935888D01*
X11211515Y-15935888D02*
X11211515Y-15878746D01*
X11211515Y-15878746D02*
X11221039Y-15859698D01*
X11221039Y-15859698D02*
X11230563Y-15850174D01*
X11230563Y-15850174D02*
X11249610Y-15840650D01*
X11249610Y-15840650D02*
X11278182Y-15840650D01*
X11278182Y-15840650D02*
X11297230Y-15850174D01*
X11297230Y-15850174D02*
X11306753Y-15859698D01*
X11306753Y-15859698D02*
X11316277Y-15878746D01*
X11316277Y-15878746D02*
X11316277Y-15935888D01*
X11316277Y-15935888D02*
X11306753Y-15954936D01*
X11306753Y-15954936D02*
X11297230Y-15964460D01*
X11297230Y-15964460D02*
X11278182Y-15973984D01*
X11278182Y-15973984D02*
X11249610Y-15973984D01*
X11430563Y-15973984D02*
X11411515Y-15964460D01*
X11411515Y-15964460D02*
X11401991Y-15945412D01*
X11401991Y-15945412D02*
X11401991Y-15773984D01*
X11582944Y-15964460D02*
X11563896Y-15973984D01*
X11563896Y-15973984D02*
X11525801Y-15973984D01*
X11525801Y-15973984D02*
X11506753Y-15964460D01*
X11506753Y-15964460D02*
X11497230Y-15945412D01*
X11497230Y-15945412D02*
X11497230Y-15869222D01*
X11497230Y-15869222D02*
X11506753Y-15850174D01*
X11506753Y-15850174D02*
X11525801Y-15840650D01*
X11525801Y-15840650D02*
X11563896Y-15840650D01*
X11563896Y-15840650D02*
X11582944Y-15850174D01*
X11582944Y-15850174D02*
X11592468Y-15869222D01*
X11592468Y-15869222D02*
X11592468Y-15888269D01*
X11592468Y-15888269D02*
X11497230Y-15907317D01*
X11668658Y-15964460D02*
X11687706Y-15973984D01*
X11687706Y-15973984D02*
X11725801Y-15973984D01*
X11725801Y-15973984D02*
X11744849Y-15964460D01*
X11744849Y-15964460D02*
X11754372Y-15945412D01*
X11754372Y-15945412D02*
X11754372Y-15935888D01*
X11754372Y-15935888D02*
X11744849Y-15916841D01*
X11744849Y-15916841D02*
X11725801Y-15907317D01*
X11725801Y-15907317D02*
X11697230Y-15907317D01*
X11697230Y-15907317D02*
X11678182Y-15897793D01*
X11678182Y-15897793D02*
X11668658Y-15878746D01*
X11668658Y-15878746D02*
X11668658Y-15869222D01*
X11668658Y-15869222D02*
X11678182Y-15850174D01*
X11678182Y-15850174D02*
X11697230Y-15840650D01*
X11697230Y-15840650D02*
X11725801Y-15840650D01*
X11725801Y-15840650D02*
X11744849Y-15850174D01*
X11821039Y-16050174D02*
X11830563Y-16040650D01*
X11830563Y-16040650D02*
X11849611Y-16012079D01*
X11849611Y-16012079D02*
X11859134Y-15993031D01*
X11859134Y-15993031D02*
X11868658Y-15964460D01*
X11868658Y-15964460D02*
X11878182Y-15916841D01*
X11878182Y-15916841D02*
X11878182Y-15878746D01*
X11878182Y-15878746D02*
X11868658Y-15831127D01*
X11868658Y-15831127D02*
X11859134Y-15802555D01*
X11859134Y-15802555D02*
X11849611Y-15783508D01*
X11849611Y-15783508D02*
X11830563Y-15754936D01*
X11830563Y-15754936D02*
X11821039Y-15745412D01*
D12*
X6855500Y-16146500D02*
G75*
G03*
X6775500Y-16146500I-40000J0D01*
G01*
X6775500Y-16146500D02*
G75*
G03*
X6855500Y-16146500I40000J0D01*
G01*
D11*
X7154372Y-16037984D02*
X7173420Y-16037984D01*
X7173420Y-16037984D02*
X7192467Y-16047508D01*
X7192467Y-16047508D02*
X7201991Y-16057031D01*
X7201991Y-16057031D02*
X7211515Y-16076079D01*
X7211515Y-16076079D02*
X7221039Y-16114174D01*
X7221039Y-16114174D02*
X7221039Y-16161793D01*
X7221039Y-16161793D02*
X7211515Y-16199888D01*
X7211515Y-16199888D02*
X7201991Y-16218936D01*
X7201991Y-16218936D02*
X7192467Y-16228460D01*
X7192467Y-16228460D02*
X7173420Y-16237984D01*
X7173420Y-16237984D02*
X7154372Y-16237984D01*
X7154372Y-16237984D02*
X7135324Y-16228460D01*
X7135324Y-16228460D02*
X7125801Y-16218936D01*
X7125801Y-16218936D02*
X7116277Y-16199888D01*
X7116277Y-16199888D02*
X7106753Y-16161793D01*
X7106753Y-16161793D02*
X7106753Y-16114174D01*
X7106753Y-16114174D02*
X7116277Y-16076079D01*
X7116277Y-16076079D02*
X7125801Y-16057031D01*
X7125801Y-16057031D02*
X7135324Y-16047508D01*
X7135324Y-16047508D02*
X7154372Y-16037984D01*
X7306753Y-16218936D02*
X7316277Y-16228460D01*
X7316277Y-16228460D02*
X7306753Y-16237984D01*
X7306753Y-16237984D02*
X7297229Y-16228460D01*
X7297229Y-16228460D02*
X7306753Y-16218936D01*
X7306753Y-16218936D02*
X7306753Y-16237984D01*
X7430562Y-16123698D02*
X7411515Y-16114174D01*
X7411515Y-16114174D02*
X7401991Y-16104650D01*
X7401991Y-16104650D02*
X7392467Y-16085603D01*
X7392467Y-16085603D02*
X7392467Y-16076079D01*
X7392467Y-16076079D02*
X7401991Y-16057031D01*
X7401991Y-16057031D02*
X7411515Y-16047508D01*
X7411515Y-16047508D02*
X7430562Y-16037984D01*
X7430562Y-16037984D02*
X7468658Y-16037984D01*
X7468658Y-16037984D02*
X7487705Y-16047508D01*
X7487705Y-16047508D02*
X7497229Y-16057031D01*
X7497229Y-16057031D02*
X7506753Y-16076079D01*
X7506753Y-16076079D02*
X7506753Y-16085603D01*
X7506753Y-16085603D02*
X7497229Y-16104650D01*
X7497229Y-16104650D02*
X7487705Y-16114174D01*
X7487705Y-16114174D02*
X7468658Y-16123698D01*
X7468658Y-16123698D02*
X7430562Y-16123698D01*
X7430562Y-16123698D02*
X7411515Y-16133222D01*
X7411515Y-16133222D02*
X7401991Y-16142746D01*
X7401991Y-16142746D02*
X7392467Y-16161793D01*
X7392467Y-16161793D02*
X7392467Y-16199888D01*
X7392467Y-16199888D02*
X7401991Y-16218936D01*
X7401991Y-16218936D02*
X7411515Y-16228460D01*
X7411515Y-16228460D02*
X7430562Y-16237984D01*
X7430562Y-16237984D02*
X7468658Y-16237984D01*
X7468658Y-16237984D02*
X7487705Y-16228460D01*
X7487705Y-16228460D02*
X7497229Y-16218936D01*
X7497229Y-16218936D02*
X7506753Y-16199888D01*
X7506753Y-16199888D02*
X7506753Y-16161793D01*
X7506753Y-16161793D02*
X7497229Y-16142746D01*
X7497229Y-16142746D02*
X7487705Y-16133222D01*
X7487705Y-16133222D02*
X7468658Y-16123698D01*
X7630562Y-16037984D02*
X7649610Y-16037984D01*
X7649610Y-16037984D02*
X7668658Y-16047508D01*
X7668658Y-16047508D02*
X7678182Y-16057031D01*
X7678182Y-16057031D02*
X7687705Y-16076079D01*
X7687705Y-16076079D02*
X7697229Y-16114174D01*
X7697229Y-16114174D02*
X7697229Y-16161793D01*
X7697229Y-16161793D02*
X7687705Y-16199888D01*
X7687705Y-16199888D02*
X7678182Y-16218936D01*
X7678182Y-16218936D02*
X7668658Y-16228460D01*
X7668658Y-16228460D02*
X7649610Y-16237984D01*
X7649610Y-16237984D02*
X7630562Y-16237984D01*
X7630562Y-16237984D02*
X7611515Y-16228460D01*
X7611515Y-16228460D02*
X7601991Y-16218936D01*
X7601991Y-16218936D02*
X7592467Y-16199888D01*
X7592467Y-16199888D02*
X7582943Y-16161793D01*
X7582943Y-16161793D02*
X7582943Y-16114174D01*
X7582943Y-16114174D02*
X7592467Y-16076079D01*
X7592467Y-16076079D02*
X7601991Y-16057031D01*
X7601991Y-16057031D02*
X7611515Y-16047508D01*
X7611515Y-16047508D02*
X7630562Y-16037984D01*
X7821039Y-16037984D02*
X7840086Y-16037984D01*
X7840086Y-16037984D02*
X7859134Y-16047508D01*
X7859134Y-16047508D02*
X7868658Y-16057031D01*
X7868658Y-16057031D02*
X7878182Y-16076079D01*
X7878182Y-16076079D02*
X7887705Y-16114174D01*
X7887705Y-16114174D02*
X7887705Y-16161793D01*
X7887705Y-16161793D02*
X7878182Y-16199888D01*
X7878182Y-16199888D02*
X7868658Y-16218936D01*
X7868658Y-16218936D02*
X7859134Y-16228460D01*
X7859134Y-16228460D02*
X7840086Y-16237984D01*
X7840086Y-16237984D02*
X7821039Y-16237984D01*
X7821039Y-16237984D02*
X7801991Y-16228460D01*
X7801991Y-16228460D02*
X7792467Y-16218936D01*
X7792467Y-16218936D02*
X7782943Y-16199888D01*
X7782943Y-16199888D02*
X7773420Y-16161793D01*
X7773420Y-16161793D02*
X7773420Y-16114174D01*
X7773420Y-16114174D02*
X7782943Y-16076079D01*
X7782943Y-16076079D02*
X7792467Y-16057031D01*
X7792467Y-16057031D02*
X7801991Y-16047508D01*
X7801991Y-16047508D02*
X7821039Y-16037984D01*
X7973420Y-16237984D02*
X7973420Y-16104650D01*
X7973420Y-16123698D02*
X7982943Y-16114174D01*
X7982943Y-16114174D02*
X8001991Y-16104650D01*
X8001991Y-16104650D02*
X8030563Y-16104650D01*
X8030563Y-16104650D02*
X8049610Y-16114174D01*
X8049610Y-16114174D02*
X8059134Y-16133222D01*
X8059134Y-16133222D02*
X8059134Y-16237984D01*
X8059134Y-16133222D02*
X8068658Y-16114174D01*
X8068658Y-16114174D02*
X8087705Y-16104650D01*
X8087705Y-16104650D02*
X8116277Y-16104650D01*
X8116277Y-16104650D02*
X8135324Y-16114174D01*
X8135324Y-16114174D02*
X8144848Y-16133222D01*
X8144848Y-16133222D02*
X8144848Y-16237984D01*
X8240086Y-16237984D02*
X8240086Y-16104650D01*
X8240086Y-16123698D02*
X8249610Y-16114174D01*
X8249610Y-16114174D02*
X8268658Y-16104650D01*
X8268658Y-16104650D02*
X8297229Y-16104650D01*
X8297229Y-16104650D02*
X8316277Y-16114174D01*
X8316277Y-16114174D02*
X8325801Y-16133222D01*
X8325801Y-16133222D02*
X8325801Y-16237984D01*
X8325801Y-16133222D02*
X8335324Y-16114174D01*
X8335324Y-16114174D02*
X8354372Y-16104650D01*
X8354372Y-16104650D02*
X8382943Y-16104650D01*
X8382943Y-16104650D02*
X8401991Y-16114174D01*
X8401991Y-16114174D02*
X8411515Y-16133222D01*
X8411515Y-16133222D02*
X8411515Y-16237984D01*
X8801991Y-16028460D02*
X8630563Y-16285603D01*
X9059134Y-16037984D02*
X9078182Y-16037984D01*
X9078182Y-16037984D02*
X9097229Y-16047508D01*
X9097229Y-16047508D02*
X9106753Y-16057031D01*
X9106753Y-16057031D02*
X9116277Y-16076079D01*
X9116277Y-16076079D02*
X9125801Y-16114174D01*
X9125801Y-16114174D02*
X9125801Y-16161793D01*
X9125801Y-16161793D02*
X9116277Y-16199888D01*
X9116277Y-16199888D02*
X9106753Y-16218936D01*
X9106753Y-16218936D02*
X9097229Y-16228460D01*
X9097229Y-16228460D02*
X9078182Y-16237984D01*
X9078182Y-16237984D02*
X9059134Y-16237984D01*
X9059134Y-16237984D02*
X9040087Y-16228460D01*
X9040087Y-16228460D02*
X9030563Y-16218936D01*
X9030563Y-16218936D02*
X9021039Y-16199888D01*
X9021039Y-16199888D02*
X9011515Y-16161793D01*
X9011515Y-16161793D02*
X9011515Y-16114174D01*
X9011515Y-16114174D02*
X9021039Y-16076079D01*
X9021039Y-16076079D02*
X9030563Y-16057031D01*
X9030563Y-16057031D02*
X9040087Y-16047508D01*
X9040087Y-16047508D02*
X9059134Y-16037984D01*
X9211515Y-16218936D02*
X9221039Y-16228460D01*
X9221039Y-16228460D02*
X9211515Y-16237984D01*
X9211515Y-16237984D02*
X9201991Y-16228460D01*
X9201991Y-16228460D02*
X9211515Y-16218936D01*
X9211515Y-16218936D02*
X9211515Y-16237984D01*
X9344848Y-16037984D02*
X9363896Y-16037984D01*
X9363896Y-16037984D02*
X9382944Y-16047508D01*
X9382944Y-16047508D02*
X9392468Y-16057031D01*
X9392468Y-16057031D02*
X9401991Y-16076079D01*
X9401991Y-16076079D02*
X9411515Y-16114174D01*
X9411515Y-16114174D02*
X9411515Y-16161793D01*
X9411515Y-16161793D02*
X9401991Y-16199888D01*
X9401991Y-16199888D02*
X9392468Y-16218936D01*
X9392468Y-16218936D02*
X9382944Y-16228460D01*
X9382944Y-16228460D02*
X9363896Y-16237984D01*
X9363896Y-16237984D02*
X9344848Y-16237984D01*
X9344848Y-16237984D02*
X9325801Y-16228460D01*
X9325801Y-16228460D02*
X9316277Y-16218936D01*
X9316277Y-16218936D02*
X9306753Y-16199888D01*
X9306753Y-16199888D02*
X9297229Y-16161793D01*
X9297229Y-16161793D02*
X9297229Y-16114174D01*
X9297229Y-16114174D02*
X9306753Y-16076079D01*
X9306753Y-16076079D02*
X9316277Y-16057031D01*
X9316277Y-16057031D02*
X9325801Y-16047508D01*
X9325801Y-16047508D02*
X9344848Y-16037984D01*
X9478182Y-16037984D02*
X9601991Y-16037984D01*
X9601991Y-16037984D02*
X9535325Y-16114174D01*
X9535325Y-16114174D02*
X9563896Y-16114174D01*
X9563896Y-16114174D02*
X9582944Y-16123698D01*
X9582944Y-16123698D02*
X9592468Y-16133222D01*
X9592468Y-16133222D02*
X9601991Y-16152269D01*
X9601991Y-16152269D02*
X9601991Y-16199888D01*
X9601991Y-16199888D02*
X9592468Y-16218936D01*
X9592468Y-16218936D02*
X9582944Y-16228460D01*
X9582944Y-16228460D02*
X9563896Y-16237984D01*
X9563896Y-16237984D02*
X9506753Y-16237984D01*
X9506753Y-16237984D02*
X9487706Y-16228460D01*
X9487706Y-16228460D02*
X9478182Y-16218936D01*
X9792468Y-16237984D02*
X9678182Y-16237984D01*
X9735325Y-16237984D02*
X9735325Y-16037984D01*
X9735325Y-16037984D02*
X9716277Y-16066555D01*
X9716277Y-16066555D02*
X9697229Y-16085603D01*
X9697229Y-16085603D02*
X9678182Y-16095127D01*
X9973420Y-16037984D02*
X9878182Y-16037984D01*
X9878182Y-16037984D02*
X9868658Y-16133222D01*
X9868658Y-16133222D02*
X9878182Y-16123698D01*
X9878182Y-16123698D02*
X9897229Y-16114174D01*
X9897229Y-16114174D02*
X9944849Y-16114174D01*
X9944849Y-16114174D02*
X9963896Y-16123698D01*
X9963896Y-16123698D02*
X9973420Y-16133222D01*
X9973420Y-16133222D02*
X9982944Y-16152269D01*
X9982944Y-16152269D02*
X9982944Y-16199888D01*
X9982944Y-16199888D02*
X9973420Y-16218936D01*
X9973420Y-16218936D02*
X9963896Y-16228460D01*
X9963896Y-16228460D02*
X9944849Y-16237984D01*
X9944849Y-16237984D02*
X9897229Y-16237984D01*
X9897229Y-16237984D02*
X9878182Y-16228460D01*
X9878182Y-16228460D02*
X9868658Y-16218936D01*
X10059134Y-16037984D02*
X10059134Y-16076079D01*
X10135325Y-16037984D02*
X10135325Y-16076079D01*
X10430563Y-16314174D02*
X10421039Y-16304650D01*
X10421039Y-16304650D02*
X10401991Y-16276079D01*
X10401991Y-16276079D02*
X10392468Y-16257031D01*
X10392468Y-16257031D02*
X10382944Y-16228460D01*
X10382944Y-16228460D02*
X10373420Y-16180841D01*
X10373420Y-16180841D02*
X10373420Y-16142746D01*
X10373420Y-16142746D02*
X10382944Y-16095127D01*
X10382944Y-16095127D02*
X10392468Y-16066555D01*
X10392468Y-16066555D02*
X10401991Y-16047508D01*
X10401991Y-16047508D02*
X10421039Y-16018936D01*
X10421039Y-16018936D02*
X10430563Y-16009412D01*
X10611515Y-16237984D02*
X10497230Y-16237984D01*
X10554372Y-16237984D02*
X10554372Y-16037984D01*
X10554372Y-16037984D02*
X10535325Y-16066555D01*
X10535325Y-16066555D02*
X10516277Y-16085603D01*
X10516277Y-16085603D02*
X10497230Y-16095127D01*
X10782944Y-16037984D02*
X10744849Y-16037984D01*
X10744849Y-16037984D02*
X10725801Y-16047508D01*
X10725801Y-16047508D02*
X10716277Y-16057031D01*
X10716277Y-16057031D02*
X10697230Y-16085603D01*
X10697230Y-16085603D02*
X10687706Y-16123698D01*
X10687706Y-16123698D02*
X10687706Y-16199888D01*
X10687706Y-16199888D02*
X10697230Y-16218936D01*
X10697230Y-16218936D02*
X10706753Y-16228460D01*
X10706753Y-16228460D02*
X10725801Y-16237984D01*
X10725801Y-16237984D02*
X10763896Y-16237984D01*
X10763896Y-16237984D02*
X10782944Y-16228460D01*
X10782944Y-16228460D02*
X10792468Y-16218936D01*
X10792468Y-16218936D02*
X10801991Y-16199888D01*
X10801991Y-16199888D02*
X10801991Y-16152269D01*
X10801991Y-16152269D02*
X10792468Y-16133222D01*
X10792468Y-16133222D02*
X10782944Y-16123698D01*
X10782944Y-16123698D02*
X10763896Y-16114174D01*
X10763896Y-16114174D02*
X10725801Y-16114174D01*
X10725801Y-16114174D02*
X10706753Y-16123698D01*
X10706753Y-16123698D02*
X10697230Y-16133222D01*
X10697230Y-16133222D02*
X10687706Y-16152269D01*
X11040087Y-16237984D02*
X11040087Y-16037984D01*
X11125801Y-16237984D02*
X11125801Y-16133222D01*
X11125801Y-16133222D02*
X11116277Y-16114174D01*
X11116277Y-16114174D02*
X11097230Y-16104650D01*
X11097230Y-16104650D02*
X11068658Y-16104650D01*
X11068658Y-16104650D02*
X11049611Y-16114174D01*
X11049611Y-16114174D02*
X11040087Y-16123698D01*
X11249610Y-16237984D02*
X11230563Y-16228460D01*
X11230563Y-16228460D02*
X11221039Y-16218936D01*
X11221039Y-16218936D02*
X11211515Y-16199888D01*
X11211515Y-16199888D02*
X11211515Y-16142746D01*
X11211515Y-16142746D02*
X11221039Y-16123698D01*
X11221039Y-16123698D02*
X11230563Y-16114174D01*
X11230563Y-16114174D02*
X11249610Y-16104650D01*
X11249610Y-16104650D02*
X11278182Y-16104650D01*
X11278182Y-16104650D02*
X11297230Y-16114174D01*
X11297230Y-16114174D02*
X11306753Y-16123698D01*
X11306753Y-16123698D02*
X11316277Y-16142746D01*
X11316277Y-16142746D02*
X11316277Y-16199888D01*
X11316277Y-16199888D02*
X11306753Y-16218936D01*
X11306753Y-16218936D02*
X11297230Y-16228460D01*
X11297230Y-16228460D02*
X11278182Y-16237984D01*
X11278182Y-16237984D02*
X11249610Y-16237984D01*
X11430563Y-16237984D02*
X11411515Y-16228460D01*
X11411515Y-16228460D02*
X11401991Y-16209412D01*
X11401991Y-16209412D02*
X11401991Y-16037984D01*
X11582944Y-16228460D02*
X11563896Y-16237984D01*
X11563896Y-16237984D02*
X11525801Y-16237984D01*
X11525801Y-16237984D02*
X11506753Y-16228460D01*
X11506753Y-16228460D02*
X11497230Y-16209412D01*
X11497230Y-16209412D02*
X11497230Y-16133222D01*
X11497230Y-16133222D02*
X11506753Y-16114174D01*
X11506753Y-16114174D02*
X11525801Y-16104650D01*
X11525801Y-16104650D02*
X11563896Y-16104650D01*
X11563896Y-16104650D02*
X11582944Y-16114174D01*
X11582944Y-16114174D02*
X11592468Y-16133222D01*
X11592468Y-16133222D02*
X11592468Y-16152269D01*
X11592468Y-16152269D02*
X11497230Y-16171317D01*
X11668658Y-16228460D02*
X11687706Y-16237984D01*
X11687706Y-16237984D02*
X11725801Y-16237984D01*
X11725801Y-16237984D02*
X11744849Y-16228460D01*
X11744849Y-16228460D02*
X11754372Y-16209412D01*
X11754372Y-16209412D02*
X11754372Y-16199888D01*
X11754372Y-16199888D02*
X11744849Y-16180841D01*
X11744849Y-16180841D02*
X11725801Y-16171317D01*
X11725801Y-16171317D02*
X11697230Y-16171317D01*
X11697230Y-16171317D02*
X11678182Y-16161793D01*
X11678182Y-16161793D02*
X11668658Y-16142746D01*
X11668658Y-16142746D02*
X11668658Y-16133222D01*
X11668658Y-16133222D02*
X11678182Y-16114174D01*
X11678182Y-16114174D02*
X11697230Y-16104650D01*
X11697230Y-16104650D02*
X11725801Y-16104650D01*
X11725801Y-16104650D02*
X11744849Y-16114174D01*
X11821039Y-16314174D02*
X11830563Y-16304650D01*
X11830563Y-16304650D02*
X11849611Y-16276079D01*
X11849611Y-16276079D02*
X11859134Y-16257031D01*
X11859134Y-16257031D02*
X11868658Y-16228460D01*
X11868658Y-16228460D02*
X11878182Y-16180841D01*
X11878182Y-16180841D02*
X11878182Y-16142746D01*
X11878182Y-16142746D02*
X11868658Y-16095127D01*
X11868658Y-16095127D02*
X11859134Y-16066555D01*
X11859134Y-16066555D02*
X11849611Y-16047508D01*
X11849611Y-16047508D02*
X11830563Y-16018936D01*
X11830563Y-16018936D02*
X11821039Y-16009412D01*
D12*
X6805500Y-16360500D02*
X6805500Y-16460500D01*
X6755500Y-16410500D02*
X6855500Y-16410500D01*
D11*
X7221039Y-16501984D02*
X7106753Y-16501984D01*
X7163896Y-16501984D02*
X7163896Y-16301984D01*
X7163896Y-16301984D02*
X7144848Y-16330555D01*
X7144848Y-16330555D02*
X7125801Y-16349603D01*
X7125801Y-16349603D02*
X7106753Y-16359127D01*
X7306753Y-16482936D02*
X7316277Y-16492460D01*
X7316277Y-16492460D02*
X7306753Y-16501984D01*
X7306753Y-16501984D02*
X7297229Y-16492460D01*
X7297229Y-16492460D02*
X7306753Y-16482936D01*
X7306753Y-16482936D02*
X7306753Y-16501984D01*
X7440086Y-16301984D02*
X7459134Y-16301984D01*
X7459134Y-16301984D02*
X7478182Y-16311508D01*
X7478182Y-16311508D02*
X7487705Y-16321031D01*
X7487705Y-16321031D02*
X7497229Y-16340079D01*
X7497229Y-16340079D02*
X7506753Y-16378174D01*
X7506753Y-16378174D02*
X7506753Y-16425793D01*
X7506753Y-16425793D02*
X7497229Y-16463888D01*
X7497229Y-16463888D02*
X7487705Y-16482936D01*
X7487705Y-16482936D02*
X7478182Y-16492460D01*
X7478182Y-16492460D02*
X7459134Y-16501984D01*
X7459134Y-16501984D02*
X7440086Y-16501984D01*
X7440086Y-16501984D02*
X7421039Y-16492460D01*
X7421039Y-16492460D02*
X7411515Y-16482936D01*
X7411515Y-16482936D02*
X7401991Y-16463888D01*
X7401991Y-16463888D02*
X7392467Y-16425793D01*
X7392467Y-16425793D02*
X7392467Y-16378174D01*
X7392467Y-16378174D02*
X7401991Y-16340079D01*
X7401991Y-16340079D02*
X7411515Y-16321031D01*
X7411515Y-16321031D02*
X7421039Y-16311508D01*
X7421039Y-16311508D02*
X7440086Y-16301984D01*
X7630562Y-16301984D02*
X7649610Y-16301984D01*
X7649610Y-16301984D02*
X7668658Y-16311508D01*
X7668658Y-16311508D02*
X7678182Y-16321031D01*
X7678182Y-16321031D02*
X7687705Y-16340079D01*
X7687705Y-16340079D02*
X7697229Y-16378174D01*
X7697229Y-16378174D02*
X7697229Y-16425793D01*
X7697229Y-16425793D02*
X7687705Y-16463888D01*
X7687705Y-16463888D02*
X7678182Y-16482936D01*
X7678182Y-16482936D02*
X7668658Y-16492460D01*
X7668658Y-16492460D02*
X7649610Y-16501984D01*
X7649610Y-16501984D02*
X7630562Y-16501984D01*
X7630562Y-16501984D02*
X7611515Y-16492460D01*
X7611515Y-16492460D02*
X7601991Y-16482936D01*
X7601991Y-16482936D02*
X7592467Y-16463888D01*
X7592467Y-16463888D02*
X7582943Y-16425793D01*
X7582943Y-16425793D02*
X7582943Y-16378174D01*
X7582943Y-16378174D02*
X7592467Y-16340079D01*
X7592467Y-16340079D02*
X7601991Y-16321031D01*
X7601991Y-16321031D02*
X7611515Y-16311508D01*
X7611515Y-16311508D02*
X7630562Y-16301984D01*
X7821039Y-16301984D02*
X7840086Y-16301984D01*
X7840086Y-16301984D02*
X7859134Y-16311508D01*
X7859134Y-16311508D02*
X7868658Y-16321031D01*
X7868658Y-16321031D02*
X7878182Y-16340079D01*
X7878182Y-16340079D02*
X7887705Y-16378174D01*
X7887705Y-16378174D02*
X7887705Y-16425793D01*
X7887705Y-16425793D02*
X7878182Y-16463888D01*
X7878182Y-16463888D02*
X7868658Y-16482936D01*
X7868658Y-16482936D02*
X7859134Y-16492460D01*
X7859134Y-16492460D02*
X7840086Y-16501984D01*
X7840086Y-16501984D02*
X7821039Y-16501984D01*
X7821039Y-16501984D02*
X7801991Y-16492460D01*
X7801991Y-16492460D02*
X7792467Y-16482936D01*
X7792467Y-16482936D02*
X7782943Y-16463888D01*
X7782943Y-16463888D02*
X7773420Y-16425793D01*
X7773420Y-16425793D02*
X7773420Y-16378174D01*
X7773420Y-16378174D02*
X7782943Y-16340079D01*
X7782943Y-16340079D02*
X7792467Y-16321031D01*
X7792467Y-16321031D02*
X7801991Y-16311508D01*
X7801991Y-16311508D02*
X7821039Y-16301984D01*
X7973420Y-16501984D02*
X7973420Y-16368650D01*
X7973420Y-16387698D02*
X7982943Y-16378174D01*
X7982943Y-16378174D02*
X8001991Y-16368650D01*
X8001991Y-16368650D02*
X8030563Y-16368650D01*
X8030563Y-16368650D02*
X8049610Y-16378174D01*
X8049610Y-16378174D02*
X8059134Y-16397222D01*
X8059134Y-16397222D02*
X8059134Y-16501984D01*
X8059134Y-16397222D02*
X8068658Y-16378174D01*
X8068658Y-16378174D02*
X8087705Y-16368650D01*
X8087705Y-16368650D02*
X8116277Y-16368650D01*
X8116277Y-16368650D02*
X8135324Y-16378174D01*
X8135324Y-16378174D02*
X8144848Y-16397222D01*
X8144848Y-16397222D02*
X8144848Y-16501984D01*
X8240086Y-16501984D02*
X8240086Y-16368650D01*
X8240086Y-16387698D02*
X8249610Y-16378174D01*
X8249610Y-16378174D02*
X8268658Y-16368650D01*
X8268658Y-16368650D02*
X8297229Y-16368650D01*
X8297229Y-16368650D02*
X8316277Y-16378174D01*
X8316277Y-16378174D02*
X8325801Y-16397222D01*
X8325801Y-16397222D02*
X8325801Y-16501984D01*
X8325801Y-16397222D02*
X8335324Y-16378174D01*
X8335324Y-16378174D02*
X8354372Y-16368650D01*
X8354372Y-16368650D02*
X8382943Y-16368650D01*
X8382943Y-16368650D02*
X8401991Y-16378174D01*
X8401991Y-16378174D02*
X8411515Y-16397222D01*
X8411515Y-16397222D02*
X8411515Y-16501984D01*
X8801991Y-16292460D02*
X8630563Y-16549603D01*
X9059134Y-16301984D02*
X9078182Y-16301984D01*
X9078182Y-16301984D02*
X9097229Y-16311508D01*
X9097229Y-16311508D02*
X9106753Y-16321031D01*
X9106753Y-16321031D02*
X9116277Y-16340079D01*
X9116277Y-16340079D02*
X9125801Y-16378174D01*
X9125801Y-16378174D02*
X9125801Y-16425793D01*
X9125801Y-16425793D02*
X9116277Y-16463888D01*
X9116277Y-16463888D02*
X9106753Y-16482936D01*
X9106753Y-16482936D02*
X9097229Y-16492460D01*
X9097229Y-16492460D02*
X9078182Y-16501984D01*
X9078182Y-16501984D02*
X9059134Y-16501984D01*
X9059134Y-16501984D02*
X9040087Y-16492460D01*
X9040087Y-16492460D02*
X9030563Y-16482936D01*
X9030563Y-16482936D02*
X9021039Y-16463888D01*
X9021039Y-16463888D02*
X9011515Y-16425793D01*
X9011515Y-16425793D02*
X9011515Y-16378174D01*
X9011515Y-16378174D02*
X9021039Y-16340079D01*
X9021039Y-16340079D02*
X9030563Y-16321031D01*
X9030563Y-16321031D02*
X9040087Y-16311508D01*
X9040087Y-16311508D02*
X9059134Y-16301984D01*
X9211515Y-16482936D02*
X9221039Y-16492460D01*
X9221039Y-16492460D02*
X9211515Y-16501984D01*
X9211515Y-16501984D02*
X9201991Y-16492460D01*
X9201991Y-16492460D02*
X9211515Y-16482936D01*
X9211515Y-16482936D02*
X9211515Y-16501984D01*
X9344848Y-16301984D02*
X9363896Y-16301984D01*
X9363896Y-16301984D02*
X9382944Y-16311508D01*
X9382944Y-16311508D02*
X9392468Y-16321031D01*
X9392468Y-16321031D02*
X9401991Y-16340079D01*
X9401991Y-16340079D02*
X9411515Y-16378174D01*
X9411515Y-16378174D02*
X9411515Y-16425793D01*
X9411515Y-16425793D02*
X9401991Y-16463888D01*
X9401991Y-16463888D02*
X9392468Y-16482936D01*
X9392468Y-16482936D02*
X9382944Y-16492460D01*
X9382944Y-16492460D02*
X9363896Y-16501984D01*
X9363896Y-16501984D02*
X9344848Y-16501984D01*
X9344848Y-16501984D02*
X9325801Y-16492460D01*
X9325801Y-16492460D02*
X9316277Y-16482936D01*
X9316277Y-16482936D02*
X9306753Y-16463888D01*
X9306753Y-16463888D02*
X9297229Y-16425793D01*
X9297229Y-16425793D02*
X9297229Y-16378174D01*
X9297229Y-16378174D02*
X9306753Y-16340079D01*
X9306753Y-16340079D02*
X9316277Y-16321031D01*
X9316277Y-16321031D02*
X9325801Y-16311508D01*
X9325801Y-16311508D02*
X9344848Y-16301984D01*
X9478182Y-16301984D02*
X9601991Y-16301984D01*
X9601991Y-16301984D02*
X9535325Y-16378174D01*
X9535325Y-16378174D02*
X9563896Y-16378174D01*
X9563896Y-16378174D02*
X9582944Y-16387698D01*
X9582944Y-16387698D02*
X9592468Y-16397222D01*
X9592468Y-16397222D02*
X9601991Y-16416269D01*
X9601991Y-16416269D02*
X9601991Y-16463888D01*
X9601991Y-16463888D02*
X9592468Y-16482936D01*
X9592468Y-16482936D02*
X9582944Y-16492460D01*
X9582944Y-16492460D02*
X9563896Y-16501984D01*
X9563896Y-16501984D02*
X9506753Y-16501984D01*
X9506753Y-16501984D02*
X9487706Y-16492460D01*
X9487706Y-16492460D02*
X9478182Y-16482936D01*
X9697229Y-16501984D02*
X9735325Y-16501984D01*
X9735325Y-16501984D02*
X9754372Y-16492460D01*
X9754372Y-16492460D02*
X9763896Y-16482936D01*
X9763896Y-16482936D02*
X9782944Y-16454365D01*
X9782944Y-16454365D02*
X9792468Y-16416269D01*
X9792468Y-16416269D02*
X9792468Y-16340079D01*
X9792468Y-16340079D02*
X9782944Y-16321031D01*
X9782944Y-16321031D02*
X9773420Y-16311508D01*
X9773420Y-16311508D02*
X9754372Y-16301984D01*
X9754372Y-16301984D02*
X9716277Y-16301984D01*
X9716277Y-16301984D02*
X9697229Y-16311508D01*
X9697229Y-16311508D02*
X9687706Y-16321031D01*
X9687706Y-16321031D02*
X9678182Y-16340079D01*
X9678182Y-16340079D02*
X9678182Y-16387698D01*
X9678182Y-16387698D02*
X9687706Y-16406746D01*
X9687706Y-16406746D02*
X9697229Y-16416269D01*
X9697229Y-16416269D02*
X9716277Y-16425793D01*
X9716277Y-16425793D02*
X9754372Y-16425793D01*
X9754372Y-16425793D02*
X9773420Y-16416269D01*
X9773420Y-16416269D02*
X9782944Y-16406746D01*
X9782944Y-16406746D02*
X9792468Y-16387698D01*
X9963896Y-16368650D02*
X9963896Y-16501984D01*
X9916277Y-16292460D02*
X9868658Y-16435317D01*
X9868658Y-16435317D02*
X9992468Y-16435317D01*
X10059134Y-16301984D02*
X10059134Y-16340079D01*
X10135325Y-16301984D02*
X10135325Y-16340079D01*
X10430563Y-16578174D02*
X10421039Y-16568650D01*
X10421039Y-16568650D02*
X10401991Y-16540079D01*
X10401991Y-16540079D02*
X10392468Y-16521031D01*
X10392468Y-16521031D02*
X10382944Y-16492460D01*
X10382944Y-16492460D02*
X10373420Y-16444841D01*
X10373420Y-16444841D02*
X10373420Y-16406746D01*
X10373420Y-16406746D02*
X10382944Y-16359127D01*
X10382944Y-16359127D02*
X10392468Y-16330555D01*
X10392468Y-16330555D02*
X10401991Y-16311508D01*
X10401991Y-16311508D02*
X10421039Y-16282936D01*
X10421039Y-16282936D02*
X10430563Y-16273412D01*
X10487706Y-16301984D02*
X10611515Y-16301984D01*
X10611515Y-16301984D02*
X10544849Y-16378174D01*
X10544849Y-16378174D02*
X10573420Y-16378174D01*
X10573420Y-16378174D02*
X10592468Y-16387698D01*
X10592468Y-16387698D02*
X10601991Y-16397222D01*
X10601991Y-16397222D02*
X10611515Y-16416269D01*
X10611515Y-16416269D02*
X10611515Y-16463888D01*
X10611515Y-16463888D02*
X10601991Y-16482936D01*
X10601991Y-16482936D02*
X10592468Y-16492460D01*
X10592468Y-16492460D02*
X10573420Y-16501984D01*
X10573420Y-16501984D02*
X10516277Y-16501984D01*
X10516277Y-16501984D02*
X10497230Y-16492460D01*
X10497230Y-16492460D02*
X10487706Y-16482936D01*
X10782944Y-16368650D02*
X10782944Y-16501984D01*
X10735325Y-16292460D02*
X10687706Y-16435317D01*
X10687706Y-16435317D02*
X10811515Y-16435317D01*
X11040087Y-16501984D02*
X11040087Y-16301984D01*
X11125801Y-16501984D02*
X11125801Y-16397222D01*
X11125801Y-16397222D02*
X11116277Y-16378174D01*
X11116277Y-16378174D02*
X11097230Y-16368650D01*
X11097230Y-16368650D02*
X11068658Y-16368650D01*
X11068658Y-16368650D02*
X11049611Y-16378174D01*
X11049611Y-16378174D02*
X11040087Y-16387698D01*
X11249610Y-16501984D02*
X11230563Y-16492460D01*
X11230563Y-16492460D02*
X11221039Y-16482936D01*
X11221039Y-16482936D02*
X11211515Y-16463888D01*
X11211515Y-16463888D02*
X11211515Y-16406746D01*
X11211515Y-16406746D02*
X11221039Y-16387698D01*
X11221039Y-16387698D02*
X11230563Y-16378174D01*
X11230563Y-16378174D02*
X11249610Y-16368650D01*
X11249610Y-16368650D02*
X11278182Y-16368650D01*
X11278182Y-16368650D02*
X11297230Y-16378174D01*
X11297230Y-16378174D02*
X11306753Y-16387698D01*
X11306753Y-16387698D02*
X11316277Y-16406746D01*
X11316277Y-16406746D02*
X11316277Y-16463888D01*
X11316277Y-16463888D02*
X11306753Y-16482936D01*
X11306753Y-16482936D02*
X11297230Y-16492460D01*
X11297230Y-16492460D02*
X11278182Y-16501984D01*
X11278182Y-16501984D02*
X11249610Y-16501984D01*
X11430563Y-16501984D02*
X11411515Y-16492460D01*
X11411515Y-16492460D02*
X11401991Y-16473412D01*
X11401991Y-16473412D02*
X11401991Y-16301984D01*
X11582944Y-16492460D02*
X11563896Y-16501984D01*
X11563896Y-16501984D02*
X11525801Y-16501984D01*
X11525801Y-16501984D02*
X11506753Y-16492460D01*
X11506753Y-16492460D02*
X11497230Y-16473412D01*
X11497230Y-16473412D02*
X11497230Y-16397222D01*
X11497230Y-16397222D02*
X11506753Y-16378174D01*
X11506753Y-16378174D02*
X11525801Y-16368650D01*
X11525801Y-16368650D02*
X11563896Y-16368650D01*
X11563896Y-16368650D02*
X11582944Y-16378174D01*
X11582944Y-16378174D02*
X11592468Y-16397222D01*
X11592468Y-16397222D02*
X11592468Y-16416269D01*
X11592468Y-16416269D02*
X11497230Y-16435317D01*
X11668658Y-16492460D02*
X11687706Y-16501984D01*
X11687706Y-16501984D02*
X11725801Y-16501984D01*
X11725801Y-16501984D02*
X11744849Y-16492460D01*
X11744849Y-16492460D02*
X11754372Y-16473412D01*
X11754372Y-16473412D02*
X11754372Y-16463888D01*
X11754372Y-16463888D02*
X11744849Y-16444841D01*
X11744849Y-16444841D02*
X11725801Y-16435317D01*
X11725801Y-16435317D02*
X11697230Y-16435317D01*
X11697230Y-16435317D02*
X11678182Y-16425793D01*
X11678182Y-16425793D02*
X11668658Y-16406746D01*
X11668658Y-16406746D02*
X11668658Y-16397222D01*
X11668658Y-16397222D02*
X11678182Y-16378174D01*
X11678182Y-16378174D02*
X11697230Y-16368650D01*
X11697230Y-16368650D02*
X11725801Y-16368650D01*
X11725801Y-16368650D02*
X11744849Y-16378174D01*
X11821039Y-16578174D02*
X11830563Y-16568650D01*
X11830563Y-16568650D02*
X11849611Y-16540079D01*
X11849611Y-16540079D02*
X11859134Y-16521031D01*
X11859134Y-16521031D02*
X11868658Y-16492460D01*
X11868658Y-16492460D02*
X11878182Y-16444841D01*
X11878182Y-16444841D02*
X11878182Y-16406746D01*
X11878182Y-16406746D02*
X11868658Y-16359127D01*
X11868658Y-16359127D02*
X11859134Y-16330555D01*
X11859134Y-16330555D02*
X11849611Y-16311508D01*
X11849611Y-16311508D02*
X11830563Y-16282936D01*
X11830563Y-16282936D02*
X11821039Y-16273412D01*
D13*
X6840270Y-16711270D02*
X6840270Y-16637730D01*
X6766730Y-16637730D01*
X6766730Y-16711270D01*
X6840270Y-16711270D01*
D11*
X7221039Y-16765984D02*
X7106753Y-16765984D01*
X7163896Y-16765984D02*
X7163896Y-16565984D01*
X7163896Y-16565984D02*
X7144848Y-16594555D01*
X7144848Y-16594555D02*
X7125801Y-16613603D01*
X7125801Y-16613603D02*
X7106753Y-16623127D01*
X7306753Y-16746936D02*
X7316277Y-16756460D01*
X7316277Y-16756460D02*
X7306753Y-16765984D01*
X7306753Y-16765984D02*
X7297229Y-16756460D01*
X7297229Y-16756460D02*
X7306753Y-16746936D01*
X7306753Y-16746936D02*
X7306753Y-16765984D01*
X7440086Y-16565984D02*
X7459134Y-16565984D01*
X7459134Y-16565984D02*
X7478182Y-16575508D01*
X7478182Y-16575508D02*
X7487705Y-16585031D01*
X7487705Y-16585031D02*
X7497229Y-16604079D01*
X7497229Y-16604079D02*
X7506753Y-16642174D01*
X7506753Y-16642174D02*
X7506753Y-16689793D01*
X7506753Y-16689793D02*
X7497229Y-16727888D01*
X7497229Y-16727888D02*
X7487705Y-16746936D01*
X7487705Y-16746936D02*
X7478182Y-16756460D01*
X7478182Y-16756460D02*
X7459134Y-16765984D01*
X7459134Y-16765984D02*
X7440086Y-16765984D01*
X7440086Y-16765984D02*
X7421039Y-16756460D01*
X7421039Y-16756460D02*
X7411515Y-16746936D01*
X7411515Y-16746936D02*
X7401991Y-16727888D01*
X7401991Y-16727888D02*
X7392467Y-16689793D01*
X7392467Y-16689793D02*
X7392467Y-16642174D01*
X7392467Y-16642174D02*
X7401991Y-16604079D01*
X7401991Y-16604079D02*
X7411515Y-16585031D01*
X7411515Y-16585031D02*
X7421039Y-16575508D01*
X7421039Y-16575508D02*
X7440086Y-16565984D01*
X7678182Y-16632650D02*
X7678182Y-16765984D01*
X7630562Y-16556460D02*
X7582943Y-16699317D01*
X7582943Y-16699317D02*
X7706753Y-16699317D01*
X7821039Y-16565984D02*
X7840086Y-16565984D01*
X7840086Y-16565984D02*
X7859134Y-16575508D01*
X7859134Y-16575508D02*
X7868658Y-16585031D01*
X7868658Y-16585031D02*
X7878182Y-16604079D01*
X7878182Y-16604079D02*
X7887705Y-16642174D01*
X7887705Y-16642174D02*
X7887705Y-16689793D01*
X7887705Y-16689793D02*
X7878182Y-16727888D01*
X7878182Y-16727888D02*
X7868658Y-16746936D01*
X7868658Y-16746936D02*
X7859134Y-16756460D01*
X7859134Y-16756460D02*
X7840086Y-16765984D01*
X7840086Y-16765984D02*
X7821039Y-16765984D01*
X7821039Y-16765984D02*
X7801991Y-16756460D01*
X7801991Y-16756460D02*
X7792467Y-16746936D01*
X7792467Y-16746936D02*
X7782943Y-16727888D01*
X7782943Y-16727888D02*
X7773420Y-16689793D01*
X7773420Y-16689793D02*
X7773420Y-16642174D01*
X7773420Y-16642174D02*
X7782943Y-16604079D01*
X7782943Y-16604079D02*
X7792467Y-16585031D01*
X7792467Y-16585031D02*
X7801991Y-16575508D01*
X7801991Y-16575508D02*
X7821039Y-16565984D01*
X7973420Y-16765984D02*
X7973420Y-16632650D01*
X7973420Y-16651698D02*
X7982943Y-16642174D01*
X7982943Y-16642174D02*
X8001991Y-16632650D01*
X8001991Y-16632650D02*
X8030563Y-16632650D01*
X8030563Y-16632650D02*
X8049610Y-16642174D01*
X8049610Y-16642174D02*
X8059134Y-16661222D01*
X8059134Y-16661222D02*
X8059134Y-16765984D01*
X8059134Y-16661222D02*
X8068658Y-16642174D01*
X8068658Y-16642174D02*
X8087705Y-16632650D01*
X8087705Y-16632650D02*
X8116277Y-16632650D01*
X8116277Y-16632650D02*
X8135324Y-16642174D01*
X8135324Y-16642174D02*
X8144848Y-16661222D01*
X8144848Y-16661222D02*
X8144848Y-16765984D01*
X8240086Y-16765984D02*
X8240086Y-16632650D01*
X8240086Y-16651698D02*
X8249610Y-16642174D01*
X8249610Y-16642174D02*
X8268658Y-16632650D01*
X8268658Y-16632650D02*
X8297229Y-16632650D01*
X8297229Y-16632650D02*
X8316277Y-16642174D01*
X8316277Y-16642174D02*
X8325801Y-16661222D01*
X8325801Y-16661222D02*
X8325801Y-16765984D01*
X8325801Y-16661222D02*
X8335324Y-16642174D01*
X8335324Y-16642174D02*
X8354372Y-16632650D01*
X8354372Y-16632650D02*
X8382943Y-16632650D01*
X8382943Y-16632650D02*
X8401991Y-16642174D01*
X8401991Y-16642174D02*
X8411515Y-16661222D01*
X8411515Y-16661222D02*
X8411515Y-16765984D01*
X8801991Y-16556460D02*
X8630563Y-16813603D01*
X9059134Y-16565984D02*
X9078182Y-16565984D01*
X9078182Y-16565984D02*
X9097229Y-16575508D01*
X9097229Y-16575508D02*
X9106753Y-16585031D01*
X9106753Y-16585031D02*
X9116277Y-16604079D01*
X9116277Y-16604079D02*
X9125801Y-16642174D01*
X9125801Y-16642174D02*
X9125801Y-16689793D01*
X9125801Y-16689793D02*
X9116277Y-16727888D01*
X9116277Y-16727888D02*
X9106753Y-16746936D01*
X9106753Y-16746936D02*
X9097229Y-16756460D01*
X9097229Y-16756460D02*
X9078182Y-16765984D01*
X9078182Y-16765984D02*
X9059134Y-16765984D01*
X9059134Y-16765984D02*
X9040087Y-16756460D01*
X9040087Y-16756460D02*
X9030563Y-16746936D01*
X9030563Y-16746936D02*
X9021039Y-16727888D01*
X9021039Y-16727888D02*
X9011515Y-16689793D01*
X9011515Y-16689793D02*
X9011515Y-16642174D01*
X9011515Y-16642174D02*
X9021039Y-16604079D01*
X9021039Y-16604079D02*
X9030563Y-16585031D01*
X9030563Y-16585031D02*
X9040087Y-16575508D01*
X9040087Y-16575508D02*
X9059134Y-16565984D01*
X9211515Y-16746936D02*
X9221039Y-16756460D01*
X9221039Y-16756460D02*
X9211515Y-16765984D01*
X9211515Y-16765984D02*
X9201991Y-16756460D01*
X9201991Y-16756460D02*
X9211515Y-16746936D01*
X9211515Y-16746936D02*
X9211515Y-16765984D01*
X9344848Y-16565984D02*
X9363896Y-16565984D01*
X9363896Y-16565984D02*
X9382944Y-16575508D01*
X9382944Y-16575508D02*
X9392468Y-16585031D01*
X9392468Y-16585031D02*
X9401991Y-16604079D01*
X9401991Y-16604079D02*
X9411515Y-16642174D01*
X9411515Y-16642174D02*
X9411515Y-16689793D01*
X9411515Y-16689793D02*
X9401991Y-16727888D01*
X9401991Y-16727888D02*
X9392468Y-16746936D01*
X9392468Y-16746936D02*
X9382944Y-16756460D01*
X9382944Y-16756460D02*
X9363896Y-16765984D01*
X9363896Y-16765984D02*
X9344848Y-16765984D01*
X9344848Y-16765984D02*
X9325801Y-16756460D01*
X9325801Y-16756460D02*
X9316277Y-16746936D01*
X9316277Y-16746936D02*
X9306753Y-16727888D01*
X9306753Y-16727888D02*
X9297229Y-16689793D01*
X9297229Y-16689793D02*
X9297229Y-16642174D01*
X9297229Y-16642174D02*
X9306753Y-16604079D01*
X9306753Y-16604079D02*
X9316277Y-16585031D01*
X9316277Y-16585031D02*
X9325801Y-16575508D01*
X9325801Y-16575508D02*
X9344848Y-16565984D01*
X9582944Y-16632650D02*
X9582944Y-16765984D01*
X9535325Y-16556460D02*
X9487706Y-16699317D01*
X9487706Y-16699317D02*
X9611515Y-16699317D01*
X9725801Y-16565984D02*
X9744849Y-16565984D01*
X9744849Y-16565984D02*
X9763896Y-16575508D01*
X9763896Y-16575508D02*
X9773420Y-16585031D01*
X9773420Y-16585031D02*
X9782944Y-16604079D01*
X9782944Y-16604079D02*
X9792468Y-16642174D01*
X9792468Y-16642174D02*
X9792468Y-16689793D01*
X9792468Y-16689793D02*
X9782944Y-16727888D01*
X9782944Y-16727888D02*
X9773420Y-16746936D01*
X9773420Y-16746936D02*
X9763896Y-16756460D01*
X9763896Y-16756460D02*
X9744849Y-16765984D01*
X9744849Y-16765984D02*
X9725801Y-16765984D01*
X9725801Y-16765984D02*
X9706753Y-16756460D01*
X9706753Y-16756460D02*
X9697229Y-16746936D01*
X9697229Y-16746936D02*
X9687706Y-16727888D01*
X9687706Y-16727888D02*
X9678182Y-16689793D01*
X9678182Y-16689793D02*
X9678182Y-16642174D01*
X9678182Y-16642174D02*
X9687706Y-16604079D01*
X9687706Y-16604079D02*
X9697229Y-16585031D01*
X9697229Y-16585031D02*
X9706753Y-16575508D01*
X9706753Y-16575508D02*
X9725801Y-16565984D01*
X9887706Y-16765984D02*
X9925801Y-16765984D01*
X9925801Y-16765984D02*
X9944849Y-16756460D01*
X9944849Y-16756460D02*
X9954372Y-16746936D01*
X9954372Y-16746936D02*
X9973420Y-16718365D01*
X9973420Y-16718365D02*
X9982944Y-16680269D01*
X9982944Y-16680269D02*
X9982944Y-16604079D01*
X9982944Y-16604079D02*
X9973420Y-16585031D01*
X9973420Y-16585031D02*
X9963896Y-16575508D01*
X9963896Y-16575508D02*
X9944849Y-16565984D01*
X9944849Y-16565984D02*
X9906753Y-16565984D01*
X9906753Y-16565984D02*
X9887706Y-16575508D01*
X9887706Y-16575508D02*
X9878182Y-16585031D01*
X9878182Y-16585031D02*
X9868658Y-16604079D01*
X9868658Y-16604079D02*
X9868658Y-16651698D01*
X9868658Y-16651698D02*
X9878182Y-16670746D01*
X9878182Y-16670746D02*
X9887706Y-16680269D01*
X9887706Y-16680269D02*
X9906753Y-16689793D01*
X9906753Y-16689793D02*
X9944849Y-16689793D01*
X9944849Y-16689793D02*
X9963896Y-16680269D01*
X9963896Y-16680269D02*
X9973420Y-16670746D01*
X9973420Y-16670746D02*
X9982944Y-16651698D01*
X10059134Y-16565984D02*
X10059134Y-16604079D01*
X10135325Y-16565984D02*
X10135325Y-16604079D01*
X10430563Y-16842174D02*
X10421039Y-16832650D01*
X10421039Y-16832650D02*
X10401991Y-16804079D01*
X10401991Y-16804079D02*
X10392468Y-16785031D01*
X10392468Y-16785031D02*
X10382944Y-16756460D01*
X10382944Y-16756460D02*
X10373420Y-16708841D01*
X10373420Y-16708841D02*
X10373420Y-16670746D01*
X10373420Y-16670746D02*
X10382944Y-16623127D01*
X10382944Y-16623127D02*
X10392468Y-16594555D01*
X10392468Y-16594555D02*
X10401991Y-16575508D01*
X10401991Y-16575508D02*
X10421039Y-16546936D01*
X10421039Y-16546936D02*
X10430563Y-16537412D01*
X10611515Y-16765984D02*
X10497230Y-16765984D01*
X10554372Y-16765984D02*
X10554372Y-16565984D01*
X10554372Y-16565984D02*
X10535325Y-16594555D01*
X10535325Y-16594555D02*
X10516277Y-16613603D01*
X10516277Y-16613603D02*
X10497230Y-16623127D01*
X10782944Y-16565984D02*
X10744849Y-16565984D01*
X10744849Y-16565984D02*
X10725801Y-16575508D01*
X10725801Y-16575508D02*
X10716277Y-16585031D01*
X10716277Y-16585031D02*
X10697230Y-16613603D01*
X10697230Y-16613603D02*
X10687706Y-16651698D01*
X10687706Y-16651698D02*
X10687706Y-16727888D01*
X10687706Y-16727888D02*
X10697230Y-16746936D01*
X10697230Y-16746936D02*
X10706753Y-16756460D01*
X10706753Y-16756460D02*
X10725801Y-16765984D01*
X10725801Y-16765984D02*
X10763896Y-16765984D01*
X10763896Y-16765984D02*
X10782944Y-16756460D01*
X10782944Y-16756460D02*
X10792468Y-16746936D01*
X10792468Y-16746936D02*
X10801991Y-16727888D01*
X10801991Y-16727888D02*
X10801991Y-16680269D01*
X10801991Y-16680269D02*
X10792468Y-16661222D01*
X10792468Y-16661222D02*
X10782944Y-16651698D01*
X10782944Y-16651698D02*
X10763896Y-16642174D01*
X10763896Y-16642174D02*
X10725801Y-16642174D01*
X10725801Y-16642174D02*
X10706753Y-16651698D01*
X10706753Y-16651698D02*
X10697230Y-16661222D01*
X10697230Y-16661222D02*
X10687706Y-16680269D01*
X11040087Y-16765984D02*
X11040087Y-16565984D01*
X11125801Y-16765984D02*
X11125801Y-16661222D01*
X11125801Y-16661222D02*
X11116277Y-16642174D01*
X11116277Y-16642174D02*
X11097230Y-16632650D01*
X11097230Y-16632650D02*
X11068658Y-16632650D01*
X11068658Y-16632650D02*
X11049611Y-16642174D01*
X11049611Y-16642174D02*
X11040087Y-16651698D01*
X11249610Y-16765984D02*
X11230563Y-16756460D01*
X11230563Y-16756460D02*
X11221039Y-16746936D01*
X11221039Y-16746936D02*
X11211515Y-16727888D01*
X11211515Y-16727888D02*
X11211515Y-16670746D01*
X11211515Y-16670746D02*
X11221039Y-16651698D01*
X11221039Y-16651698D02*
X11230563Y-16642174D01*
X11230563Y-16642174D02*
X11249610Y-16632650D01*
X11249610Y-16632650D02*
X11278182Y-16632650D01*
X11278182Y-16632650D02*
X11297230Y-16642174D01*
X11297230Y-16642174D02*
X11306753Y-16651698D01*
X11306753Y-16651698D02*
X11316277Y-16670746D01*
X11316277Y-16670746D02*
X11316277Y-16727888D01*
X11316277Y-16727888D02*
X11306753Y-16746936D01*
X11306753Y-16746936D02*
X11297230Y-16756460D01*
X11297230Y-16756460D02*
X11278182Y-16765984D01*
X11278182Y-16765984D02*
X11249610Y-16765984D01*
X11430563Y-16765984D02*
X11411515Y-16756460D01*
X11411515Y-16756460D02*
X11401991Y-16737412D01*
X11401991Y-16737412D02*
X11401991Y-16565984D01*
X11582944Y-16756460D02*
X11563896Y-16765984D01*
X11563896Y-16765984D02*
X11525801Y-16765984D01*
X11525801Y-16765984D02*
X11506753Y-16756460D01*
X11506753Y-16756460D02*
X11497230Y-16737412D01*
X11497230Y-16737412D02*
X11497230Y-16661222D01*
X11497230Y-16661222D02*
X11506753Y-16642174D01*
X11506753Y-16642174D02*
X11525801Y-16632650D01*
X11525801Y-16632650D02*
X11563896Y-16632650D01*
X11563896Y-16632650D02*
X11582944Y-16642174D01*
X11582944Y-16642174D02*
X11592468Y-16661222D01*
X11592468Y-16661222D02*
X11592468Y-16680269D01*
X11592468Y-16680269D02*
X11497230Y-16699317D01*
X11668658Y-16756460D02*
X11687706Y-16765984D01*
X11687706Y-16765984D02*
X11725801Y-16765984D01*
X11725801Y-16765984D02*
X11744849Y-16756460D01*
X11744849Y-16756460D02*
X11754372Y-16737412D01*
X11754372Y-16737412D02*
X11754372Y-16727888D01*
X11754372Y-16727888D02*
X11744849Y-16708841D01*
X11744849Y-16708841D02*
X11725801Y-16699317D01*
X11725801Y-16699317D02*
X11697230Y-16699317D01*
X11697230Y-16699317D02*
X11678182Y-16689793D01*
X11678182Y-16689793D02*
X11668658Y-16670746D01*
X11668658Y-16670746D02*
X11668658Y-16661222D01*
X11668658Y-16661222D02*
X11678182Y-16642174D01*
X11678182Y-16642174D02*
X11697230Y-16632650D01*
X11697230Y-16632650D02*
X11725801Y-16632650D01*
X11725801Y-16632650D02*
X11744849Y-16642174D01*
X11821039Y-16842174D02*
X11830563Y-16832650D01*
X11830563Y-16832650D02*
X11849611Y-16804079D01*
X11849611Y-16804079D02*
X11859134Y-16785031D01*
X11859134Y-16785031D02*
X11868658Y-16756460D01*
X11868658Y-16756460D02*
X11878182Y-16708841D01*
X11878182Y-16708841D02*
X11878182Y-16670746D01*
X11878182Y-16670746D02*
X11868658Y-16623127D01*
X11868658Y-16623127D02*
X11859134Y-16594555D01*
X11859134Y-16594555D02*
X11849611Y-16575508D01*
X11849611Y-16575508D02*
X11830563Y-16546936D01*
X11830563Y-16546936D02*
X11821039Y-16537412D01*
D14*
X6800500Y-16993500D02*
X6855500Y-16938500D01*
X6800500Y-16883500D01*
X6745500Y-16938500D01*
X6800500Y-16993500D01*
D11*
X7221039Y-17029984D02*
X7106753Y-17029984D01*
X7163896Y-17029984D02*
X7163896Y-16829984D01*
X7163896Y-16829984D02*
X7144848Y-16858555D01*
X7144848Y-16858555D02*
X7125801Y-16877603D01*
X7125801Y-16877603D02*
X7106753Y-16887127D01*
X7306753Y-17010936D02*
X7316277Y-17020460D01*
X7316277Y-17020460D02*
X7306753Y-17029984D01*
X7306753Y-17029984D02*
X7297229Y-17020460D01*
X7297229Y-17020460D02*
X7306753Y-17010936D01*
X7306753Y-17010936D02*
X7306753Y-17029984D01*
X7506753Y-17029984D02*
X7392467Y-17029984D01*
X7449610Y-17029984D02*
X7449610Y-16829984D01*
X7449610Y-16829984D02*
X7430562Y-16858555D01*
X7430562Y-16858555D02*
X7411515Y-16877603D01*
X7411515Y-16877603D02*
X7392467Y-16887127D01*
X7630562Y-16829984D02*
X7649610Y-16829984D01*
X7649610Y-16829984D02*
X7668658Y-16839508D01*
X7668658Y-16839508D02*
X7678182Y-16849031D01*
X7678182Y-16849031D02*
X7687705Y-16868079D01*
X7687705Y-16868079D02*
X7697229Y-16906174D01*
X7697229Y-16906174D02*
X7697229Y-16953793D01*
X7697229Y-16953793D02*
X7687705Y-16991889D01*
X7687705Y-16991889D02*
X7678182Y-17010936D01*
X7678182Y-17010936D02*
X7668658Y-17020460D01*
X7668658Y-17020460D02*
X7649610Y-17029984D01*
X7649610Y-17029984D02*
X7630562Y-17029984D01*
X7630562Y-17029984D02*
X7611515Y-17020460D01*
X7611515Y-17020460D02*
X7601991Y-17010936D01*
X7601991Y-17010936D02*
X7592467Y-16991889D01*
X7592467Y-16991889D02*
X7582943Y-16953793D01*
X7582943Y-16953793D02*
X7582943Y-16906174D01*
X7582943Y-16906174D02*
X7592467Y-16868079D01*
X7592467Y-16868079D02*
X7601991Y-16849031D01*
X7601991Y-16849031D02*
X7611515Y-16839508D01*
X7611515Y-16839508D02*
X7630562Y-16829984D01*
X7821039Y-16829984D02*
X7840086Y-16829984D01*
X7840086Y-16829984D02*
X7859134Y-16839508D01*
X7859134Y-16839508D02*
X7868658Y-16849031D01*
X7868658Y-16849031D02*
X7878182Y-16868079D01*
X7878182Y-16868079D02*
X7887705Y-16906174D01*
X7887705Y-16906174D02*
X7887705Y-16953793D01*
X7887705Y-16953793D02*
X7878182Y-16991889D01*
X7878182Y-16991889D02*
X7868658Y-17010936D01*
X7868658Y-17010936D02*
X7859134Y-17020460D01*
X7859134Y-17020460D02*
X7840086Y-17029984D01*
X7840086Y-17029984D02*
X7821039Y-17029984D01*
X7821039Y-17029984D02*
X7801991Y-17020460D01*
X7801991Y-17020460D02*
X7792467Y-17010936D01*
X7792467Y-17010936D02*
X7782943Y-16991889D01*
X7782943Y-16991889D02*
X7773420Y-16953793D01*
X7773420Y-16953793D02*
X7773420Y-16906174D01*
X7773420Y-16906174D02*
X7782943Y-16868079D01*
X7782943Y-16868079D02*
X7792467Y-16849031D01*
X7792467Y-16849031D02*
X7801991Y-16839508D01*
X7801991Y-16839508D02*
X7821039Y-16829984D01*
X7973420Y-17029984D02*
X7973420Y-16896650D01*
X7973420Y-16915698D02*
X7982943Y-16906174D01*
X7982943Y-16906174D02*
X8001991Y-16896650D01*
X8001991Y-16896650D02*
X8030563Y-16896650D01*
X8030563Y-16896650D02*
X8049610Y-16906174D01*
X8049610Y-16906174D02*
X8059134Y-16925222D01*
X8059134Y-16925222D02*
X8059134Y-17029984D01*
X8059134Y-16925222D02*
X8068658Y-16906174D01*
X8068658Y-16906174D02*
X8087705Y-16896650D01*
X8087705Y-16896650D02*
X8116277Y-16896650D01*
X8116277Y-16896650D02*
X8135324Y-16906174D01*
X8135324Y-16906174D02*
X8144848Y-16925222D01*
X8144848Y-16925222D02*
X8144848Y-17029984D01*
X8240086Y-17029984D02*
X8240086Y-16896650D01*
X8240086Y-16915698D02*
X8249610Y-16906174D01*
X8249610Y-16906174D02*
X8268658Y-16896650D01*
X8268658Y-16896650D02*
X8297229Y-16896650D01*
X8297229Y-16896650D02*
X8316277Y-16906174D01*
X8316277Y-16906174D02*
X8325801Y-16925222D01*
X8325801Y-16925222D02*
X8325801Y-17029984D01*
X8325801Y-16925222D02*
X8335324Y-16906174D01*
X8335324Y-16906174D02*
X8354372Y-16896650D01*
X8354372Y-16896650D02*
X8382943Y-16896650D01*
X8382943Y-16896650D02*
X8401991Y-16906174D01*
X8401991Y-16906174D02*
X8411515Y-16925222D01*
X8411515Y-16925222D02*
X8411515Y-17029984D01*
X8801991Y-16820460D02*
X8630563Y-17077603D01*
X9059134Y-16829984D02*
X9078182Y-16829984D01*
X9078182Y-16829984D02*
X9097229Y-16839508D01*
X9097229Y-16839508D02*
X9106753Y-16849031D01*
X9106753Y-16849031D02*
X9116277Y-16868079D01*
X9116277Y-16868079D02*
X9125801Y-16906174D01*
X9125801Y-16906174D02*
X9125801Y-16953793D01*
X9125801Y-16953793D02*
X9116277Y-16991889D01*
X9116277Y-16991889D02*
X9106753Y-17010936D01*
X9106753Y-17010936D02*
X9097229Y-17020460D01*
X9097229Y-17020460D02*
X9078182Y-17029984D01*
X9078182Y-17029984D02*
X9059134Y-17029984D01*
X9059134Y-17029984D02*
X9040087Y-17020460D01*
X9040087Y-17020460D02*
X9030563Y-17010936D01*
X9030563Y-17010936D02*
X9021039Y-16991889D01*
X9021039Y-16991889D02*
X9011515Y-16953793D01*
X9011515Y-16953793D02*
X9011515Y-16906174D01*
X9011515Y-16906174D02*
X9021039Y-16868079D01*
X9021039Y-16868079D02*
X9030563Y-16849031D01*
X9030563Y-16849031D02*
X9040087Y-16839508D01*
X9040087Y-16839508D02*
X9059134Y-16829984D01*
X9211515Y-17010936D02*
X9221039Y-17020460D01*
X9221039Y-17020460D02*
X9211515Y-17029984D01*
X9211515Y-17029984D02*
X9201991Y-17020460D01*
X9201991Y-17020460D02*
X9211515Y-17010936D01*
X9211515Y-17010936D02*
X9211515Y-17029984D01*
X9344848Y-16829984D02*
X9363896Y-16829984D01*
X9363896Y-16829984D02*
X9382944Y-16839508D01*
X9382944Y-16839508D02*
X9392468Y-16849031D01*
X9392468Y-16849031D02*
X9401991Y-16868079D01*
X9401991Y-16868079D02*
X9411515Y-16906174D01*
X9411515Y-16906174D02*
X9411515Y-16953793D01*
X9411515Y-16953793D02*
X9401991Y-16991889D01*
X9401991Y-16991889D02*
X9392468Y-17010936D01*
X9392468Y-17010936D02*
X9382944Y-17020460D01*
X9382944Y-17020460D02*
X9363896Y-17029984D01*
X9363896Y-17029984D02*
X9344848Y-17029984D01*
X9344848Y-17029984D02*
X9325801Y-17020460D01*
X9325801Y-17020460D02*
X9316277Y-17010936D01*
X9316277Y-17010936D02*
X9306753Y-16991889D01*
X9306753Y-16991889D02*
X9297229Y-16953793D01*
X9297229Y-16953793D02*
X9297229Y-16906174D01*
X9297229Y-16906174D02*
X9306753Y-16868079D01*
X9306753Y-16868079D02*
X9316277Y-16849031D01*
X9316277Y-16849031D02*
X9325801Y-16839508D01*
X9325801Y-16839508D02*
X9344848Y-16829984D01*
X9582944Y-16896650D02*
X9582944Y-17029984D01*
X9535325Y-16820460D02*
X9487706Y-16963317D01*
X9487706Y-16963317D02*
X9611515Y-16963317D01*
X9668658Y-16829984D02*
X9792468Y-16829984D01*
X9792468Y-16829984D02*
X9725801Y-16906174D01*
X9725801Y-16906174D02*
X9754372Y-16906174D01*
X9754372Y-16906174D02*
X9773420Y-16915698D01*
X9773420Y-16915698D02*
X9782944Y-16925222D01*
X9782944Y-16925222D02*
X9792468Y-16944270D01*
X9792468Y-16944270D02*
X9792468Y-16991889D01*
X9792468Y-16991889D02*
X9782944Y-17010936D01*
X9782944Y-17010936D02*
X9773420Y-17020460D01*
X9773420Y-17020460D02*
X9754372Y-17029984D01*
X9754372Y-17029984D02*
X9697229Y-17029984D01*
X9697229Y-17029984D02*
X9678182Y-17020460D01*
X9678182Y-17020460D02*
X9668658Y-17010936D01*
X9859134Y-16829984D02*
X9982944Y-16829984D01*
X9982944Y-16829984D02*
X9916277Y-16906174D01*
X9916277Y-16906174D02*
X9944849Y-16906174D01*
X9944849Y-16906174D02*
X9963896Y-16915698D01*
X9963896Y-16915698D02*
X9973420Y-16925222D01*
X9973420Y-16925222D02*
X9982944Y-16944270D01*
X9982944Y-16944270D02*
X9982944Y-16991889D01*
X9982944Y-16991889D02*
X9973420Y-17010936D01*
X9973420Y-17010936D02*
X9963896Y-17020460D01*
X9963896Y-17020460D02*
X9944849Y-17029984D01*
X9944849Y-17029984D02*
X9887706Y-17029984D01*
X9887706Y-17029984D02*
X9868658Y-17020460D01*
X9868658Y-17020460D02*
X9859134Y-17010936D01*
X10059134Y-16829984D02*
X10059134Y-16868079D01*
X10135325Y-16829984D02*
X10135325Y-16868079D01*
X10430563Y-17106174D02*
X10421039Y-17096650D01*
X10421039Y-17096650D02*
X10401991Y-17068079D01*
X10401991Y-17068079D02*
X10392468Y-17049031D01*
X10392468Y-17049031D02*
X10382944Y-17020460D01*
X10382944Y-17020460D02*
X10373420Y-16972841D01*
X10373420Y-16972841D02*
X10373420Y-16934746D01*
X10373420Y-16934746D02*
X10382944Y-16887127D01*
X10382944Y-16887127D02*
X10392468Y-16858555D01*
X10392468Y-16858555D02*
X10401991Y-16839508D01*
X10401991Y-16839508D02*
X10421039Y-16810936D01*
X10421039Y-16810936D02*
X10430563Y-16801412D01*
X10592468Y-16896650D02*
X10592468Y-17029984D01*
X10544849Y-16820460D02*
X10497230Y-16963317D01*
X10497230Y-16963317D02*
X10621039Y-16963317D01*
X10849611Y-17029984D02*
X10849611Y-16829984D01*
X10935325Y-17029984D02*
X10935325Y-16925222D01*
X10935325Y-16925222D02*
X10925801Y-16906174D01*
X10925801Y-16906174D02*
X10906753Y-16896650D01*
X10906753Y-16896650D02*
X10878182Y-16896650D01*
X10878182Y-16896650D02*
X10859134Y-16906174D01*
X10859134Y-16906174D02*
X10849611Y-16915698D01*
X11059134Y-17029984D02*
X11040087Y-17020460D01*
X11040087Y-17020460D02*
X11030563Y-17010936D01*
X11030563Y-17010936D02*
X11021039Y-16991889D01*
X11021039Y-16991889D02*
X11021039Y-16934746D01*
X11021039Y-16934746D02*
X11030563Y-16915698D01*
X11030563Y-16915698D02*
X11040087Y-16906174D01*
X11040087Y-16906174D02*
X11059134Y-16896650D01*
X11059134Y-16896650D02*
X11087706Y-16896650D01*
X11087706Y-16896650D02*
X11106753Y-16906174D01*
X11106753Y-16906174D02*
X11116277Y-16915698D01*
X11116277Y-16915698D02*
X11125801Y-16934746D01*
X11125801Y-16934746D02*
X11125801Y-16991889D01*
X11125801Y-16991889D02*
X11116277Y-17010936D01*
X11116277Y-17010936D02*
X11106753Y-17020460D01*
X11106753Y-17020460D02*
X11087706Y-17029984D01*
X11087706Y-17029984D02*
X11059134Y-17029984D01*
X11240087Y-17029984D02*
X11221039Y-17020460D01*
X11221039Y-17020460D02*
X11211515Y-17001412D01*
X11211515Y-17001412D02*
X11211515Y-16829984D01*
X11392468Y-17020460D02*
X11373420Y-17029984D01*
X11373420Y-17029984D02*
X11335325Y-17029984D01*
X11335325Y-17029984D02*
X11316277Y-17020460D01*
X11316277Y-17020460D02*
X11306753Y-17001412D01*
X11306753Y-17001412D02*
X11306753Y-16925222D01*
X11306753Y-16925222D02*
X11316277Y-16906174D01*
X11316277Y-16906174D02*
X11335325Y-16896650D01*
X11335325Y-16896650D02*
X11373420Y-16896650D01*
X11373420Y-16896650D02*
X11392468Y-16906174D01*
X11392468Y-16906174D02*
X11401991Y-16925222D01*
X11401991Y-16925222D02*
X11401991Y-16944270D01*
X11401991Y-16944270D02*
X11306753Y-16963317D01*
X11478182Y-17020460D02*
X11497230Y-17029984D01*
X11497230Y-17029984D02*
X11535325Y-17029984D01*
X11535325Y-17029984D02*
X11554372Y-17020460D01*
X11554372Y-17020460D02*
X11563896Y-17001412D01*
X11563896Y-17001412D02*
X11563896Y-16991889D01*
X11563896Y-16991889D02*
X11554372Y-16972841D01*
X11554372Y-16972841D02*
X11535325Y-16963317D01*
X11535325Y-16963317D02*
X11506753Y-16963317D01*
X11506753Y-16963317D02*
X11487706Y-16953793D01*
X11487706Y-16953793D02*
X11478182Y-16934746D01*
X11478182Y-16934746D02*
X11478182Y-16925222D01*
X11478182Y-16925222D02*
X11487706Y-16906174D01*
X11487706Y-16906174D02*
X11506753Y-16896650D01*
X11506753Y-16896650D02*
X11535325Y-16896650D01*
X11535325Y-16896650D02*
X11554372Y-16906174D01*
X11630563Y-17106174D02*
X11640087Y-17096650D01*
X11640087Y-17096650D02*
X11659134Y-17068079D01*
X11659134Y-17068079D02*
X11668658Y-17049031D01*
X11668658Y-17049031D02*
X11678182Y-17020460D01*
X11678182Y-17020460D02*
X11687706Y-16972841D01*
X11687706Y-16972841D02*
X11687706Y-16934746D01*
X11687706Y-16934746D02*
X11678182Y-16887127D01*
X11678182Y-16887127D02*
X11668658Y-16858555D01*
X11668658Y-16858555D02*
X11659134Y-16839508D01*
X11659134Y-16839508D02*
X11640087Y-16810936D01*
X11640087Y-16810936D02*
X11630563Y-16801412D01*
D15*
X6670500Y-17110000D02*
X6855500Y-17295000D01*
X6855500Y-17110000D02*
X6670500Y-17295000D01*
X6855500Y-17202500D02*
G75*
G03*
X6670500Y-17202500I-92500J0D01*
G01*
X6670500Y-17202500D02*
G75*
G03*
X6855500Y-17202500I92500J0D01*
G01*
D11*
X7221039Y-17293984D02*
X7106753Y-17293984D01*
X7163896Y-17293984D02*
X7163896Y-17093984D01*
X7163896Y-17093984D02*
X7144848Y-17122555D01*
X7144848Y-17122555D02*
X7125801Y-17141603D01*
X7125801Y-17141603D02*
X7106753Y-17151127D01*
X7306753Y-17274936D02*
X7316277Y-17284460D01*
X7316277Y-17284460D02*
X7306753Y-17293984D01*
X7306753Y-17293984D02*
X7297229Y-17284460D01*
X7297229Y-17284460D02*
X7306753Y-17274936D01*
X7306753Y-17274936D02*
X7306753Y-17293984D01*
X7430562Y-17179698D02*
X7411515Y-17170174D01*
X7411515Y-17170174D02*
X7401991Y-17160650D01*
X7401991Y-17160650D02*
X7392467Y-17141603D01*
X7392467Y-17141603D02*
X7392467Y-17132079D01*
X7392467Y-17132079D02*
X7401991Y-17113031D01*
X7401991Y-17113031D02*
X7411515Y-17103508D01*
X7411515Y-17103508D02*
X7430562Y-17093984D01*
X7430562Y-17093984D02*
X7468658Y-17093984D01*
X7468658Y-17093984D02*
X7487705Y-17103508D01*
X7487705Y-17103508D02*
X7497229Y-17113031D01*
X7497229Y-17113031D02*
X7506753Y-17132079D01*
X7506753Y-17132079D02*
X7506753Y-17141603D01*
X7506753Y-17141603D02*
X7497229Y-17160650D01*
X7497229Y-17160650D02*
X7487705Y-17170174D01*
X7487705Y-17170174D02*
X7468658Y-17179698D01*
X7468658Y-17179698D02*
X7430562Y-17179698D01*
X7430562Y-17179698D02*
X7411515Y-17189222D01*
X7411515Y-17189222D02*
X7401991Y-17198746D01*
X7401991Y-17198746D02*
X7392467Y-17217793D01*
X7392467Y-17217793D02*
X7392467Y-17255889D01*
X7392467Y-17255889D02*
X7401991Y-17274936D01*
X7401991Y-17274936D02*
X7411515Y-17284460D01*
X7411515Y-17284460D02*
X7430562Y-17293984D01*
X7430562Y-17293984D02*
X7468658Y-17293984D01*
X7468658Y-17293984D02*
X7487705Y-17284460D01*
X7487705Y-17284460D02*
X7497229Y-17274936D01*
X7497229Y-17274936D02*
X7506753Y-17255889D01*
X7506753Y-17255889D02*
X7506753Y-17217793D01*
X7506753Y-17217793D02*
X7497229Y-17198746D01*
X7497229Y-17198746D02*
X7487705Y-17189222D01*
X7487705Y-17189222D02*
X7468658Y-17179698D01*
X7687705Y-17093984D02*
X7592467Y-17093984D01*
X7592467Y-17093984D02*
X7582943Y-17189222D01*
X7582943Y-17189222D02*
X7592467Y-17179698D01*
X7592467Y-17179698D02*
X7611515Y-17170174D01*
X7611515Y-17170174D02*
X7659134Y-17170174D01*
X7659134Y-17170174D02*
X7678182Y-17179698D01*
X7678182Y-17179698D02*
X7687705Y-17189222D01*
X7687705Y-17189222D02*
X7697229Y-17208270D01*
X7697229Y-17208270D02*
X7697229Y-17255889D01*
X7697229Y-17255889D02*
X7687705Y-17274936D01*
X7687705Y-17274936D02*
X7678182Y-17284460D01*
X7678182Y-17284460D02*
X7659134Y-17293984D01*
X7659134Y-17293984D02*
X7611515Y-17293984D01*
X7611515Y-17293984D02*
X7592467Y-17284460D01*
X7592467Y-17284460D02*
X7582943Y-17274936D01*
X7821039Y-17093984D02*
X7840086Y-17093984D01*
X7840086Y-17093984D02*
X7859134Y-17103508D01*
X7859134Y-17103508D02*
X7868658Y-17113031D01*
X7868658Y-17113031D02*
X7878182Y-17132079D01*
X7878182Y-17132079D02*
X7887705Y-17170174D01*
X7887705Y-17170174D02*
X7887705Y-17217793D01*
X7887705Y-17217793D02*
X7878182Y-17255889D01*
X7878182Y-17255889D02*
X7868658Y-17274936D01*
X7868658Y-17274936D02*
X7859134Y-17284460D01*
X7859134Y-17284460D02*
X7840086Y-17293984D01*
X7840086Y-17293984D02*
X7821039Y-17293984D01*
X7821039Y-17293984D02*
X7801991Y-17284460D01*
X7801991Y-17284460D02*
X7792467Y-17274936D01*
X7792467Y-17274936D02*
X7782943Y-17255889D01*
X7782943Y-17255889D02*
X7773420Y-17217793D01*
X7773420Y-17217793D02*
X7773420Y-17170174D01*
X7773420Y-17170174D02*
X7782943Y-17132079D01*
X7782943Y-17132079D02*
X7792467Y-17113031D01*
X7792467Y-17113031D02*
X7801991Y-17103508D01*
X7801991Y-17103508D02*
X7821039Y-17093984D01*
X7973420Y-17293984D02*
X7973420Y-17160650D01*
X7973420Y-17179698D02*
X7982943Y-17170174D01*
X7982943Y-17170174D02*
X8001991Y-17160650D01*
X8001991Y-17160650D02*
X8030563Y-17160650D01*
X8030563Y-17160650D02*
X8049610Y-17170174D01*
X8049610Y-17170174D02*
X8059134Y-17189222D01*
X8059134Y-17189222D02*
X8059134Y-17293984D01*
X8059134Y-17189222D02*
X8068658Y-17170174D01*
X8068658Y-17170174D02*
X8087705Y-17160650D01*
X8087705Y-17160650D02*
X8116277Y-17160650D01*
X8116277Y-17160650D02*
X8135324Y-17170174D01*
X8135324Y-17170174D02*
X8144848Y-17189222D01*
X8144848Y-17189222D02*
X8144848Y-17293984D01*
X8240086Y-17293984D02*
X8240086Y-17160650D01*
X8240086Y-17179698D02*
X8249610Y-17170174D01*
X8249610Y-17170174D02*
X8268658Y-17160650D01*
X8268658Y-17160650D02*
X8297229Y-17160650D01*
X8297229Y-17160650D02*
X8316277Y-17170174D01*
X8316277Y-17170174D02*
X8325801Y-17189222D01*
X8325801Y-17189222D02*
X8325801Y-17293984D01*
X8325801Y-17189222D02*
X8335324Y-17170174D01*
X8335324Y-17170174D02*
X8354372Y-17160650D01*
X8354372Y-17160650D02*
X8382943Y-17160650D01*
X8382943Y-17160650D02*
X8401991Y-17170174D01*
X8401991Y-17170174D02*
X8411515Y-17189222D01*
X8411515Y-17189222D02*
X8411515Y-17293984D01*
X8801991Y-17084460D02*
X8630563Y-17341603D01*
X9059134Y-17093984D02*
X9078182Y-17093984D01*
X9078182Y-17093984D02*
X9097229Y-17103508D01*
X9097229Y-17103508D02*
X9106753Y-17113031D01*
X9106753Y-17113031D02*
X9116277Y-17132079D01*
X9116277Y-17132079D02*
X9125801Y-17170174D01*
X9125801Y-17170174D02*
X9125801Y-17217793D01*
X9125801Y-17217793D02*
X9116277Y-17255889D01*
X9116277Y-17255889D02*
X9106753Y-17274936D01*
X9106753Y-17274936D02*
X9097229Y-17284460D01*
X9097229Y-17284460D02*
X9078182Y-17293984D01*
X9078182Y-17293984D02*
X9059134Y-17293984D01*
X9059134Y-17293984D02*
X9040087Y-17284460D01*
X9040087Y-17284460D02*
X9030563Y-17274936D01*
X9030563Y-17274936D02*
X9021039Y-17255889D01*
X9021039Y-17255889D02*
X9011515Y-17217793D01*
X9011515Y-17217793D02*
X9011515Y-17170174D01*
X9011515Y-17170174D02*
X9021039Y-17132079D01*
X9021039Y-17132079D02*
X9030563Y-17113031D01*
X9030563Y-17113031D02*
X9040087Y-17103508D01*
X9040087Y-17103508D02*
X9059134Y-17093984D01*
X9211515Y-17274936D02*
X9221039Y-17284460D01*
X9221039Y-17284460D02*
X9211515Y-17293984D01*
X9211515Y-17293984D02*
X9201991Y-17284460D01*
X9201991Y-17284460D02*
X9211515Y-17274936D01*
X9211515Y-17274936D02*
X9211515Y-17293984D01*
X9344848Y-17093984D02*
X9363896Y-17093984D01*
X9363896Y-17093984D02*
X9382944Y-17103508D01*
X9382944Y-17103508D02*
X9392468Y-17113031D01*
X9392468Y-17113031D02*
X9401991Y-17132079D01*
X9401991Y-17132079D02*
X9411515Y-17170174D01*
X9411515Y-17170174D02*
X9411515Y-17217793D01*
X9411515Y-17217793D02*
X9401991Y-17255889D01*
X9401991Y-17255889D02*
X9392468Y-17274936D01*
X9392468Y-17274936D02*
X9382944Y-17284460D01*
X9382944Y-17284460D02*
X9363896Y-17293984D01*
X9363896Y-17293984D02*
X9344848Y-17293984D01*
X9344848Y-17293984D02*
X9325801Y-17284460D01*
X9325801Y-17284460D02*
X9316277Y-17274936D01*
X9316277Y-17274936D02*
X9306753Y-17255889D01*
X9306753Y-17255889D02*
X9297229Y-17217793D01*
X9297229Y-17217793D02*
X9297229Y-17170174D01*
X9297229Y-17170174D02*
X9306753Y-17132079D01*
X9306753Y-17132079D02*
X9316277Y-17113031D01*
X9316277Y-17113031D02*
X9325801Y-17103508D01*
X9325801Y-17103508D02*
X9344848Y-17093984D01*
X9478182Y-17093984D02*
X9611515Y-17093984D01*
X9611515Y-17093984D02*
X9525801Y-17293984D01*
X9678182Y-17113031D02*
X9687706Y-17103508D01*
X9687706Y-17103508D02*
X9706753Y-17093984D01*
X9706753Y-17093984D02*
X9754372Y-17093984D01*
X9754372Y-17093984D02*
X9773420Y-17103508D01*
X9773420Y-17103508D02*
X9782944Y-17113031D01*
X9782944Y-17113031D02*
X9792468Y-17132079D01*
X9792468Y-17132079D02*
X9792468Y-17151127D01*
X9792468Y-17151127D02*
X9782944Y-17179698D01*
X9782944Y-17179698D02*
X9668658Y-17293984D01*
X9668658Y-17293984D02*
X9792468Y-17293984D01*
X9906753Y-17179698D02*
X9887706Y-17170174D01*
X9887706Y-17170174D02*
X9878182Y-17160650D01*
X9878182Y-17160650D02*
X9868658Y-17141603D01*
X9868658Y-17141603D02*
X9868658Y-17132079D01*
X9868658Y-17132079D02*
X9878182Y-17113031D01*
X9878182Y-17113031D02*
X9887706Y-17103508D01*
X9887706Y-17103508D02*
X9906753Y-17093984D01*
X9906753Y-17093984D02*
X9944849Y-17093984D01*
X9944849Y-17093984D02*
X9963896Y-17103508D01*
X9963896Y-17103508D02*
X9973420Y-17113031D01*
X9973420Y-17113031D02*
X9982944Y-17132079D01*
X9982944Y-17132079D02*
X9982944Y-17141603D01*
X9982944Y-17141603D02*
X9973420Y-17160650D01*
X9973420Y-17160650D02*
X9963896Y-17170174D01*
X9963896Y-17170174D02*
X9944849Y-17179698D01*
X9944849Y-17179698D02*
X9906753Y-17179698D01*
X9906753Y-17179698D02*
X9887706Y-17189222D01*
X9887706Y-17189222D02*
X9878182Y-17198746D01*
X9878182Y-17198746D02*
X9868658Y-17217793D01*
X9868658Y-17217793D02*
X9868658Y-17255889D01*
X9868658Y-17255889D02*
X9878182Y-17274936D01*
X9878182Y-17274936D02*
X9887706Y-17284460D01*
X9887706Y-17284460D02*
X9906753Y-17293984D01*
X9906753Y-17293984D02*
X9944849Y-17293984D01*
X9944849Y-17293984D02*
X9963896Y-17284460D01*
X9963896Y-17284460D02*
X9973420Y-17274936D01*
X9973420Y-17274936D02*
X9982944Y-17255889D01*
X9982944Y-17255889D02*
X9982944Y-17217793D01*
X9982944Y-17217793D02*
X9973420Y-17198746D01*
X9973420Y-17198746D02*
X9963896Y-17189222D01*
X9963896Y-17189222D02*
X9944849Y-17179698D01*
X10059134Y-17093984D02*
X10059134Y-17132079D01*
X10135325Y-17093984D02*
X10135325Y-17132079D01*
X10430563Y-17370174D02*
X10421039Y-17360650D01*
X10421039Y-17360650D02*
X10401991Y-17332079D01*
X10401991Y-17332079D02*
X10392468Y-17313031D01*
X10392468Y-17313031D02*
X10382944Y-17284460D01*
X10382944Y-17284460D02*
X10373420Y-17236841D01*
X10373420Y-17236841D02*
X10373420Y-17198746D01*
X10373420Y-17198746D02*
X10382944Y-17151127D01*
X10382944Y-17151127D02*
X10392468Y-17122555D01*
X10392468Y-17122555D02*
X10401991Y-17103508D01*
X10401991Y-17103508D02*
X10421039Y-17074936D01*
X10421039Y-17074936D02*
X10430563Y-17065412D01*
X10487706Y-17093984D02*
X10611515Y-17093984D01*
X10611515Y-17093984D02*
X10544849Y-17170174D01*
X10544849Y-17170174D02*
X10573420Y-17170174D01*
X10573420Y-17170174D02*
X10592468Y-17179698D01*
X10592468Y-17179698D02*
X10601991Y-17189222D01*
X10601991Y-17189222D02*
X10611515Y-17208270D01*
X10611515Y-17208270D02*
X10611515Y-17255889D01*
X10611515Y-17255889D02*
X10601991Y-17274936D01*
X10601991Y-17274936D02*
X10592468Y-17284460D01*
X10592468Y-17284460D02*
X10573420Y-17293984D01*
X10573420Y-17293984D02*
X10516277Y-17293984D01*
X10516277Y-17293984D02*
X10497230Y-17284460D01*
X10497230Y-17284460D02*
X10487706Y-17274936D01*
X10849611Y-17293984D02*
X10849611Y-17093984D01*
X10935325Y-17293984D02*
X10935325Y-17189222D01*
X10935325Y-17189222D02*
X10925801Y-17170174D01*
X10925801Y-17170174D02*
X10906753Y-17160650D01*
X10906753Y-17160650D02*
X10878182Y-17160650D01*
X10878182Y-17160650D02*
X10859134Y-17170174D01*
X10859134Y-17170174D02*
X10849611Y-17179698D01*
X11059134Y-17293984D02*
X11040087Y-17284460D01*
X11040087Y-17284460D02*
X11030563Y-17274936D01*
X11030563Y-17274936D02*
X11021039Y-17255889D01*
X11021039Y-17255889D02*
X11021039Y-17198746D01*
X11021039Y-17198746D02*
X11030563Y-17179698D01*
X11030563Y-17179698D02*
X11040087Y-17170174D01*
X11040087Y-17170174D02*
X11059134Y-17160650D01*
X11059134Y-17160650D02*
X11087706Y-17160650D01*
X11087706Y-17160650D02*
X11106753Y-17170174D01*
X11106753Y-17170174D02*
X11116277Y-17179698D01*
X11116277Y-17179698D02*
X11125801Y-17198746D01*
X11125801Y-17198746D02*
X11125801Y-17255889D01*
X11125801Y-17255889D02*
X11116277Y-17274936D01*
X11116277Y-17274936D02*
X11106753Y-17284460D01*
X11106753Y-17284460D02*
X11087706Y-17293984D01*
X11087706Y-17293984D02*
X11059134Y-17293984D01*
X11240087Y-17293984D02*
X11221039Y-17284460D01*
X11221039Y-17284460D02*
X11211515Y-17265412D01*
X11211515Y-17265412D02*
X11211515Y-17093984D01*
X11392468Y-17284460D02*
X11373420Y-17293984D01*
X11373420Y-17293984D02*
X11335325Y-17293984D01*
X11335325Y-17293984D02*
X11316277Y-17284460D01*
X11316277Y-17284460D02*
X11306753Y-17265412D01*
X11306753Y-17265412D02*
X11306753Y-17189222D01*
X11306753Y-17189222D02*
X11316277Y-17170174D01*
X11316277Y-17170174D02*
X11335325Y-17160650D01*
X11335325Y-17160650D02*
X11373420Y-17160650D01*
X11373420Y-17160650D02*
X11392468Y-17170174D01*
X11392468Y-17170174D02*
X11401991Y-17189222D01*
X11401991Y-17189222D02*
X11401991Y-17208270D01*
X11401991Y-17208270D02*
X11306753Y-17227317D01*
X11478182Y-17284460D02*
X11497230Y-17293984D01*
X11497230Y-17293984D02*
X11535325Y-17293984D01*
X11535325Y-17293984D02*
X11554372Y-17284460D01*
X11554372Y-17284460D02*
X11563896Y-17265412D01*
X11563896Y-17265412D02*
X11563896Y-17255889D01*
X11563896Y-17255889D02*
X11554372Y-17236841D01*
X11554372Y-17236841D02*
X11535325Y-17227317D01*
X11535325Y-17227317D02*
X11506753Y-17227317D01*
X11506753Y-17227317D02*
X11487706Y-17217793D01*
X11487706Y-17217793D02*
X11478182Y-17198746D01*
X11478182Y-17198746D02*
X11478182Y-17189222D01*
X11478182Y-17189222D02*
X11487706Y-17170174D01*
X11487706Y-17170174D02*
X11506753Y-17160650D01*
X11506753Y-17160650D02*
X11535325Y-17160650D01*
X11535325Y-17160650D02*
X11554372Y-17170174D01*
X11630563Y-17370174D02*
X11640087Y-17360650D01*
X11640087Y-17360650D02*
X11659134Y-17332079D01*
X11659134Y-17332079D02*
X11668658Y-17313031D01*
X11668658Y-17313031D02*
X11678182Y-17284460D01*
X11678182Y-17284460D02*
X11687706Y-17236841D01*
X11687706Y-17236841D02*
X11687706Y-17198746D01*
X11687706Y-17198746D02*
X11678182Y-17151127D01*
X11678182Y-17151127D02*
X11668658Y-17122555D01*
X11668658Y-17122555D02*
X11659134Y-17103508D01*
X11659134Y-17103508D02*
X11640087Y-17074936D01*
X11640087Y-17074936D02*
X11630563Y-17065412D01*
X6655500Y-17407500D02*
X6855500Y-17607500D01*
X6855500Y-17407500D02*
X6655500Y-17607500D01*
X6755500Y-17407500D02*
X6755500Y-17607500D01*
X6655500Y-17507500D02*
X6855500Y-17507500D01*
X7097229Y-17398984D02*
X7221039Y-17398984D01*
X7221039Y-17398984D02*
X7154372Y-17475174D01*
X7154372Y-17475174D02*
X7182943Y-17475174D01*
X7182943Y-17475174D02*
X7201991Y-17484698D01*
X7201991Y-17484698D02*
X7211515Y-17494222D01*
X7211515Y-17494222D02*
X7221039Y-17513270D01*
X7221039Y-17513270D02*
X7221039Y-17560889D01*
X7221039Y-17560889D02*
X7211515Y-17579936D01*
X7211515Y-17579936D02*
X7201991Y-17589460D01*
X7201991Y-17589460D02*
X7182943Y-17598984D01*
X7182943Y-17598984D02*
X7125801Y-17598984D01*
X7125801Y-17598984D02*
X7106753Y-17589460D01*
X7106753Y-17589460D02*
X7097229Y-17579936D01*
X7306753Y-17579936D02*
X7316277Y-17589460D01*
X7316277Y-17589460D02*
X7306753Y-17598984D01*
X7306753Y-17598984D02*
X7297229Y-17589460D01*
X7297229Y-17589460D02*
X7306753Y-17579936D01*
X7306753Y-17579936D02*
X7306753Y-17598984D01*
X7411515Y-17598984D02*
X7449610Y-17598984D01*
X7449610Y-17598984D02*
X7468658Y-17589460D01*
X7468658Y-17589460D02*
X7478182Y-17579936D01*
X7478182Y-17579936D02*
X7497229Y-17551365D01*
X7497229Y-17551365D02*
X7506753Y-17513270D01*
X7506753Y-17513270D02*
X7506753Y-17437079D01*
X7506753Y-17437079D02*
X7497229Y-17418031D01*
X7497229Y-17418031D02*
X7487705Y-17408508D01*
X7487705Y-17408508D02*
X7468658Y-17398984D01*
X7468658Y-17398984D02*
X7430562Y-17398984D01*
X7430562Y-17398984D02*
X7411515Y-17408508D01*
X7411515Y-17408508D02*
X7401991Y-17418031D01*
X7401991Y-17418031D02*
X7392467Y-17437079D01*
X7392467Y-17437079D02*
X7392467Y-17484698D01*
X7392467Y-17484698D02*
X7401991Y-17503746D01*
X7401991Y-17503746D02*
X7411515Y-17513270D01*
X7411515Y-17513270D02*
X7430562Y-17522793D01*
X7430562Y-17522793D02*
X7468658Y-17522793D01*
X7468658Y-17522793D02*
X7487705Y-17513270D01*
X7487705Y-17513270D02*
X7497229Y-17503746D01*
X7497229Y-17503746D02*
X7506753Y-17484698D01*
X7630562Y-17398984D02*
X7649610Y-17398984D01*
X7649610Y-17398984D02*
X7668658Y-17408508D01*
X7668658Y-17408508D02*
X7678182Y-17418031D01*
X7678182Y-17418031D02*
X7687705Y-17437079D01*
X7687705Y-17437079D02*
X7697229Y-17475174D01*
X7697229Y-17475174D02*
X7697229Y-17522793D01*
X7697229Y-17522793D02*
X7687705Y-17560889D01*
X7687705Y-17560889D02*
X7678182Y-17579936D01*
X7678182Y-17579936D02*
X7668658Y-17589460D01*
X7668658Y-17589460D02*
X7649610Y-17598984D01*
X7649610Y-17598984D02*
X7630562Y-17598984D01*
X7630562Y-17598984D02*
X7611515Y-17589460D01*
X7611515Y-17589460D02*
X7601991Y-17579936D01*
X7601991Y-17579936D02*
X7592467Y-17560889D01*
X7592467Y-17560889D02*
X7582943Y-17522793D01*
X7582943Y-17522793D02*
X7582943Y-17475174D01*
X7582943Y-17475174D02*
X7592467Y-17437079D01*
X7592467Y-17437079D02*
X7601991Y-17418031D01*
X7601991Y-17418031D02*
X7611515Y-17408508D01*
X7611515Y-17408508D02*
X7630562Y-17398984D01*
X7821039Y-17398984D02*
X7840086Y-17398984D01*
X7840086Y-17398984D02*
X7859134Y-17408508D01*
X7859134Y-17408508D02*
X7868658Y-17418031D01*
X7868658Y-17418031D02*
X7878182Y-17437079D01*
X7878182Y-17437079D02*
X7887705Y-17475174D01*
X7887705Y-17475174D02*
X7887705Y-17522793D01*
X7887705Y-17522793D02*
X7878182Y-17560889D01*
X7878182Y-17560889D02*
X7868658Y-17579936D01*
X7868658Y-17579936D02*
X7859134Y-17589460D01*
X7859134Y-17589460D02*
X7840086Y-17598984D01*
X7840086Y-17598984D02*
X7821039Y-17598984D01*
X7821039Y-17598984D02*
X7801991Y-17589460D01*
X7801991Y-17589460D02*
X7792467Y-17579936D01*
X7792467Y-17579936D02*
X7782943Y-17560889D01*
X7782943Y-17560889D02*
X7773420Y-17522793D01*
X7773420Y-17522793D02*
X7773420Y-17475174D01*
X7773420Y-17475174D02*
X7782943Y-17437079D01*
X7782943Y-17437079D02*
X7792467Y-17418031D01*
X7792467Y-17418031D02*
X7801991Y-17408508D01*
X7801991Y-17408508D02*
X7821039Y-17398984D01*
X7973420Y-17598984D02*
X7973420Y-17465650D01*
X7973420Y-17484698D02*
X7982943Y-17475174D01*
X7982943Y-17475174D02*
X8001991Y-17465650D01*
X8001991Y-17465650D02*
X8030563Y-17465650D01*
X8030563Y-17465650D02*
X8049610Y-17475174D01*
X8049610Y-17475174D02*
X8059134Y-17494222D01*
X8059134Y-17494222D02*
X8059134Y-17598984D01*
X8059134Y-17494222D02*
X8068658Y-17475174D01*
X8068658Y-17475174D02*
X8087705Y-17465650D01*
X8087705Y-17465650D02*
X8116277Y-17465650D01*
X8116277Y-17465650D02*
X8135324Y-17475174D01*
X8135324Y-17475174D02*
X8144848Y-17494222D01*
X8144848Y-17494222D02*
X8144848Y-17598984D01*
X8240086Y-17598984D02*
X8240086Y-17465650D01*
X8240086Y-17484698D02*
X8249610Y-17475174D01*
X8249610Y-17475174D02*
X8268658Y-17465650D01*
X8268658Y-17465650D02*
X8297229Y-17465650D01*
X8297229Y-17465650D02*
X8316277Y-17475174D01*
X8316277Y-17475174D02*
X8325801Y-17494222D01*
X8325801Y-17494222D02*
X8325801Y-17598984D01*
X8325801Y-17494222D02*
X8335324Y-17475174D01*
X8335324Y-17475174D02*
X8354372Y-17465650D01*
X8354372Y-17465650D02*
X8382943Y-17465650D01*
X8382943Y-17465650D02*
X8401991Y-17475174D01*
X8401991Y-17475174D02*
X8411515Y-17494222D01*
X8411515Y-17494222D02*
X8411515Y-17598984D01*
X8801991Y-17389460D02*
X8630563Y-17646603D01*
X9059134Y-17398984D02*
X9078182Y-17398984D01*
X9078182Y-17398984D02*
X9097229Y-17408508D01*
X9097229Y-17408508D02*
X9106753Y-17418031D01*
X9106753Y-17418031D02*
X9116277Y-17437079D01*
X9116277Y-17437079D02*
X9125801Y-17475174D01*
X9125801Y-17475174D02*
X9125801Y-17522793D01*
X9125801Y-17522793D02*
X9116277Y-17560889D01*
X9116277Y-17560889D02*
X9106753Y-17579936D01*
X9106753Y-17579936D02*
X9097229Y-17589460D01*
X9097229Y-17589460D02*
X9078182Y-17598984D01*
X9078182Y-17598984D02*
X9059134Y-17598984D01*
X9059134Y-17598984D02*
X9040087Y-17589460D01*
X9040087Y-17589460D02*
X9030563Y-17579936D01*
X9030563Y-17579936D02*
X9021039Y-17560889D01*
X9021039Y-17560889D02*
X9011515Y-17522793D01*
X9011515Y-17522793D02*
X9011515Y-17475174D01*
X9011515Y-17475174D02*
X9021039Y-17437079D01*
X9021039Y-17437079D02*
X9030563Y-17418031D01*
X9030563Y-17418031D02*
X9040087Y-17408508D01*
X9040087Y-17408508D02*
X9059134Y-17398984D01*
X9211515Y-17579936D02*
X9221039Y-17589460D01*
X9221039Y-17589460D02*
X9211515Y-17598984D01*
X9211515Y-17598984D02*
X9201991Y-17589460D01*
X9201991Y-17589460D02*
X9211515Y-17579936D01*
X9211515Y-17579936D02*
X9211515Y-17598984D01*
X9411515Y-17598984D02*
X9297229Y-17598984D01*
X9354372Y-17598984D02*
X9354372Y-17398984D01*
X9354372Y-17398984D02*
X9335325Y-17427555D01*
X9335325Y-17427555D02*
X9316277Y-17446603D01*
X9316277Y-17446603D02*
X9297229Y-17456127D01*
X9592468Y-17398984D02*
X9497229Y-17398984D01*
X9497229Y-17398984D02*
X9487706Y-17494222D01*
X9487706Y-17494222D02*
X9497229Y-17484698D01*
X9497229Y-17484698D02*
X9516277Y-17475174D01*
X9516277Y-17475174D02*
X9563896Y-17475174D01*
X9563896Y-17475174D02*
X9582944Y-17484698D01*
X9582944Y-17484698D02*
X9592468Y-17494222D01*
X9592468Y-17494222D02*
X9601991Y-17513270D01*
X9601991Y-17513270D02*
X9601991Y-17560889D01*
X9601991Y-17560889D02*
X9592468Y-17579936D01*
X9592468Y-17579936D02*
X9582944Y-17589460D01*
X9582944Y-17589460D02*
X9563896Y-17598984D01*
X9563896Y-17598984D02*
X9516277Y-17598984D01*
X9516277Y-17598984D02*
X9497229Y-17589460D01*
X9497229Y-17589460D02*
X9487706Y-17579936D01*
X9668658Y-17398984D02*
X9792468Y-17398984D01*
X9792468Y-17398984D02*
X9725801Y-17475174D01*
X9725801Y-17475174D02*
X9754372Y-17475174D01*
X9754372Y-17475174D02*
X9773420Y-17484698D01*
X9773420Y-17484698D02*
X9782944Y-17494222D01*
X9782944Y-17494222D02*
X9792468Y-17513270D01*
X9792468Y-17513270D02*
X9792468Y-17560889D01*
X9792468Y-17560889D02*
X9782944Y-17579936D01*
X9782944Y-17579936D02*
X9773420Y-17589460D01*
X9773420Y-17589460D02*
X9754372Y-17598984D01*
X9754372Y-17598984D02*
X9697229Y-17598984D01*
X9697229Y-17598984D02*
X9678182Y-17589460D01*
X9678182Y-17589460D02*
X9668658Y-17579936D01*
X9973420Y-17398984D02*
X9878182Y-17398984D01*
X9878182Y-17398984D02*
X9868658Y-17494222D01*
X9868658Y-17494222D02*
X9878182Y-17484698D01*
X9878182Y-17484698D02*
X9897229Y-17475174D01*
X9897229Y-17475174D02*
X9944849Y-17475174D01*
X9944849Y-17475174D02*
X9963896Y-17484698D01*
X9963896Y-17484698D02*
X9973420Y-17494222D01*
X9973420Y-17494222D02*
X9982944Y-17513270D01*
X9982944Y-17513270D02*
X9982944Y-17560889D01*
X9982944Y-17560889D02*
X9973420Y-17579936D01*
X9973420Y-17579936D02*
X9963896Y-17589460D01*
X9963896Y-17589460D02*
X9944849Y-17598984D01*
X9944849Y-17598984D02*
X9897229Y-17598984D01*
X9897229Y-17598984D02*
X9878182Y-17589460D01*
X9878182Y-17589460D02*
X9868658Y-17579936D01*
X10059134Y-17398984D02*
X10059134Y-17437079D01*
X10135325Y-17398984D02*
X10135325Y-17437079D01*
X10430563Y-17675174D02*
X10421039Y-17665650D01*
X10421039Y-17665650D02*
X10401991Y-17637079D01*
X10401991Y-17637079D02*
X10392468Y-17618031D01*
X10392468Y-17618031D02*
X10382944Y-17589460D01*
X10382944Y-17589460D02*
X10373420Y-17541841D01*
X10373420Y-17541841D02*
X10373420Y-17503746D01*
X10373420Y-17503746D02*
X10382944Y-17456127D01*
X10382944Y-17456127D02*
X10392468Y-17427555D01*
X10392468Y-17427555D02*
X10401991Y-17408508D01*
X10401991Y-17408508D02*
X10421039Y-17379936D01*
X10421039Y-17379936D02*
X10430563Y-17370412D01*
X10497230Y-17418031D02*
X10506753Y-17408508D01*
X10506753Y-17408508D02*
X10525801Y-17398984D01*
X10525801Y-17398984D02*
X10573420Y-17398984D01*
X10573420Y-17398984D02*
X10592468Y-17408508D01*
X10592468Y-17408508D02*
X10601991Y-17418031D01*
X10601991Y-17418031D02*
X10611515Y-17437079D01*
X10611515Y-17437079D02*
X10611515Y-17456127D01*
X10611515Y-17456127D02*
X10601991Y-17484698D01*
X10601991Y-17484698D02*
X10487706Y-17598984D01*
X10487706Y-17598984D02*
X10611515Y-17598984D01*
X10735325Y-17398984D02*
X10754372Y-17398984D01*
X10754372Y-17398984D02*
X10773420Y-17408508D01*
X10773420Y-17408508D02*
X10782944Y-17418031D01*
X10782944Y-17418031D02*
X10792468Y-17437079D01*
X10792468Y-17437079D02*
X10801991Y-17475174D01*
X10801991Y-17475174D02*
X10801991Y-17522793D01*
X10801991Y-17522793D02*
X10792468Y-17560889D01*
X10792468Y-17560889D02*
X10782944Y-17579936D01*
X10782944Y-17579936D02*
X10773420Y-17589460D01*
X10773420Y-17589460D02*
X10754372Y-17598984D01*
X10754372Y-17598984D02*
X10735325Y-17598984D01*
X10735325Y-17598984D02*
X10716277Y-17589460D01*
X10716277Y-17589460D02*
X10706753Y-17579936D01*
X10706753Y-17579936D02*
X10697230Y-17560889D01*
X10697230Y-17560889D02*
X10687706Y-17522793D01*
X10687706Y-17522793D02*
X10687706Y-17475174D01*
X10687706Y-17475174D02*
X10697230Y-17437079D01*
X10697230Y-17437079D02*
X10706753Y-17418031D01*
X10706753Y-17418031D02*
X10716277Y-17408508D01*
X10716277Y-17408508D02*
X10735325Y-17398984D01*
X11040087Y-17598984D02*
X11040087Y-17398984D01*
X11125801Y-17598984D02*
X11125801Y-17494222D01*
X11125801Y-17494222D02*
X11116277Y-17475174D01*
X11116277Y-17475174D02*
X11097230Y-17465650D01*
X11097230Y-17465650D02*
X11068658Y-17465650D01*
X11068658Y-17465650D02*
X11049611Y-17475174D01*
X11049611Y-17475174D02*
X11040087Y-17484698D01*
X11249610Y-17598984D02*
X11230563Y-17589460D01*
X11230563Y-17589460D02*
X11221039Y-17579936D01*
X11221039Y-17579936D02*
X11211515Y-17560889D01*
X11211515Y-17560889D02*
X11211515Y-17503746D01*
X11211515Y-17503746D02*
X11221039Y-17484698D01*
X11221039Y-17484698D02*
X11230563Y-17475174D01*
X11230563Y-17475174D02*
X11249610Y-17465650D01*
X11249610Y-17465650D02*
X11278182Y-17465650D01*
X11278182Y-17465650D02*
X11297230Y-17475174D01*
X11297230Y-17475174D02*
X11306753Y-17484698D01*
X11306753Y-17484698D02*
X11316277Y-17503746D01*
X11316277Y-17503746D02*
X11316277Y-17560889D01*
X11316277Y-17560889D02*
X11306753Y-17579936D01*
X11306753Y-17579936D02*
X11297230Y-17589460D01*
X11297230Y-17589460D02*
X11278182Y-17598984D01*
X11278182Y-17598984D02*
X11249610Y-17598984D01*
X11430563Y-17598984D02*
X11411515Y-17589460D01*
X11411515Y-17589460D02*
X11401991Y-17570412D01*
X11401991Y-17570412D02*
X11401991Y-17398984D01*
X11582944Y-17589460D02*
X11563896Y-17598984D01*
X11563896Y-17598984D02*
X11525801Y-17598984D01*
X11525801Y-17598984D02*
X11506753Y-17589460D01*
X11506753Y-17589460D02*
X11497230Y-17570412D01*
X11497230Y-17570412D02*
X11497230Y-17494222D01*
X11497230Y-17494222D02*
X11506753Y-17475174D01*
X11506753Y-17475174D02*
X11525801Y-17465650D01*
X11525801Y-17465650D02*
X11563896Y-17465650D01*
X11563896Y-17465650D02*
X11582944Y-17475174D01*
X11582944Y-17475174D02*
X11592468Y-17494222D01*
X11592468Y-17494222D02*
X11592468Y-17513270D01*
X11592468Y-17513270D02*
X11497230Y-17532317D01*
X11668658Y-17589460D02*
X11687706Y-17598984D01*
X11687706Y-17598984D02*
X11725801Y-17598984D01*
X11725801Y-17598984D02*
X11744849Y-17589460D01*
X11744849Y-17589460D02*
X11754372Y-17570412D01*
X11754372Y-17570412D02*
X11754372Y-17560889D01*
X11754372Y-17560889D02*
X11744849Y-17541841D01*
X11744849Y-17541841D02*
X11725801Y-17532317D01*
X11725801Y-17532317D02*
X11697230Y-17532317D01*
X11697230Y-17532317D02*
X11678182Y-17522793D01*
X11678182Y-17522793D02*
X11668658Y-17503746D01*
X11668658Y-17503746D02*
X11668658Y-17494222D01*
X11668658Y-17494222D02*
X11678182Y-17475174D01*
X11678182Y-17475174D02*
X11697230Y-17465650D01*
X11697230Y-17465650D02*
X11725801Y-17465650D01*
X11725801Y-17465650D02*
X11744849Y-17475174D01*
X11821039Y-17675174D02*
X11830563Y-17665650D01*
X11830563Y-17665650D02*
X11849611Y-17637079D01*
X11849611Y-17637079D02*
X11859134Y-17618031D01*
X11859134Y-17618031D02*
X11868658Y-17589460D01*
X11868658Y-17589460D02*
X11878182Y-17541841D01*
X11878182Y-17541841D02*
X11878182Y-17503746D01*
X11878182Y-17503746D02*
X11868658Y-17456127D01*
X11868658Y-17456127D02*
X11859134Y-17427555D01*
X11859134Y-17427555D02*
X11849611Y-17408508D01*
X11849611Y-17408508D02*
X11830563Y-17379936D01*
X11830563Y-17379936D02*
X11821039Y-17370412D01*
M02*
