M48
; DRILL file {KiCad 7.0.11+dfsg-1build4} date Fri 07 Feb 2025 04:56:37 PM CET
; FORMAT={-:-/ absolute / metric / decimal}
; #@! TF.CreationDate,2025-02-07T16:56:37+01:00
; #@! TF.GenerationSoftware,Kicad,Pcbnew,7.0.11+dfsg-1build4
; #@! TF.FileFunction,Plated,1,2,PTH
FMAT,2
METRIC
; #@! TA.AperFunction,Plated,PTH,ViaDrill
T1C0.300
; #@! TA.AperFunction,Plated,PTH,ComponentDrill
T2C0.800
; #@! TA.AperFunction,Plated,PTH,ComponentDrill
T3C1.000
; #@! TA.AperFunction,Plated,PTH,ComponentDrill
T4C1.040
; #@! TA.AperFunction,Plated,PTH,ComponentDrill
T5C1.100
; #@! TA.AperFunction,Plated,PTH,ComponentDrill
T6C1.850
; #@! TA.AperFunction,Plated,PTH,ViaDrill
T7C3.900
%
G90
G05
T1
X109.22Y-99.06
X111.76Y-81.28
X111.76Y-104.14
X124.46Y-60.36
X124.46Y-76.2
X124.46Y-99.06
X127.0Y-58.42
X129.54Y-55.88
X129.54Y-68.58
X132.08Y-81.28
X137.16Y-60.96
X137.16Y-137.16
X139.7Y-60.96
X144.78Y-68.58
X144.78Y-96.52
X144.78Y-104.14
X147.32Y-58.42
X149.26Y-55.88
X149.26Y-71.12
X149.86Y-86.36
X157.48Y-102.2
T2
X129.54Y-132.08
X132.08Y-40.64
X132.08Y-45.72
X134.54Y-132.08
X137.16Y-40.64
X137.16Y-45.72
X137.24Y-144.78
X137.24Y-146.78
X142.24Y-76.2
X142.24Y-83.82
X147.32Y-76.2
X147.32Y-83.82
X152.4Y-83.82
X153.3Y-76.2
X157.4Y-83.82
X158.38Y-76.2
T3
X116.84Y-105.41
X116.84Y-123.19
X120.582Y-41.887
X120.582Y-44.427
X120.582Y-46.967
X120.582Y-49.507
X120.582Y-52.047
X120.582Y-54.587
X120.582Y-57.127
X120.582Y-59.667
X143.11Y-43.18
X143.11Y-45.72
X143.11Y-48.26
X143.11Y-50.8
X143.11Y-53.34
X143.11Y-55.88
X143.11Y-58.42
X143.11Y-60.96
X143.11Y-63.5
X143.11Y-66.04
X145.17Y-38.1
X156.29Y-38.1
X157.48Y-105.41
X157.48Y-123.19
X158.35Y-43.18
X158.35Y-45.72
X158.35Y-48.26
X158.35Y-50.8
X158.35Y-53.34
X158.35Y-55.88
X158.35Y-58.42
X158.35Y-60.96
X158.35Y-63.5
X158.35Y-66.04
T4
X107.95Y-69.85
X107.95Y-82.55
X110.49Y-69.85
X110.49Y-82.55
X113.03Y-69.85
X113.03Y-82.55
X115.57Y-69.85
X115.57Y-82.55
X118.11Y-69.85
X118.11Y-82.55
X120.65Y-69.85
X120.65Y-82.55
X123.19Y-69.85
X123.19Y-82.55
X125.73Y-69.85
X125.73Y-82.55
T5
X124.54Y-142.24
X124.54Y-147.32
X155.02Y-142.24
X155.02Y-147.32
T6
X142.62Y-132.08
X147.32Y-132.08
X152.02Y-132.08
T7
X71.045Y-126.968
X71.12Y-114.3
X71.12Y-142.24
X78.74Y-104.14
X78.74Y-149.86
X96.52Y-104.14
X96.52Y-149.86
X104.14Y-114.3
X104.14Y-127.0
X104.14Y-142.24
X170.18Y-114.3
X170.18Y-127.0
X170.18Y-142.24
X180.34Y-104.14
X180.34Y-149.86
X198.12Y-104.14
X198.12Y-149.86
X205.74Y-114.3
X205.74Y-127.0
X205.74Y-142.24
M30
