G04 #@! TF.GenerationSoftware,KiCad,Pcbnew,7.0.11+dfsg-1build4*
G04 #@! TF.CreationDate,2025-02-07T16:51:29+01:00*
G04 #@! TF.ProjectId,Schematic,53636865-6d61-4746-9963-2e6b69636164,rev?*
G04 #@! TF.SameCoordinates,Original*
G04 #@! TF.FileFunction,Legend,Top*
G04 #@! TF.FilePolarity,Positive*
%FSLAX46Y46*%
G04 Gerber Fmt 4.6, Leading zero omitted, Abs format (unit mm)*
G04 Created by KiCad (PCBNEW 7.0.11+dfsg-1build4) date 2025-02-07 16:51:29*
%MOMM*%
%LPD*%
G01*
G04 APERTURE LIST*
G04 Aperture macros list*
%AMRoundRect*
0 Rectangle with rounded corners*
0 $1 Rounding radius*
0 $2 $3 $4 $5 $6 $7 $8 $9 X,Y pos of 4 corners*
0 Add a 4 corners polygon primitive as box body*
4,1,4,$2,$3,$4,$5,$6,$7,$8,$9,$2,$3,0*
0 Add four circle primitives for the rounded corners*
1,1,$1+$1,$2,$3*
1,1,$1+$1,$4,$5*
1,1,$1+$1,$6,$7*
1,1,$1+$1,$8,$9*
0 Add four rect primitives between the rounded corners*
20,1,$1+$1,$2,$3,$4,$5,0*
20,1,$1+$1,$4,$5,$6,$7,0*
20,1,$1+$1,$6,$7,$8,$9,0*
20,1,$1+$1,$8,$9,$2,$3,0*%
G04 Aperture macros list end*
%ADD10C,0.200000*%
%ADD11C,0.150000*%
%ADD12C,0.120000*%
%ADD13C,0.127000*%
%ADD14C,0.406400*%
%ADD15C,0.304800*%
%ADD16C,0.300000*%
%ADD17C,0.050000*%
%ADD18C,1.600000*%
%ADD19O,1.600000X1.600000*%
%ADD20R,2.540000X2.540000*%
%ADD21C,2.540000*%
%ADD22C,1.712000*%
%ADD23O,3.204000X1.704000*%
%ADD24RoundRect,0.102000X0.780000X-0.780000X0.780000X0.780000X-0.780000X0.780000X-0.780000X-0.780000X0*%
%ADD25C,1.764000*%
%ADD26RoundRect,0.102000X0.825000X-0.825000X0.825000X0.825000X-0.825000X0.825000X-0.825000X-0.825000X0*%
%ADD27C,1.854000*%
%ADD28RoundRect,0.102000X-0.825000X0.825000X-0.825000X-0.825000X0.825000X-0.825000X0.825000X0.825000X0*%
%ADD29RoundRect,0.250000X-0.850000X-0.350000X0.850000X-0.350000X0.850000X0.350000X-0.850000X0.350000X0*%
%ADD30RoundRect,0.249997X-2.950003X-2.650003X2.950003X-2.650003X2.950003X2.650003X-2.950003X2.650003X0*%
%ADD31RoundRect,0.102000X1.225000X-1.225000X1.225000X1.225000X-1.225000X1.225000X-1.225000X-1.225000X0*%
%ADD32C,2.654000*%
%ADD33RoundRect,0.102000X-0.654000X0.654000X-0.654000X-0.654000X0.654000X-0.654000X0.654000X0.654000X0*%
%ADD34C,1.512000*%
G04 APERTURE END LIST*
D10*
X194345790Y-145214285D02*
X184345790Y-145214285D01*
X184345790Y-145214285D02*
X184345790Y-144023809D01*
X184345790Y-144023809D02*
X184821980Y-143309523D01*
X184821980Y-143309523D02*
X185774361Y-142833333D01*
X185774361Y-142833333D02*
X186726742Y-142595238D01*
X186726742Y-142595238D02*
X188631504Y-142357142D01*
X188631504Y-142357142D02*
X190060076Y-142357142D01*
X190060076Y-142357142D02*
X191964838Y-142595238D01*
X191964838Y-142595238D02*
X192917219Y-142833333D01*
X192917219Y-142833333D02*
X193869600Y-143309523D01*
X193869600Y-143309523D02*
X194345790Y-144023809D01*
X194345790Y-144023809D02*
X194345790Y-145214285D01*
X193393409Y-137357142D02*
X193869600Y-137595238D01*
X193869600Y-137595238D02*
X194345790Y-138309523D01*
X194345790Y-138309523D02*
X194345790Y-138785714D01*
X194345790Y-138785714D02*
X193869600Y-139500000D01*
X193869600Y-139500000D02*
X192917219Y-139976190D01*
X192917219Y-139976190D02*
X191964838Y-140214285D01*
X191964838Y-140214285D02*
X190060076Y-140452381D01*
X190060076Y-140452381D02*
X188631504Y-140452381D01*
X188631504Y-140452381D02*
X186726742Y-140214285D01*
X186726742Y-140214285D02*
X185774361Y-139976190D01*
X185774361Y-139976190D02*
X184821980Y-139500000D01*
X184821980Y-139500000D02*
X184345790Y-138785714D01*
X184345790Y-138785714D02*
X184345790Y-138309523D01*
X184345790Y-138309523D02*
X184821980Y-137595238D01*
X184821980Y-137595238D02*
X185298171Y-137357142D01*
X194345790Y-131404761D02*
X184345790Y-131404761D01*
X184345790Y-131404761D02*
X191488647Y-129738095D01*
X191488647Y-129738095D02*
X184345790Y-128071428D01*
X184345790Y-128071428D02*
X194345790Y-128071428D01*
X184345790Y-124738094D02*
X184345790Y-123785713D01*
X184345790Y-123785713D02*
X184821980Y-123309523D01*
X184821980Y-123309523D02*
X185774361Y-122833332D01*
X185774361Y-122833332D02*
X187679123Y-122595237D01*
X187679123Y-122595237D02*
X191012457Y-122595237D01*
X191012457Y-122595237D02*
X192917219Y-122833332D01*
X192917219Y-122833332D02*
X193869600Y-123309523D01*
X193869600Y-123309523D02*
X194345790Y-123785713D01*
X194345790Y-123785713D02*
X194345790Y-124738094D01*
X194345790Y-124738094D02*
X193869600Y-125214285D01*
X193869600Y-125214285D02*
X192917219Y-125690475D01*
X192917219Y-125690475D02*
X191012457Y-125928571D01*
X191012457Y-125928571D02*
X187679123Y-125928571D01*
X187679123Y-125928571D02*
X185774361Y-125690475D01*
X185774361Y-125690475D02*
X184821980Y-125214285D01*
X184821980Y-125214285D02*
X184345790Y-124738094D01*
X184345790Y-121166666D02*
X184345790Y-118309523D01*
X194345790Y-119738095D02*
X184345790Y-119738095D01*
X184345790Y-115690475D02*
X184345790Y-114738094D01*
X184345790Y-114738094D02*
X184821980Y-114261904D01*
X184821980Y-114261904D02*
X185774361Y-113785713D01*
X185774361Y-113785713D02*
X187679123Y-113547618D01*
X187679123Y-113547618D02*
X191012457Y-113547618D01*
X191012457Y-113547618D02*
X192917219Y-113785713D01*
X192917219Y-113785713D02*
X193869600Y-114261904D01*
X193869600Y-114261904D02*
X194345790Y-114738094D01*
X194345790Y-114738094D02*
X194345790Y-115690475D01*
X194345790Y-115690475D02*
X193869600Y-116166666D01*
X193869600Y-116166666D02*
X192917219Y-116642856D01*
X192917219Y-116642856D02*
X191012457Y-116880952D01*
X191012457Y-116880952D02*
X187679123Y-116880952D01*
X187679123Y-116880952D02*
X185774361Y-116642856D01*
X185774361Y-116642856D02*
X184821980Y-116166666D01*
X184821980Y-116166666D02*
X184345790Y-115690475D01*
X194345790Y-108547618D02*
X189583885Y-110214285D01*
X194345790Y-111404761D02*
X184345790Y-111404761D01*
X184345790Y-111404761D02*
X184345790Y-109499999D01*
X184345790Y-109499999D02*
X184821980Y-109023809D01*
X184821980Y-109023809D02*
X185298171Y-108785714D01*
X185298171Y-108785714D02*
X186250552Y-108547618D01*
X186250552Y-108547618D02*
X187679123Y-108547618D01*
X187679123Y-108547618D02*
X188631504Y-108785714D01*
X188631504Y-108785714D02*
X189107695Y-109023809D01*
X189107695Y-109023809D02*
X189583885Y-109499999D01*
X189583885Y-109499999D02*
X189583885Y-111404761D01*
X92745790Y-142674285D02*
X82745790Y-142674285D01*
X82745790Y-142674285D02*
X82745790Y-141483809D01*
X82745790Y-141483809D02*
X83221980Y-140769523D01*
X83221980Y-140769523D02*
X84174361Y-140293333D01*
X84174361Y-140293333D02*
X85126742Y-140055238D01*
X85126742Y-140055238D02*
X87031504Y-139817142D01*
X87031504Y-139817142D02*
X88460076Y-139817142D01*
X88460076Y-139817142D02*
X90364838Y-140055238D01*
X90364838Y-140055238D02*
X91317219Y-140293333D01*
X91317219Y-140293333D02*
X92269600Y-140769523D01*
X92269600Y-140769523D02*
X92745790Y-141483809D01*
X92745790Y-141483809D02*
X92745790Y-142674285D01*
X91793409Y-134817142D02*
X92269600Y-135055238D01*
X92269600Y-135055238D02*
X92745790Y-135769523D01*
X92745790Y-135769523D02*
X92745790Y-136245714D01*
X92745790Y-136245714D02*
X92269600Y-136960000D01*
X92269600Y-136960000D02*
X91317219Y-137436190D01*
X91317219Y-137436190D02*
X90364838Y-137674285D01*
X90364838Y-137674285D02*
X88460076Y-137912381D01*
X88460076Y-137912381D02*
X87031504Y-137912381D01*
X87031504Y-137912381D02*
X85126742Y-137674285D01*
X85126742Y-137674285D02*
X84174361Y-137436190D01*
X84174361Y-137436190D02*
X83221980Y-136960000D01*
X83221980Y-136960000D02*
X82745790Y-136245714D01*
X82745790Y-136245714D02*
X82745790Y-135769523D01*
X82745790Y-135769523D02*
X83221980Y-135055238D01*
X83221980Y-135055238D02*
X83698171Y-134817142D01*
X92745790Y-128864761D02*
X82745790Y-128864761D01*
X82745790Y-128864761D02*
X89888647Y-127198095D01*
X89888647Y-127198095D02*
X82745790Y-125531428D01*
X82745790Y-125531428D02*
X92745790Y-125531428D01*
X82745790Y-122198094D02*
X82745790Y-121245713D01*
X82745790Y-121245713D02*
X83221980Y-120769523D01*
X83221980Y-120769523D02*
X84174361Y-120293332D01*
X84174361Y-120293332D02*
X86079123Y-120055237D01*
X86079123Y-120055237D02*
X89412457Y-120055237D01*
X89412457Y-120055237D02*
X91317219Y-120293332D01*
X91317219Y-120293332D02*
X92269600Y-120769523D01*
X92269600Y-120769523D02*
X92745790Y-121245713D01*
X92745790Y-121245713D02*
X92745790Y-122198094D01*
X92745790Y-122198094D02*
X92269600Y-122674285D01*
X92269600Y-122674285D02*
X91317219Y-123150475D01*
X91317219Y-123150475D02*
X89412457Y-123388571D01*
X89412457Y-123388571D02*
X86079123Y-123388571D01*
X86079123Y-123388571D02*
X84174361Y-123150475D01*
X84174361Y-123150475D02*
X83221980Y-122674285D01*
X83221980Y-122674285D02*
X82745790Y-122198094D01*
X82745790Y-118626666D02*
X82745790Y-115769523D01*
X92745790Y-117198095D02*
X82745790Y-117198095D01*
X82745790Y-113150475D02*
X82745790Y-112198094D01*
X82745790Y-112198094D02*
X83221980Y-111721904D01*
X83221980Y-111721904D02*
X84174361Y-111245713D01*
X84174361Y-111245713D02*
X86079123Y-111007618D01*
X86079123Y-111007618D02*
X89412457Y-111007618D01*
X89412457Y-111007618D02*
X91317219Y-111245713D01*
X91317219Y-111245713D02*
X92269600Y-111721904D01*
X92269600Y-111721904D02*
X92745790Y-112198094D01*
X92745790Y-112198094D02*
X92745790Y-113150475D01*
X92745790Y-113150475D02*
X92269600Y-113626666D01*
X92269600Y-113626666D02*
X91317219Y-114102856D01*
X91317219Y-114102856D02*
X89412457Y-114340952D01*
X89412457Y-114340952D02*
X86079123Y-114340952D01*
X86079123Y-114340952D02*
X84174361Y-114102856D01*
X84174361Y-114102856D02*
X83221980Y-113626666D01*
X83221980Y-113626666D02*
X82745790Y-113150475D01*
X92745790Y-106007618D02*
X87983885Y-107674285D01*
X92745790Y-108864761D02*
X82745790Y-108864761D01*
X82745790Y-108864761D02*
X82745790Y-106959999D01*
X82745790Y-106959999D02*
X83221980Y-106483809D01*
X83221980Y-106483809D02*
X83698171Y-106245714D01*
X83698171Y-106245714D02*
X84650552Y-106007618D01*
X84650552Y-106007618D02*
X86079123Y-106007618D01*
X86079123Y-106007618D02*
X87031504Y-106245714D01*
X87031504Y-106245714D02*
X87507695Y-106483809D01*
X87507695Y-106483809D02*
X87983885Y-106959999D01*
X87983885Y-106959999D02*
X87983885Y-108864761D01*
D11*
X144613333Y-74284819D02*
X144280000Y-73808628D01*
X144041905Y-74284819D02*
X144041905Y-73284819D01*
X144041905Y-73284819D02*
X144422857Y-73284819D01*
X144422857Y-73284819D02*
X144518095Y-73332438D01*
X144518095Y-73332438D02*
X144565714Y-73380057D01*
X144565714Y-73380057D02*
X144613333Y-73475295D01*
X144613333Y-73475295D02*
X144613333Y-73618152D01*
X144613333Y-73618152D02*
X144565714Y-73713390D01*
X144565714Y-73713390D02*
X144518095Y-73761009D01*
X144518095Y-73761009D02*
X144422857Y-73808628D01*
X144422857Y-73808628D02*
X144041905Y-73808628D01*
X144994286Y-73380057D02*
X145041905Y-73332438D01*
X145041905Y-73332438D02*
X145137143Y-73284819D01*
X145137143Y-73284819D02*
X145375238Y-73284819D01*
X145375238Y-73284819D02*
X145470476Y-73332438D01*
X145470476Y-73332438D02*
X145518095Y-73380057D01*
X145518095Y-73380057D02*
X145565714Y-73475295D01*
X145565714Y-73475295D02*
X145565714Y-73570533D01*
X145565714Y-73570533D02*
X145518095Y-73713390D01*
X145518095Y-73713390D02*
X144946667Y-74284819D01*
X144946667Y-74284819D02*
X145565714Y-74284819D01*
X144613333Y-81904819D02*
X144280000Y-81428628D01*
X144041905Y-81904819D02*
X144041905Y-80904819D01*
X144041905Y-80904819D02*
X144422857Y-80904819D01*
X144422857Y-80904819D02*
X144518095Y-80952438D01*
X144518095Y-80952438D02*
X144565714Y-81000057D01*
X144565714Y-81000057D02*
X144613333Y-81095295D01*
X144613333Y-81095295D02*
X144613333Y-81238152D01*
X144613333Y-81238152D02*
X144565714Y-81333390D01*
X144565714Y-81333390D02*
X144518095Y-81381009D01*
X144518095Y-81381009D02*
X144422857Y-81428628D01*
X144422857Y-81428628D02*
X144041905Y-81428628D01*
X144946667Y-80904819D02*
X145565714Y-80904819D01*
X145565714Y-80904819D02*
X145232381Y-81285771D01*
X145232381Y-81285771D02*
X145375238Y-81285771D01*
X145375238Y-81285771D02*
X145470476Y-81333390D01*
X145470476Y-81333390D02*
X145518095Y-81381009D01*
X145518095Y-81381009D02*
X145565714Y-81476247D01*
X145565714Y-81476247D02*
X145565714Y-81714342D01*
X145565714Y-81714342D02*
X145518095Y-81809580D01*
X145518095Y-81809580D02*
X145470476Y-81857200D01*
X145470476Y-81857200D02*
X145375238Y-81904819D01*
X145375238Y-81904819D02*
X145089524Y-81904819D01*
X145089524Y-81904819D02*
X144994286Y-81857200D01*
X144994286Y-81857200D02*
X144946667Y-81809580D01*
X135128095Y-126454819D02*
X135128095Y-127264342D01*
X135128095Y-127264342D02*
X135175714Y-127359580D01*
X135175714Y-127359580D02*
X135223333Y-127407200D01*
X135223333Y-127407200D02*
X135318571Y-127454819D01*
X135318571Y-127454819D02*
X135509047Y-127454819D01*
X135509047Y-127454819D02*
X135604285Y-127407200D01*
X135604285Y-127407200D02*
X135651904Y-127359580D01*
X135651904Y-127359580D02*
X135699523Y-127264342D01*
X135699523Y-127264342D02*
X135699523Y-126454819D01*
X136604285Y-126788152D02*
X136604285Y-127454819D01*
X136366190Y-126407200D02*
X136128095Y-127121485D01*
X136128095Y-127121485D02*
X136747142Y-127121485D01*
X134453333Y-43464819D02*
X134120000Y-42988628D01*
X133881905Y-43464819D02*
X133881905Y-42464819D01*
X133881905Y-42464819D02*
X134262857Y-42464819D01*
X134262857Y-42464819D02*
X134358095Y-42512438D01*
X134358095Y-42512438D02*
X134405714Y-42560057D01*
X134405714Y-42560057D02*
X134453333Y-42655295D01*
X134453333Y-42655295D02*
X134453333Y-42798152D01*
X134453333Y-42798152D02*
X134405714Y-42893390D01*
X134405714Y-42893390D02*
X134358095Y-42941009D01*
X134358095Y-42941009D02*
X134262857Y-42988628D01*
X134262857Y-42988628D02*
X133881905Y-42988628D01*
X135310476Y-42798152D02*
X135310476Y-43464819D01*
X135072381Y-42417200D02*
X134834286Y-43131485D01*
X134834286Y-43131485D02*
X135453333Y-43131485D01*
X155673333Y-79024819D02*
X155340000Y-78548628D01*
X155101905Y-79024819D02*
X155101905Y-78024819D01*
X155101905Y-78024819D02*
X155482857Y-78024819D01*
X155482857Y-78024819D02*
X155578095Y-78072438D01*
X155578095Y-78072438D02*
X155625714Y-78120057D01*
X155625714Y-78120057D02*
X155673333Y-78215295D01*
X155673333Y-78215295D02*
X155673333Y-78358152D01*
X155673333Y-78358152D02*
X155625714Y-78453390D01*
X155625714Y-78453390D02*
X155578095Y-78501009D01*
X155578095Y-78501009D02*
X155482857Y-78548628D01*
X155482857Y-78548628D02*
X155101905Y-78548628D01*
X156625714Y-79024819D02*
X156054286Y-79024819D01*
X156340000Y-79024819D02*
X156340000Y-78024819D01*
X156340000Y-78024819D02*
X156244762Y-78167676D01*
X156244762Y-78167676D02*
X156149524Y-78262914D01*
X156149524Y-78262914D02*
X156054286Y-78310533D01*
X140659819Y-69181904D02*
X141469342Y-69181904D01*
X141469342Y-69181904D02*
X141564580Y-69134285D01*
X141564580Y-69134285D02*
X141612200Y-69086666D01*
X141612200Y-69086666D02*
X141659819Y-68991428D01*
X141659819Y-68991428D02*
X141659819Y-68800952D01*
X141659819Y-68800952D02*
X141612200Y-68705714D01*
X141612200Y-68705714D02*
X141564580Y-68658095D01*
X141564580Y-68658095D02*
X141469342Y-68610476D01*
X141469342Y-68610476D02*
X140659819Y-68610476D01*
X141659819Y-67610476D02*
X141659819Y-68181904D01*
X141659819Y-67896190D02*
X140659819Y-67896190D01*
X140659819Y-67896190D02*
X140802676Y-67991428D01*
X140802676Y-67991428D02*
X140897914Y-68086666D01*
X140897914Y-68086666D02*
X140945533Y-68181904D01*
X117470314Y-62877904D02*
X117946504Y-62877904D01*
X117375076Y-63163619D02*
X117708409Y-62163619D01*
X117708409Y-62163619D02*
X118041742Y-63163619D01*
X118946504Y-63068380D02*
X118898885Y-63116000D01*
X118898885Y-63116000D02*
X118756028Y-63163619D01*
X118756028Y-63163619D02*
X118660790Y-63163619D01*
X118660790Y-63163619D02*
X118517933Y-63116000D01*
X118517933Y-63116000D02*
X118422695Y-63020761D01*
X118422695Y-63020761D02*
X118375076Y-62925523D01*
X118375076Y-62925523D02*
X118327457Y-62735047D01*
X118327457Y-62735047D02*
X118327457Y-62592190D01*
X118327457Y-62592190D02*
X118375076Y-62401714D01*
X118375076Y-62401714D02*
X118422695Y-62306476D01*
X118422695Y-62306476D02*
X118517933Y-62211238D01*
X118517933Y-62211238D02*
X118660790Y-62163619D01*
X118660790Y-62163619D02*
X118756028Y-62163619D01*
X118756028Y-62163619D02*
X118898885Y-62211238D01*
X118898885Y-62211238D02*
X118946504Y-62258857D01*
X119946504Y-63068380D02*
X119898885Y-63116000D01*
X119898885Y-63116000D02*
X119756028Y-63163619D01*
X119756028Y-63163619D02*
X119660790Y-63163619D01*
X119660790Y-63163619D02*
X119517933Y-63116000D01*
X119517933Y-63116000D02*
X119422695Y-63020761D01*
X119422695Y-63020761D02*
X119375076Y-62925523D01*
X119375076Y-62925523D02*
X119327457Y-62735047D01*
X119327457Y-62735047D02*
X119327457Y-62592190D01*
X119327457Y-62592190D02*
X119375076Y-62401714D01*
X119375076Y-62401714D02*
X119422695Y-62306476D01*
X119422695Y-62306476D02*
X119517933Y-62211238D01*
X119517933Y-62211238D02*
X119660790Y-62163619D01*
X119660790Y-62163619D02*
X119756028Y-62163619D01*
X119756028Y-62163619D02*
X119898885Y-62211238D01*
X119898885Y-62211238D02*
X119946504Y-62258857D01*
X120898885Y-63163619D02*
X120327457Y-63163619D01*
X120613171Y-63163619D02*
X120613171Y-62163619D01*
X120613171Y-62163619D02*
X120517933Y-62306476D01*
X120517933Y-62306476D02*
X120422695Y-62401714D01*
X120422695Y-62401714D02*
X120327457Y-62449333D01*
X131873333Y-128989580D02*
X131825714Y-129037200D01*
X131825714Y-129037200D02*
X131682857Y-129084819D01*
X131682857Y-129084819D02*
X131587619Y-129084819D01*
X131587619Y-129084819D02*
X131444762Y-129037200D01*
X131444762Y-129037200D02*
X131349524Y-128941961D01*
X131349524Y-128941961D02*
X131301905Y-128846723D01*
X131301905Y-128846723D02*
X131254286Y-128656247D01*
X131254286Y-128656247D02*
X131254286Y-128513390D01*
X131254286Y-128513390D02*
X131301905Y-128322914D01*
X131301905Y-128322914D02*
X131349524Y-128227676D01*
X131349524Y-128227676D02*
X131444762Y-128132438D01*
X131444762Y-128132438D02*
X131587619Y-128084819D01*
X131587619Y-128084819D02*
X131682857Y-128084819D01*
X131682857Y-128084819D02*
X131825714Y-128132438D01*
X131825714Y-128132438D02*
X131873333Y-128180057D01*
X132206667Y-128084819D02*
X132825714Y-128084819D01*
X132825714Y-128084819D02*
X132492381Y-128465771D01*
X132492381Y-128465771D02*
X132635238Y-128465771D01*
X132635238Y-128465771D02*
X132730476Y-128513390D01*
X132730476Y-128513390D02*
X132778095Y-128561009D01*
X132778095Y-128561009D02*
X132825714Y-128656247D01*
X132825714Y-128656247D02*
X132825714Y-128894342D01*
X132825714Y-128894342D02*
X132778095Y-128989580D01*
X132778095Y-128989580D02*
X132730476Y-129037200D01*
X132730476Y-129037200D02*
X132635238Y-129084819D01*
X132635238Y-129084819D02*
X132349524Y-129084819D01*
X132349524Y-129084819D02*
X132254286Y-129037200D01*
X132254286Y-129037200D02*
X132206667Y-128989580D01*
X111407740Y-77008877D02*
X111407740Y-76642593D01*
X112048738Y-76825735D02*
X111407740Y-76825735D01*
X111712977Y-76215261D02*
X111743501Y-76123690D01*
X111743501Y-76123690D02*
X111774025Y-76093166D01*
X111774025Y-76093166D02*
X111835072Y-76062642D01*
X111835072Y-76062642D02*
X111926643Y-76062642D01*
X111926643Y-76062642D02*
X111987691Y-76093166D01*
X111987691Y-76093166D02*
X112018215Y-76123690D01*
X112018215Y-76123690D02*
X112048738Y-76184737D01*
X112048738Y-76184737D02*
X112048738Y-76428927D01*
X112048738Y-76428927D02*
X111407740Y-76428927D01*
X111407740Y-76428927D02*
X111407740Y-76215261D01*
X111407740Y-76215261D02*
X111438264Y-76154214D01*
X111438264Y-76154214D02*
X111468788Y-76123690D01*
X111468788Y-76123690D02*
X111529835Y-76093166D01*
X111529835Y-76093166D02*
X111590883Y-76093166D01*
X111590883Y-76093166D02*
X111651930Y-76123690D01*
X111651930Y-76123690D02*
X111682454Y-76154214D01*
X111682454Y-76154214D02*
X111712977Y-76215261D01*
X111712977Y-76215261D02*
X111712977Y-76428927D01*
X112048738Y-75452168D02*
X112048738Y-75818453D01*
X112048738Y-75635310D02*
X111407740Y-75635310D01*
X111407740Y-75635310D02*
X111499311Y-75696358D01*
X111499311Y-75696358D02*
X111560359Y-75757405D01*
X111560359Y-75757405D02*
X111590883Y-75818453D01*
X119380818Y-146646855D02*
X118378779Y-146646855D01*
X118378779Y-146646855D02*
X118378779Y-146265126D01*
X118378779Y-146265126D02*
X118426495Y-146169693D01*
X118426495Y-146169693D02*
X118474211Y-146121977D01*
X118474211Y-146121977D02*
X118569643Y-146074261D01*
X118569643Y-146074261D02*
X118712792Y-146074261D01*
X118712792Y-146074261D02*
X118808224Y-146121977D01*
X118808224Y-146121977D02*
X118855940Y-146169693D01*
X118855940Y-146169693D02*
X118903656Y-146265126D01*
X118903656Y-146265126D02*
X118903656Y-146646855D01*
X118474211Y-145692532D02*
X118426495Y-145644816D01*
X118426495Y-145644816D02*
X118378779Y-145549384D01*
X118378779Y-145549384D02*
X118378779Y-145310803D01*
X118378779Y-145310803D02*
X118426495Y-145215371D01*
X118426495Y-145215371D02*
X118474211Y-145167654D01*
X118474211Y-145167654D02*
X118569643Y-145119938D01*
X118569643Y-145119938D02*
X118665076Y-145119938D01*
X118665076Y-145119938D02*
X118808224Y-145167654D01*
X118808224Y-145167654D02*
X119380818Y-145740248D01*
X119380818Y-145740248D02*
X119380818Y-145119938D01*
X134453333Y-48544819D02*
X134120000Y-48068628D01*
X133881905Y-48544819D02*
X133881905Y-47544819D01*
X133881905Y-47544819D02*
X134262857Y-47544819D01*
X134262857Y-47544819D02*
X134358095Y-47592438D01*
X134358095Y-47592438D02*
X134405714Y-47640057D01*
X134405714Y-47640057D02*
X134453333Y-47735295D01*
X134453333Y-47735295D02*
X134453333Y-47878152D01*
X134453333Y-47878152D02*
X134405714Y-47973390D01*
X134405714Y-47973390D02*
X134358095Y-48021009D01*
X134358095Y-48021009D02*
X134262857Y-48068628D01*
X134262857Y-48068628D02*
X133881905Y-48068628D01*
X135358095Y-47544819D02*
X134881905Y-47544819D01*
X134881905Y-47544819D02*
X134834286Y-48021009D01*
X134834286Y-48021009D02*
X134881905Y-47973390D01*
X134881905Y-47973390D02*
X134977143Y-47925771D01*
X134977143Y-47925771D02*
X135215238Y-47925771D01*
X135215238Y-47925771D02*
X135310476Y-47973390D01*
X135310476Y-47973390D02*
X135358095Y-48021009D01*
X135358095Y-48021009D02*
X135405714Y-48116247D01*
X135405714Y-48116247D02*
X135405714Y-48354342D01*
X135405714Y-48354342D02*
X135358095Y-48449580D01*
X135358095Y-48449580D02*
X135310476Y-48497200D01*
X135310476Y-48497200D02*
X135215238Y-48544819D01*
X135215238Y-48544819D02*
X134977143Y-48544819D01*
X134977143Y-48544819D02*
X134881905Y-48497200D01*
X134881905Y-48497200D02*
X134834286Y-48449580D01*
X154733333Y-80729580D02*
X154685714Y-80777200D01*
X154685714Y-80777200D02*
X154542857Y-80824819D01*
X154542857Y-80824819D02*
X154447619Y-80824819D01*
X154447619Y-80824819D02*
X154304762Y-80777200D01*
X154304762Y-80777200D02*
X154209524Y-80681961D01*
X154209524Y-80681961D02*
X154161905Y-80586723D01*
X154161905Y-80586723D02*
X154114286Y-80396247D01*
X154114286Y-80396247D02*
X154114286Y-80253390D01*
X154114286Y-80253390D02*
X154161905Y-80062914D01*
X154161905Y-80062914D02*
X154209524Y-79967676D01*
X154209524Y-79967676D02*
X154304762Y-79872438D01*
X154304762Y-79872438D02*
X154447619Y-79824819D01*
X154447619Y-79824819D02*
X154542857Y-79824819D01*
X154542857Y-79824819D02*
X154685714Y-79872438D01*
X154685714Y-79872438D02*
X154733333Y-79920057D01*
X155685714Y-80824819D02*
X155114286Y-80824819D01*
X155400000Y-80824819D02*
X155400000Y-79824819D01*
X155400000Y-79824819D02*
X155304762Y-79967676D01*
X155304762Y-79967676D02*
X155209524Y-80062914D01*
X155209524Y-80062914D02*
X155114286Y-80110533D01*
X161090708Y-144392345D02*
X160088669Y-144392345D01*
X160088669Y-144392345D02*
X160088669Y-144010616D01*
X160088669Y-144010616D02*
X160136385Y-143915183D01*
X160136385Y-143915183D02*
X160184101Y-143867467D01*
X160184101Y-143867467D02*
X160279533Y-143819751D01*
X160279533Y-143819751D02*
X160422682Y-143819751D01*
X160422682Y-143819751D02*
X160518114Y-143867467D01*
X160518114Y-143867467D02*
X160565830Y-143915183D01*
X160565830Y-143915183D02*
X160613546Y-144010616D01*
X160613546Y-144010616D02*
X160613546Y-144392345D01*
X161090708Y-142865428D02*
X161090708Y-143438022D01*
X161090708Y-143151725D02*
X160088669Y-143151725D01*
X160088669Y-143151725D02*
X160231817Y-143247157D01*
X160231817Y-143247157D02*
X160327249Y-143342590D01*
X160327249Y-143342590D02*
X160374966Y-143438022D01*
X149513095Y-87919819D02*
X149513095Y-88729342D01*
X149513095Y-88729342D02*
X149560714Y-88824580D01*
X149560714Y-88824580D02*
X149608333Y-88872200D01*
X149608333Y-88872200D02*
X149703571Y-88919819D01*
X149703571Y-88919819D02*
X149894047Y-88919819D01*
X149894047Y-88919819D02*
X149989285Y-88872200D01*
X149989285Y-88872200D02*
X150036904Y-88824580D01*
X150036904Y-88824580D02*
X150084523Y-88729342D01*
X150084523Y-88729342D02*
X150084523Y-87919819D01*
X150465476Y-87919819D02*
X151084523Y-87919819D01*
X151084523Y-87919819D02*
X150751190Y-88300771D01*
X150751190Y-88300771D02*
X150894047Y-88300771D01*
X150894047Y-88300771D02*
X150989285Y-88348390D01*
X150989285Y-88348390D02*
X151036904Y-88396009D01*
X151036904Y-88396009D02*
X151084523Y-88491247D01*
X151084523Y-88491247D02*
X151084523Y-88729342D01*
X151084523Y-88729342D02*
X151036904Y-88824580D01*
X151036904Y-88824580D02*
X150989285Y-88872200D01*
X150989285Y-88872200D02*
X150894047Y-88919819D01*
X150894047Y-88919819D02*
X150608333Y-88919819D01*
X150608333Y-88919819D02*
X150513095Y-88872200D01*
X150513095Y-88872200D02*
X150465476Y-88824580D01*
X140278718Y-133068797D02*
X140326428Y-132925666D01*
X140326428Y-132925666D02*
X140326428Y-132687113D01*
X140326428Y-132687113D02*
X140278718Y-132591692D01*
X140278718Y-132591692D02*
X140231007Y-132543982D01*
X140231007Y-132543982D02*
X140135586Y-132496271D01*
X140135586Y-132496271D02*
X140040165Y-132496271D01*
X140040165Y-132496271D02*
X139944744Y-132543982D01*
X139944744Y-132543982D02*
X139897033Y-132591692D01*
X139897033Y-132591692D02*
X139849323Y-132687113D01*
X139849323Y-132687113D02*
X139801612Y-132877955D01*
X139801612Y-132877955D02*
X139753902Y-132973376D01*
X139753902Y-132973376D02*
X139706191Y-133021087D01*
X139706191Y-133021087D02*
X139610770Y-133068797D01*
X139610770Y-133068797D02*
X139515349Y-133068797D01*
X139515349Y-133068797D02*
X139419928Y-133021087D01*
X139419928Y-133021087D02*
X139372218Y-132973376D01*
X139372218Y-132973376D02*
X139324507Y-132877955D01*
X139324507Y-132877955D02*
X139324507Y-132639403D01*
X139324507Y-132639403D02*
X139372218Y-132496271D01*
X140326428Y-131542061D02*
X140326428Y-132114587D01*
X140326428Y-131828324D02*
X139324507Y-131828324D01*
X139324507Y-131828324D02*
X139467639Y-131923745D01*
X139467639Y-131923745D02*
X139563060Y-132019166D01*
X139563060Y-132019166D02*
X139610770Y-132114587D01*
D12*
X143610000Y-76200000D02*
X146220000Y-76200000D01*
X143610000Y-76200000D02*
G75*
G03*
X140870000Y-76200000I-1370000J0D01*
G01*
X140870000Y-76200000D02*
G75*
G03*
X143610000Y-76200000I1370000J0D01*
G01*
X143610000Y-83820000D02*
X146220000Y-83820000D01*
X143610000Y-83820000D02*
G75*
G03*
X140870000Y-83820000I-1370000J0D01*
G01*
X140870000Y-83820000D02*
G75*
G03*
X143610000Y-83820000I1370000J0D01*
G01*
X159035000Y-125025000D02*
X159035000Y-103575000D01*
X159035000Y-103575000D02*
X115285000Y-103575000D01*
X159030000Y-124770000D02*
X157730000Y-124770000D01*
X159030000Y-121615000D02*
X155900000Y-121610000D01*
X159030000Y-106990000D02*
X155900000Y-106990000D01*
X159030000Y-103830000D02*
X155900000Y-103830000D01*
X155900000Y-121920000D02*
X155900000Y-121610000D01*
X155900000Y-106990000D02*
X155900000Y-103830000D01*
X148730767Y-122185851D02*
X148730767Y-122024313D01*
X148729767Y-123552390D02*
X147079767Y-123843329D01*
X148729767Y-114200894D02*
X148729767Y-123552390D01*
X148729767Y-114200894D02*
X148652203Y-114123330D01*
X148652203Y-114123330D02*
X138647330Y-114123330D01*
X148448364Y-106631783D02*
X147998364Y-106631783D01*
X148448364Y-104881783D02*
X148448364Y-106631783D01*
X147998364Y-104881783D02*
X148448364Y-104881783D01*
X147998364Y-104606783D02*
X147998364Y-106906783D01*
X147898364Y-107006783D02*
X144298364Y-107006783D01*
X147469767Y-109493330D02*
X147469767Y-114123330D01*
X147469767Y-109493330D02*
X146629767Y-109493330D01*
X147079767Y-123843329D02*
X140219767Y-123843329D01*
X146629767Y-109493330D02*
X146629767Y-114123330D01*
X145769767Y-109493330D02*
X145769767Y-114123330D01*
X145769767Y-109493330D02*
X144929767Y-109493330D01*
X145068642Y-106906783D02*
X145068642Y-104606783D01*
X144929767Y-109493330D02*
X144929767Y-114123330D01*
X144298364Y-104506783D02*
X147898364Y-104506783D01*
X144198364Y-106906783D02*
X144198364Y-104606783D01*
X144198364Y-106631783D02*
X143748364Y-106631783D01*
X144197364Y-106395304D02*
X144197364Y-106489856D01*
X144069767Y-109493330D02*
X144069767Y-114123330D01*
X144069767Y-109493330D02*
X143229767Y-109493330D01*
X143748364Y-106631783D02*
X143748364Y-104881783D01*
X143748364Y-104881783D02*
X144198364Y-104881783D01*
X143229767Y-109493330D02*
X143229767Y-114123330D01*
X142369767Y-109493330D02*
X142369767Y-114123330D01*
X142369767Y-109493330D02*
X141529767Y-109493330D01*
X141529767Y-109493330D02*
X141529767Y-114123330D01*
X140669767Y-109493330D02*
X140669767Y-114123330D01*
X140669767Y-109493330D02*
X139829767Y-109493330D01*
X140219767Y-123843329D02*
X138569767Y-123552390D01*
X139829767Y-109493330D02*
X139829767Y-114123330D01*
X138647330Y-114123330D02*
X138569767Y-114200894D01*
X138569767Y-122763330D02*
X148729767Y-122763330D01*
X138569767Y-114200894D02*
X138569767Y-123552390D01*
X137012603Y-115604204D02*
X137012603Y-105904204D01*
X135512603Y-104404204D02*
X125812603Y-104404204D01*
X134180217Y-119607706D02*
X134180217Y-124507705D01*
X134130217Y-124557705D02*
X124230217Y-124557705D01*
X133143615Y-123239100D02*
X133119447Y-123207705D01*
X133131406Y-123182706D02*
X133155853Y-123187938D01*
X133131406Y-123182706D02*
X133124236Y-123213925D01*
X133131406Y-123182706D02*
X133119447Y-123207705D01*
X133119447Y-122707706D02*
X131040986Y-122707706D01*
X131040986Y-123207705D02*
X133119447Y-123207705D01*
X125812603Y-117104204D02*
X135512603Y-117104204D01*
X125621022Y-124558705D02*
X125665894Y-124558705D01*
X125537688Y-124558705D02*
X125571643Y-124558705D01*
X124312603Y-105904204D02*
X124312603Y-115604204D01*
X124230217Y-119557706D02*
X134130217Y-119557706D01*
X124180217Y-124507705D02*
X124180217Y-119607706D01*
X120831319Y-123489704D02*
X120031319Y-123489704D01*
X120831319Y-122209705D02*
X120831319Y-123809704D01*
X120031319Y-123809704D02*
X120831319Y-123809704D01*
X120031319Y-123809704D02*
X120031319Y-122209705D01*
X120031319Y-122529705D02*
X120831319Y-122529705D01*
X120031319Y-122209705D02*
X120831319Y-122209705D01*
X118420000Y-124770000D02*
X115305000Y-124770000D01*
X118420000Y-121610000D02*
X118420000Y-124770000D01*
X118420000Y-121610000D02*
X115260000Y-121610000D01*
X118420000Y-106990000D02*
X115305000Y-106990000D01*
X118420000Y-103830000D02*
X118420000Y-106990000D01*
X118420000Y-103830000D02*
X115305000Y-103830000D01*
X115285000Y-125025000D02*
X159035000Y-125025000D01*
X115285000Y-103575000D02*
X115285000Y-125025000D01*
X147898364Y-107006764D02*
G75*
G03*
X147998364Y-106906783I36J99964D01*
G01*
X147998417Y-104606783D02*
G75*
G03*
X147898364Y-104506783I-100017J-17D01*
G01*
X144198417Y-106906783D02*
G75*
G03*
X144298364Y-107006783I99983J-17D01*
G01*
X144298364Y-104506764D02*
G75*
G03*
X144198364Y-104606783I36J-100036D01*
G01*
X135512603Y-117104203D02*
G75*
G03*
X137012603Y-115604204I-3J1500003D01*
G01*
X135664751Y-113589800D02*
G75*
G03*
X135698869Y-113723990I87049J-49300D01*
G01*
X133632390Y-115790469D02*
G75*
G03*
X135698868Y-113723989I1272850J793629D01*
G01*
X135698882Y-107784441D02*
G75*
G03*
X135664784Y-107918591I52918J-84859D01*
G01*
X135664778Y-113589815D02*
G75*
G03*
X135664781Y-107918590I-5002178J2835615D01*
G01*
X137012596Y-105904204D02*
G75*
G03*
X135512603Y-104404204I-1499996J4D01*
G01*
X134130217Y-124557717D02*
G75*
G03*
X134180217Y-124507705I-17J50017D01*
G01*
X134180194Y-119607706D02*
G75*
G03*
X134130217Y-119557706I-49994J6D01*
G01*
X135698863Y-107784410D02*
G75*
G03*
X133632389Y-105717938I-793663J1272810D01*
G01*
X133498201Y-105752052D02*
G75*
G03*
X133632388Y-105717938I49299J87052D01*
G01*
X133632358Y-115790488D02*
G75*
G03*
X133498217Y-115756384I-84858J-52912D01*
G01*
X127826989Y-115756383D02*
G75*
G03*
X133498216Y-115756383I2835613J5002178D01*
G01*
X133143615Y-122676310D02*
G75*
G03*
X133155852Y-122727473I-1063415J-281390D01*
G01*
X133498217Y-105752024D02*
G75*
G03*
X127826989Y-105752024I-2835614J-5002180D01*
G01*
X127692839Y-105717924D02*
G75*
G03*
X127826989Y-105752023I84861J52924D01*
G01*
X127827002Y-115756359D02*
G75*
G03*
X127692817Y-115790469I-49302J-87041D01*
G01*
X125626333Y-113723982D02*
G75*
G03*
X127692817Y-115790469I793667J-1272818D01*
G01*
X124312596Y-115604204D02*
G75*
G03*
X125812603Y-117104204I1500004J4D01*
G01*
X125660421Y-107918588D02*
G75*
G03*
X125660424Y-113589817I5002179J-2835612D01*
G01*
X125626320Y-113723960D02*
G75*
G03*
X125660422Y-113589816I-52920J84860D01*
G01*
X127692818Y-105717938D02*
G75*
G03*
X125626338Y-107784418I-1272858J-793622D01*
G01*
X125660445Y-107918602D02*
G75*
G03*
X125626337Y-107784417I-87045J49302D01*
G01*
X125812603Y-104404203D02*
G75*
G03*
X124312603Y-105904204I-3J-1499997D01*
G01*
X124180195Y-124507705D02*
G75*
G03*
X124230217Y-124557705I50005J5D01*
G01*
X124230217Y-119557717D02*
G75*
G03*
X124180217Y-119607706I-17J-49983D01*
G01*
X158833334Y-114232582D02*
G75*
G03*
X150833334Y-114232582I-4000000J0D01*
G01*
X150833334Y-114232582D02*
G75*
G03*
X158833334Y-114232582I4000000J0D01*
G01*
X153998999Y-122555000D02*
G75*
G03*
X150801001Y-122555000I-1598999J0D01*
G01*
X150801001Y-122555000D02*
G75*
G03*
X153998999Y-122555000I1598999J0D01*
G01*
X148181821Y-115035406D02*
G75*
G03*
X147431821Y-115035406I-375000J0D01*
G01*
X147431821Y-115035406D02*
G75*
G03*
X148181821Y-115035406I375000J0D01*
G01*
X135912603Y-110754204D02*
G75*
G03*
X125412603Y-110754204I-5250000J0D01*
G01*
X125412603Y-110754204D02*
G75*
G03*
X135912603Y-110754204I5250000J0D01*
G01*
X123519000Y-106045000D02*
G75*
G03*
X120321000Y-106045000I-1599000J0D01*
G01*
X120321000Y-106045000D02*
G75*
G03*
X123519000Y-106045000I1599000J0D01*
G01*
X123450693Y-113734794D02*
G75*
G03*
X115450693Y-113734794I-4000000J0D01*
G01*
X115450693Y-113734794D02*
G75*
G03*
X123450693Y-113734794I4000000J0D01*
G01*
X135790000Y-40640000D02*
X133180000Y-40640000D01*
X138530000Y-40640000D02*
G75*
G03*
X135790000Y-40640000I-1370000J0D01*
G01*
X135790000Y-40640000D02*
G75*
G03*
X138530000Y-40640000I1370000J0D01*
G01*
X157010000Y-76200000D02*
X154400000Y-76200000D01*
X159750000Y-76200000D02*
G75*
G03*
X157010000Y-76200000I-1370000J0D01*
G01*
X157010000Y-76200000D02*
G75*
G03*
X159750000Y-76200000I1370000J0D01*
G01*
D13*
X143110000Y-71755000D02*
X158350000Y-71755000D01*
X158350000Y-71755000D02*
X158350000Y-67385000D01*
X143110000Y-67385000D02*
X143110000Y-71755000D01*
X144720000Y-36735000D02*
X144720000Y-25715000D01*
X144720000Y-25715000D02*
X156740000Y-25715000D01*
X156740000Y-25715000D02*
X156740000Y-36735000D01*
D14*
X122351600Y-61823400D02*
X122351600Y-39823400D01*
X122351600Y-39823400D02*
X106201600Y-39823400D01*
D13*
X113723600Y-52269400D02*
X113723600Y-48205400D01*
X113723600Y-48205400D02*
X109659600Y-48205400D01*
D15*
X113088600Y-48713400D02*
X112961600Y-49348400D01*
X113088600Y-48713400D02*
X112453600Y-48840400D01*
X111818600Y-51888400D02*
X112199600Y-51380400D01*
X111818600Y-49983400D02*
X113088600Y-48713400D01*
X111818600Y-49983400D02*
X111818600Y-51888400D01*
X111818600Y-49983400D02*
X110040600Y-49983400D01*
X111437600Y-51380400D02*
X111818600Y-51888400D01*
X110548600Y-50364400D02*
X110040600Y-49983400D01*
X110040600Y-49983400D02*
X110548600Y-49602400D01*
D13*
X109659600Y-52269400D02*
X113723600Y-52269400D01*
X109659600Y-48205400D02*
X109659600Y-52269400D01*
D14*
X106201600Y-61823400D02*
X122351600Y-61823400D01*
X106201600Y-39823400D02*
X106201600Y-61823400D01*
D15*
X111998203Y-49983400D02*
G75*
G03*
X111638997Y-49983400I-179603J0D01*
G01*
X111638997Y-49983400D02*
G75*
G03*
X111998203Y-49983400I179603J0D01*
G01*
D13*
X110250030Y-58619400D02*
G75*
G03*
X107037170Y-58619400I-1606430J0D01*
G01*
X107037170Y-58619400D02*
G75*
G03*
X110250030Y-58619400I1606430J0D01*
G01*
X110250030Y-41855400D02*
G75*
G03*
X107037170Y-41855400I-1606430J0D01*
G01*
X107037170Y-41855400D02*
G75*
G03*
X110250030Y-41855400I1606430J0D01*
G01*
D12*
X128170000Y-129759000D02*
X128170000Y-134401000D01*
X128170000Y-129759000D02*
X135910000Y-129759000D01*
X128170000Y-134401000D02*
X135910000Y-134401000D01*
X135910000Y-129759000D02*
X135910000Y-134401000D01*
D13*
X106680000Y-83820000D02*
X106680000Y-68580000D01*
X127000000Y-83820000D02*
X106680000Y-83820000D01*
X106680000Y-68580000D02*
X127000000Y-68580000D01*
X127000000Y-68580000D02*
X127000000Y-83820000D01*
D16*
X108090000Y-84400000D02*
G75*
G03*
X107790000Y-84400000I-150000J0D01*
G01*
X107790000Y-84400000D02*
G75*
G03*
X108090000Y-84400000I150000J0D01*
G01*
D13*
X120440000Y-149860000D02*
X120440000Y-139700000D01*
X127640000Y-149860000D02*
X120440000Y-149860000D01*
X127640000Y-149860000D02*
X127640000Y-139700000D01*
X128640000Y-149860000D02*
X127640000Y-149860000D01*
X120440000Y-139700000D02*
X127640000Y-139700000D01*
X127640000Y-139700000D02*
X128640000Y-139700000D01*
X128640000Y-139700000D02*
X128640000Y-149860000D01*
D12*
X135790000Y-45720000D02*
X133180000Y-45720000D01*
X138530000Y-45720000D02*
G75*
G03*
X135790000Y-45720000I-1370000J0D01*
G01*
X135790000Y-45720000D02*
G75*
G03*
X138530000Y-45720000I1370000J0D01*
G01*
X151030000Y-81499000D02*
X151030000Y-86141000D01*
X151030000Y-81499000D02*
X158770000Y-81499000D01*
X151030000Y-86141000D02*
X158770000Y-86141000D01*
X158770000Y-81499000D02*
X158770000Y-86141000D01*
D13*
X159120000Y-139700000D02*
X159120000Y-149860000D01*
X151920000Y-139700000D02*
X159120000Y-139700000D01*
X151920000Y-139700000D02*
X151920000Y-149860000D01*
X150920000Y-139700000D02*
X151920000Y-139700000D01*
X159120000Y-149860000D02*
X151920000Y-149860000D01*
X151920000Y-149860000D02*
X150920000Y-149860000D01*
X150920000Y-149860000D02*
X150920000Y-139700000D01*
D12*
X146965000Y-89515000D02*
X146965000Y-89785000D01*
X146965000Y-96415000D02*
X146965000Y-96145000D01*
X153385000Y-89515000D02*
X146965000Y-89515000D01*
X153385000Y-96415000D02*
X146965000Y-96415000D01*
X145550000Y-89805000D02*
X145310000Y-89475000D01*
X145790000Y-89475000D01*
X145550000Y-89805000D01*
G36*
X145550000Y-89805000D02*
G01*
X145310000Y-89475000D01*
X145790000Y-89475000D01*
X145550000Y-89805000D01*
G37*
D10*
X140970000Y-135380000D02*
X140970000Y-128780000D01*
X153670000Y-135380000D02*
X140970000Y-135380000D01*
X140970000Y-128780000D02*
X153670000Y-128780000D01*
X153670000Y-128780000D02*
X153670000Y-135380000D01*
D17*
X143061419Y-136380000D02*
G75*
G03*
X142778581Y-136380000I-141419J0D01*
G01*
X142778581Y-136380000D02*
G75*
G03*
X143061419Y-136380000I141419J0D01*
G01*
X143143606Y-136380000D02*
G75*
G03*
X142696394Y-136380000I-223606J0D01*
G01*
X142696394Y-136380000D02*
G75*
G03*
X143143606Y-136380000I223606J0D01*
G01*
X143143606Y-136380000D02*
G75*
G03*
X142696394Y-136380000I-223606J0D01*
G01*
X142696394Y-136380000D02*
G75*
G03*
X143143606Y-136380000I223606J0D01*
G01*
X143143606Y-136380000D02*
G75*
G03*
X142696394Y-136380000I-223606J0D01*
G01*
X142696394Y-136380000D02*
G75*
G03*
X143143606Y-136380000I223606J0D01*
G01*
X143202841Y-136380000D02*
G75*
G03*
X142637159Y-136380000I-282841J0D01*
G01*
X142637159Y-136380000D02*
G75*
G03*
X143202841Y-136380000I282841J0D01*
G01*
X143280553Y-136380000D02*
G75*
G03*
X142559447Y-136380000I-360553J0D01*
G01*
X142559447Y-136380000D02*
G75*
G03*
X143280553Y-136380000I360553J0D01*
G01*
%LPC*%
D18*
X142240000Y-76200000D03*
D19*
X147320000Y-76200000D03*
D18*
X142240000Y-83820000D03*
D19*
X147320000Y-83820000D03*
D20*
X157480000Y-123190000D03*
D21*
X157480000Y-105410000D03*
X116840000Y-105410000D03*
X116840000Y-123190000D03*
D18*
X137160000Y-40640000D03*
D19*
X132080000Y-40640000D03*
D18*
X158380000Y-76200000D03*
D19*
X153300000Y-76200000D03*
D22*
X158350000Y-55880000D03*
X143110000Y-60960000D03*
X143110000Y-63500000D03*
X143110000Y-43180000D03*
X143110000Y-45720000D03*
X143110000Y-48260000D03*
X143110000Y-50800000D03*
X143110000Y-53340000D03*
X143110000Y-55880000D03*
X158350000Y-53340000D03*
X158350000Y-50800000D03*
X143110000Y-58420000D03*
X158350000Y-63500000D03*
X158350000Y-60960000D03*
X158350000Y-58420000D03*
X143110000Y-66040000D03*
X158350000Y-66040000D03*
X158350000Y-48260000D03*
X158350000Y-45720000D03*
X156290000Y-38100000D03*
X145170000Y-38100000D03*
X158350000Y-43180000D03*
D23*
X120581600Y-44427400D03*
X120581600Y-57127400D03*
X120581600Y-41887400D03*
X120581600Y-54587400D03*
X120581600Y-52047400D03*
X120581600Y-59667400D03*
X120581600Y-46967400D03*
X120581600Y-49507400D03*
D18*
X129540000Y-132080000D03*
X134540000Y-132080000D03*
D24*
X107950000Y-82550000D03*
D25*
X110490000Y-82550000D03*
X113030000Y-82550000D03*
X115570000Y-82550000D03*
X118110000Y-82550000D03*
X120650000Y-82550000D03*
X123190000Y-82550000D03*
D24*
X125730000Y-82550000D03*
X125730000Y-69850000D03*
D25*
X123190000Y-69850000D03*
X120650000Y-69850000D03*
X118110000Y-69850000D03*
X115570000Y-69850000D03*
X113030000Y-69850000D03*
X110490000Y-69850000D03*
X107950000Y-69850000D03*
D26*
X124540000Y-147320000D03*
D27*
X124540000Y-142240000D03*
D18*
X137160000Y-45720000D03*
D19*
X132080000Y-45720000D03*
D18*
X152400000Y-83820000D03*
X157400000Y-83820000D03*
D28*
X155020000Y-142240000D03*
D27*
X155020000Y-147320000D03*
D29*
X145235000Y-90685000D03*
X145235000Y-92965000D03*
D30*
X151535000Y-92965000D03*
D29*
X145235000Y-95245000D03*
D31*
X142620000Y-132080000D03*
D32*
X147320000Y-132080000D03*
X152020000Y-132080000D03*
D33*
X137240000Y-144780000D03*
D34*
X137240000Y-146780000D03*
%LPD*%
M02*
